%TF.GenerationSoftware,KiCad,Pcbnew,(6.0.11-0)*%
%TF.CreationDate,2023-03-27T16:41:50-06:00*%
%TF.ProjectId,LCD,4c43442e-6b69-4636-9164-5f7063625858,rev?*%
%TF.SameCoordinates,Original*%
%TF.FileFunction,Copper,L2,Bot*%
%TF.FilePolarity,Positive*%
%FSLAX46Y46*%
G04 Gerber Fmt 4.6, Leading zero omitted, Abs format (unit mm)*
G04 Created by KiCad (PCBNEW (6.0.11-0)) date 2023-03-27 16:41:50*
%MOMM*%
%LPD*%
G01*
G04 APERTURE LIST*
G04 Aperture macros list*
%AMRoundRect*
0 Rectangle with rounded corners*
0 $1 Rounding radius*
0 $2 $3 $4 $5 $6 $7 $8 $9 X,Y pos of 4 corners*
0 Add a 4 corners polygon primitive as box body*
4,1,4,$2,$3,$4,$5,$6,$7,$8,$9,$2,$3,0*
0 Add four circle primitives for the rounded corners*
1,1,$1+$1,$2,$3*
1,1,$1+$1,$4,$5*
1,1,$1+$1,$6,$7*
1,1,$1+$1,$8,$9*
0 Add four rect primitives between the rounded corners*
20,1,$1+$1,$2,$3,$4,$5,0*
20,1,$1+$1,$4,$5,$6,$7,0*
20,1,$1+$1,$6,$7,$8,$9,0*
20,1,$1+$1,$8,$9,$2,$3,0*%
G04 Aperture macros list end*
%TA.AperFunction,ComponentPad*%
%ADD10C,1.800000*%
%TD*%
%TA.AperFunction,ComponentPad*%
%ADD11RoundRect,0.249999X1.550001X-0.790001X1.550001X0.790001X-1.550001X0.790001X-1.550001X-0.790001X0*%
%TD*%
%TA.AperFunction,ComponentPad*%
%ADD12O,3.600000X2.080000*%
%TD*%
%TA.AperFunction,ComponentPad*%
%ADD13O,1.800000X2.600000*%
%TD*%
%TA.AperFunction,WasherPad*%
%ADD14C,3.230000*%
%TD*%
%TA.AperFunction,ComponentPad*%
%ADD15R,1.524000X1.524000*%
%TD*%
%TA.AperFunction,ComponentPad*%
%ADD16C,1.524000*%
%TD*%
%TA.AperFunction,ComponentPad*%
%ADD17C,2.400000*%
%TD*%
%TA.AperFunction,ComponentPad*%
%ADD18O,2.400000X2.400000*%
%TD*%
G04 APERTURE END LIST*
D10*
X72625000Y-94215000D03*
X75165000Y-86595000D03*
X72625000Y-81515000D03*
D11*
X55880000Y-91440000D03*
D12*
X55880000Y-86360000D03*
X55880000Y-81280000D03*
X55880000Y-76200000D03*
X55880000Y-71120000D03*
X55880000Y-66040000D03*
D13*
X82301080Y-106418380D03*
X84841080Y-106418380D03*
X87381080Y-106418380D03*
X89921080Y-106418380D03*
X92461080Y-106418380D03*
X95001080Y-106418380D03*
X97541080Y-106418380D03*
X100081080Y-106418380D03*
X102621080Y-106418380D03*
X105161080Y-106418380D03*
X107701080Y-106418380D03*
X110241080Y-106418380D03*
X112781080Y-106418380D03*
X115321080Y-106418380D03*
X117861080Y-106418380D03*
X120401080Y-106418380D03*
D14*
X35560000Y-152480000D03*
D15*
X104140000Y-46330000D03*
D16*
X104140000Y-48870000D03*
X104140000Y-51410000D03*
X104140000Y-53950000D03*
X104140000Y-56490000D03*
X104140000Y-59030000D03*
X104140000Y-61570000D03*
X104140000Y-64110000D03*
X104140000Y-66650000D03*
X104140000Y-69190000D03*
X104140000Y-71730000D03*
X104140000Y-74270000D03*
X104140000Y-76810000D03*
X104140000Y-79350000D03*
X104140000Y-81890000D03*
X129540000Y-81890000D03*
X129540000Y-79350000D03*
X129540000Y-76810000D03*
X129540000Y-74270000D03*
X129540000Y-71730000D03*
X129540000Y-69190000D03*
X129540000Y-66650000D03*
X129540000Y-64110000D03*
X129540000Y-61570000D03*
X129540000Y-59030000D03*
X129540000Y-56490000D03*
X129540000Y-53950000D03*
X129540000Y-51410000D03*
X129540000Y-48870000D03*
X129540000Y-46330000D03*
D17*
X68580000Y-111760000D03*
D18*
X68580000Y-137160000D03*
%TA.AperFunction,Conductor*%
G36*
X34570268Y-25928502D02*
G01*
X34616761Y-25982158D01*
X34626865Y-26052432D01*
X34597371Y-26117012D01*
X34559937Y-26146466D01*
X34457399Y-26199390D01*
X34220515Y-26365874D01*
X34217370Y-26368797D01*
X34217367Y-26368799D01*
X34202148Y-26382942D01*
X34008418Y-26562967D01*
X33825031Y-26787022D01*
X33673749Y-27033892D01*
X33557371Y-27299009D01*
X33478050Y-27577468D01*
X33477446Y-27581710D01*
X33477445Y-27581716D01*
X33474338Y-27603550D01*
X33437254Y-27864115D01*
X33436455Y-28016747D01*
X33436135Y-28077895D01*
X33435738Y-28153647D01*
X33436297Y-28157891D01*
X33436297Y-28157895D01*
X33439225Y-28180136D01*
X33473530Y-28440706D01*
X33549931Y-28719980D01*
X33663526Y-28986302D01*
X33812215Y-29234742D01*
X33993245Y-29460705D01*
X34203267Y-29660008D01*
X34438395Y-29828964D01*
X34694277Y-29964447D01*
X34718759Y-29973406D01*
X34925495Y-30049061D01*
X34966178Y-30063949D01*
X35249068Y-30125629D01*
X35253337Y-30125965D01*
X35473691Y-30143307D01*
X35473700Y-30143307D01*
X35476148Y-30143500D01*
X35632785Y-30143500D01*
X35634921Y-30143354D01*
X35634932Y-30143354D01*
X35844588Y-30129061D01*
X35844594Y-30129060D01*
X35848865Y-30128769D01*
X35853060Y-30127900D01*
X35853062Y-30127900D01*
X35990626Y-30099412D01*
X36132386Y-30070055D01*
X36405314Y-29973406D01*
X36662601Y-29840610D01*
X36899485Y-29674126D01*
X36902633Y-29671201D01*
X37108439Y-29479954D01*
X37108442Y-29479951D01*
X37111582Y-29477033D01*
X37294969Y-29252978D01*
X37446251Y-29006108D01*
X37481369Y-28926108D01*
X37560904Y-28744920D01*
X37562629Y-28740991D01*
X37641950Y-28462532D01*
X37645057Y-28440706D01*
X37682141Y-28180136D01*
X37682746Y-28175885D01*
X37684262Y-27886353D01*
X37681335Y-27864115D01*
X37647030Y-27603550D01*
X37646470Y-27599294D01*
X37618614Y-27497468D01*
X37571203Y-27324165D01*
X37571203Y-27324164D01*
X37570069Y-27320020D01*
X37456474Y-27053698D01*
X37307785Y-26805258D01*
X37126755Y-26579295D01*
X36916733Y-26379992D01*
X36681605Y-26211036D01*
X36558498Y-26145854D01*
X36507655Y-26096301D01*
X36491673Y-26027127D01*
X36515627Y-25960293D01*
X36571911Y-25917020D01*
X36617457Y-25908500D01*
X181679057Y-25908500D01*
X181747178Y-25928502D01*
X181793671Y-25982158D01*
X181803775Y-26052432D01*
X181774281Y-26117012D01*
X181751507Y-26137587D01*
X181666370Y-26197422D01*
X181540515Y-26285874D01*
X181537370Y-26288797D01*
X181537367Y-26288799D01*
X181436058Y-26382942D01*
X181328418Y-26482967D01*
X181145031Y-26707022D01*
X180993749Y-26953892D01*
X180992030Y-26957809D01*
X180992028Y-26957812D01*
X180956911Y-27037812D01*
X180877371Y-27219009D01*
X180798050Y-27497468D01*
X180797446Y-27501710D01*
X180797445Y-27501716D01*
X180784147Y-27595152D01*
X180757254Y-27784115D01*
X180755738Y-28073647D01*
X180756297Y-28077891D01*
X180756297Y-28077895D01*
X180772927Y-28204210D01*
X180793530Y-28360706D01*
X180794663Y-28364846D01*
X180794663Y-28364848D01*
X180822516Y-28466662D01*
X180869931Y-28639980D01*
X180983526Y-28906302D01*
X181132215Y-29154742D01*
X181313245Y-29380705D01*
X181523267Y-29580008D01*
X181758395Y-29748964D01*
X182014277Y-29884447D01*
X182038759Y-29893406D01*
X182251996Y-29971440D01*
X182286178Y-29983949D01*
X182569068Y-30045629D01*
X182573337Y-30045965D01*
X182793691Y-30063307D01*
X182793700Y-30063307D01*
X182796148Y-30063500D01*
X182952785Y-30063500D01*
X182954921Y-30063354D01*
X182954932Y-30063354D01*
X183164588Y-30049061D01*
X183164594Y-30049060D01*
X183168865Y-30048769D01*
X183173060Y-30047900D01*
X183173062Y-30047900D01*
X183310625Y-30019412D01*
X183452386Y-29990055D01*
X183725314Y-29893406D01*
X183982601Y-29760610D01*
X184219485Y-29594126D01*
X184222633Y-29591201D01*
X184428439Y-29399954D01*
X184428442Y-29399951D01*
X184431582Y-29397033D01*
X184614969Y-29172978D01*
X184678067Y-29070011D01*
X184730715Y-29022380D01*
X184800756Y-29010773D01*
X184865954Y-29038876D01*
X184905608Y-29097766D01*
X184911500Y-29135846D01*
X184911500Y-54723425D01*
X184891498Y-54791546D01*
X184837842Y-54838039D01*
X184767568Y-54848143D01*
X184702988Y-54818649D01*
X184677384Y-54788132D01*
X184627785Y-54705258D01*
X184446755Y-54479295D01*
X184236733Y-54279992D01*
X184001605Y-54111036D01*
X183745723Y-53975553D01*
X183473822Y-53876051D01*
X183190932Y-53814371D01*
X183186663Y-53814035D01*
X182966309Y-53796693D01*
X182966300Y-53796693D01*
X182963852Y-53796500D01*
X182807215Y-53796500D01*
X182805079Y-53796646D01*
X182805068Y-53796646D01*
X182595412Y-53810939D01*
X182595406Y-53810940D01*
X182591135Y-53811231D01*
X182586940Y-53812100D01*
X182586938Y-53812100D01*
X182449374Y-53840588D01*
X182307614Y-53869945D01*
X182034686Y-53966594D01*
X181777399Y-54099390D01*
X181540515Y-54265874D01*
X181537370Y-54268797D01*
X181537367Y-54268799D01*
X181416748Y-54380886D01*
X181328418Y-54462967D01*
X181145031Y-54687022D01*
X180993749Y-54933892D01*
X180877371Y-55199009D01*
X180876195Y-55203137D01*
X180876194Y-55203140D01*
X180871386Y-55220020D01*
X180798050Y-55477468D01*
X180797446Y-55481710D01*
X180797445Y-55481716D01*
X180792435Y-55516920D01*
X180757254Y-55764115D01*
X180755738Y-56053647D01*
X180756297Y-56057891D01*
X180756297Y-56057895D01*
X180772927Y-56184210D01*
X180793530Y-56340706D01*
X180794663Y-56344846D01*
X180794663Y-56344848D01*
X180834372Y-56490000D01*
X180869931Y-56619980D01*
X180983526Y-56886302D01*
X181132215Y-57134742D01*
X181313245Y-57360705D01*
X181523267Y-57560008D01*
X181758395Y-57728964D01*
X182014277Y-57864447D01*
X182286178Y-57963949D01*
X182569068Y-58025629D01*
X182573337Y-58025965D01*
X182793691Y-58043307D01*
X182793700Y-58043307D01*
X182796148Y-58043500D01*
X182952785Y-58043500D01*
X182954921Y-58043354D01*
X182954932Y-58043354D01*
X183164588Y-58029061D01*
X183164594Y-58029060D01*
X183168865Y-58028769D01*
X183173060Y-58027900D01*
X183173062Y-58027900D01*
X183310626Y-57999412D01*
X183452386Y-57970055D01*
X183725314Y-57873406D01*
X183982601Y-57740610D01*
X184219485Y-57574126D01*
X184222633Y-57571201D01*
X184428439Y-57379954D01*
X184428442Y-57379951D01*
X184431582Y-57377033D01*
X184614969Y-57152978D01*
X184678067Y-57050011D01*
X184730715Y-57002380D01*
X184800756Y-56990773D01*
X184865954Y-57018876D01*
X184905608Y-57077766D01*
X184911500Y-57115846D01*
X184911500Y-85163425D01*
X184891498Y-85231546D01*
X184837842Y-85278039D01*
X184767568Y-85288143D01*
X184702988Y-85258649D01*
X184677384Y-85228132D01*
X184672139Y-85219368D01*
X184627785Y-85145258D01*
X184607374Y-85119780D01*
X184462740Y-84939248D01*
X184446755Y-84919295D01*
X184236733Y-84719992D01*
X184001605Y-84551036D01*
X183745723Y-84415553D01*
X183473822Y-84316051D01*
X183190932Y-84254371D01*
X183186663Y-84254035D01*
X182966309Y-84236693D01*
X182966300Y-84236693D01*
X182963852Y-84236500D01*
X182807215Y-84236500D01*
X182805079Y-84236646D01*
X182805068Y-84236646D01*
X182595412Y-84250939D01*
X182595406Y-84250940D01*
X182591135Y-84251231D01*
X182586940Y-84252100D01*
X182586938Y-84252100D01*
X182449374Y-84280588D01*
X182307614Y-84309945D01*
X182034686Y-84406594D01*
X181777399Y-84539390D01*
X181540515Y-84705874D01*
X181537370Y-84708797D01*
X181537367Y-84708799D01*
X181344162Y-84888337D01*
X181328418Y-84902967D01*
X181145031Y-85127022D01*
X180993749Y-85373892D01*
X180992030Y-85377809D01*
X180992028Y-85377812D01*
X180974470Y-85417810D01*
X180877371Y-85639009D01*
X180798050Y-85917468D01*
X180797446Y-85921710D01*
X180797445Y-85921716D01*
X180771744Y-86102301D01*
X180757254Y-86204115D01*
X180755738Y-86493647D01*
X180756297Y-86497891D01*
X180756297Y-86497895D01*
X180764535Y-86560469D01*
X180793530Y-86780706D01*
X180794663Y-86784846D01*
X180794663Y-86784848D01*
X180863212Y-87035421D01*
X180869931Y-87059980D01*
X180983526Y-87326302D01*
X181132215Y-87574742D01*
X181134899Y-87578093D01*
X181134901Y-87578095D01*
X181202408Y-87662357D01*
X181313245Y-87800705D01*
X181426098Y-87907798D01*
X181500180Y-87978099D01*
X181523267Y-88000008D01*
X181758395Y-88168964D01*
X182014277Y-88304447D01*
X182286178Y-88403949D01*
X182569068Y-88465629D01*
X182573337Y-88465965D01*
X182793691Y-88483307D01*
X182793700Y-88483307D01*
X182796148Y-88483500D01*
X182952785Y-88483500D01*
X182954921Y-88483354D01*
X182954932Y-88483354D01*
X183164588Y-88469061D01*
X183164594Y-88469060D01*
X183168865Y-88468769D01*
X183173060Y-88467900D01*
X183173062Y-88467900D01*
X183310626Y-88439412D01*
X183452386Y-88410055D01*
X183725314Y-88313406D01*
X183982601Y-88180610D01*
X184219485Y-88014126D01*
X184222633Y-88011201D01*
X184428439Y-87819954D01*
X184428442Y-87819951D01*
X184431582Y-87817033D01*
X184614969Y-87592978D01*
X184678067Y-87490011D01*
X184730715Y-87442380D01*
X184800756Y-87430773D01*
X184865954Y-87458876D01*
X184905608Y-87517766D01*
X184911500Y-87555846D01*
X184911500Y-151243425D01*
X184891498Y-151311546D01*
X184837842Y-151358039D01*
X184767568Y-151368143D01*
X184702988Y-151338649D01*
X184677384Y-151308132D01*
X184627785Y-151225258D01*
X184446755Y-150999295D01*
X184236733Y-150799992D01*
X184001605Y-150631036D01*
X183745723Y-150495553D01*
X183473822Y-150396051D01*
X183190932Y-150334371D01*
X183186663Y-150334035D01*
X182966309Y-150316693D01*
X182966300Y-150316693D01*
X182963852Y-150316500D01*
X182807215Y-150316500D01*
X182805079Y-150316646D01*
X182805068Y-150316646D01*
X182595412Y-150330939D01*
X182595406Y-150330940D01*
X182591135Y-150331231D01*
X182586940Y-150332100D01*
X182586938Y-150332100D01*
X182472794Y-150355738D01*
X182307614Y-150389945D01*
X182034686Y-150486594D01*
X181777399Y-150619390D01*
X181540515Y-150785874D01*
X181537370Y-150788797D01*
X181537367Y-150788799D01*
X181387120Y-150928418D01*
X181328418Y-150982967D01*
X181145031Y-151207022D01*
X180993749Y-151453892D01*
X180877371Y-151719009D01*
X180798050Y-151997468D01*
X180797446Y-152001710D01*
X180797445Y-152001716D01*
X180773020Y-152173338D01*
X180757254Y-152284115D01*
X180755738Y-152573647D01*
X180793530Y-152860706D01*
X180869931Y-153139980D01*
X180983526Y-153406302D01*
X181132215Y-153654742D01*
X181313245Y-153880705D01*
X181523267Y-154080008D01*
X181758395Y-154248964D01*
X182014277Y-154384447D01*
X182286178Y-154483949D01*
X182569068Y-154545629D01*
X182573337Y-154545965D01*
X182793691Y-154563307D01*
X182793700Y-154563307D01*
X182796148Y-154563500D01*
X182952785Y-154563500D01*
X182954921Y-154563354D01*
X182954932Y-154563354D01*
X183164588Y-154549061D01*
X183164594Y-154549060D01*
X183168865Y-154548769D01*
X183173060Y-154547900D01*
X183173062Y-154547900D01*
X183417454Y-154497289D01*
X183452386Y-154490055D01*
X183725314Y-154393406D01*
X183982601Y-154260610D01*
X184219485Y-154094126D01*
X184222633Y-154091201D01*
X184428439Y-153899954D01*
X184428442Y-153899951D01*
X184431582Y-153897033D01*
X184614969Y-153672978D01*
X184678067Y-153570011D01*
X184730715Y-153522380D01*
X184800756Y-153510773D01*
X184865954Y-153538876D01*
X184905608Y-153597766D01*
X184911500Y-153635846D01*
X184911500Y-156845500D01*
X184891498Y-156913621D01*
X184837842Y-156960114D01*
X184785500Y-156971500D01*
X31114500Y-156971500D01*
X31046379Y-156951498D01*
X30999886Y-156897842D01*
X30988500Y-156845500D01*
X30988500Y-152457711D01*
X33431655Y-152457711D01*
X33448322Y-152746767D01*
X33449147Y-152750972D01*
X33449148Y-152750980D01*
X33488846Y-152953320D01*
X33504064Y-153030887D01*
X33505451Y-153034938D01*
X33539996Y-153135835D01*
X33597849Y-153304812D01*
X33727943Y-153563475D01*
X33730369Y-153567004D01*
X33730372Y-153567010D01*
X33800691Y-153669324D01*
X33891938Y-153802089D01*
X34086800Y-154016239D01*
X34090089Y-154018989D01*
X34305629Y-154199210D01*
X34305634Y-154199214D01*
X34308921Y-154201962D01*
X34431557Y-154278891D01*
X34550554Y-154353538D01*
X34550558Y-154353540D01*
X34554194Y-154355821D01*
X34558104Y-154357586D01*
X34558105Y-154357587D01*
X34814166Y-154473203D01*
X34814170Y-154473205D01*
X34818078Y-154474969D01*
X34864180Y-154488625D01*
X35091577Y-154555984D01*
X35091582Y-154555985D01*
X35095690Y-154557202D01*
X35099924Y-154557850D01*
X35099929Y-154557851D01*
X35377653Y-154600348D01*
X35377655Y-154600348D01*
X35381895Y-154600997D01*
X35529280Y-154603312D01*
X35667104Y-154605478D01*
X35667110Y-154605478D01*
X35671395Y-154605545D01*
X35958834Y-154570761D01*
X36238893Y-154497289D01*
X36506389Y-154386488D01*
X36513324Y-154382436D01*
X36718437Y-154262578D01*
X36756373Y-154240410D01*
X36984219Y-154061756D01*
X37185711Y-153853832D01*
X37188244Y-153850384D01*
X37188248Y-153850379D01*
X37354582Y-153623942D01*
X37357120Y-153620487D01*
X37471415Y-153409982D01*
X37493225Y-153369814D01*
X37493226Y-153369812D01*
X37495275Y-153366038D01*
X37597618Y-153095193D01*
X37662257Y-152812965D01*
X37687995Y-152524575D01*
X37688462Y-152480000D01*
X37687234Y-152461991D01*
X37669061Y-152195412D01*
X37669060Y-152195406D01*
X37668769Y-152191135D01*
X37665084Y-152173338D01*
X37610924Y-151911811D01*
X37610055Y-151907614D01*
X37513406Y-151634686D01*
X37380610Y-151377399D01*
X37214126Y-151140515D01*
X37082896Y-150999295D01*
X37019954Y-150931561D01*
X37019951Y-150931558D01*
X37017033Y-150928418D01*
X36792978Y-150745031D01*
X36546108Y-150593749D01*
X36542191Y-150592030D01*
X36542188Y-150592028D01*
X36326992Y-150497564D01*
X36280991Y-150477371D01*
X36276863Y-150476195D01*
X36276860Y-150476194D01*
X36190096Y-150451479D01*
X36002532Y-150398050D01*
X35998290Y-150397446D01*
X35998284Y-150397445D01*
X35720136Y-150357859D01*
X35715885Y-150357254D01*
X35563253Y-150356455D01*
X35430639Y-150355760D01*
X35430633Y-150355760D01*
X35426353Y-150355738D01*
X35422109Y-150356297D01*
X35422105Y-150356297D01*
X35295790Y-150372927D01*
X35139294Y-150393530D01*
X35135154Y-150394663D01*
X35135152Y-150394663D01*
X35118469Y-150399227D01*
X34860020Y-150469931D01*
X34593698Y-150583526D01*
X34345258Y-150732215D01*
X34341907Y-150734899D01*
X34341905Y-150734901D01*
X34329261Y-150745031D01*
X34119295Y-150913245D01*
X33919992Y-151123267D01*
X33751036Y-151358395D01*
X33615553Y-151614277D01*
X33516051Y-151886178D01*
X33454371Y-152169068D01*
X33431655Y-152457711D01*
X30988500Y-152457711D01*
X30988500Y-137115151D01*
X66867296Y-137115151D01*
X66879480Y-137368798D01*
X66880393Y-137373386D01*
X66919416Y-137569568D01*
X66929021Y-137617857D01*
X66930600Y-137622255D01*
X66930602Y-137622262D01*
X66975022Y-137745980D01*
X67014831Y-137856858D01*
X67135025Y-138080551D01*
X67137820Y-138084294D01*
X67137822Y-138084297D01*
X67284171Y-138280282D01*
X67284176Y-138280288D01*
X67286963Y-138284020D01*
X67290272Y-138287300D01*
X67290277Y-138287306D01*
X67402166Y-138398222D01*
X67467307Y-138462797D01*
X67471069Y-138465555D01*
X67471072Y-138465558D01*
X67576764Y-138543054D01*
X67672094Y-138612953D01*
X67676229Y-138615129D01*
X67676233Y-138615131D01*
X67794289Y-138677243D01*
X67896827Y-138731191D01*
X68136568Y-138814912D01*
X68386050Y-138862278D01*
X68506532Y-138867011D01*
X68635125Y-138872064D01*
X68635130Y-138872064D01*
X68639793Y-138872247D01*
X68738774Y-138861407D01*
X68887569Y-138845112D01*
X68887575Y-138845111D01*
X68892222Y-138844602D01*
X69001680Y-138815784D01*
X69133273Y-138781138D01*
X69137793Y-138779948D01*
X69256353Y-138729011D01*
X69366807Y-138681557D01*
X69366810Y-138681555D01*
X69371110Y-138679708D01*
X69375090Y-138677245D01*
X69375094Y-138677243D01*
X69583064Y-138548547D01*
X69583066Y-138548545D01*
X69587047Y-138546082D01*
X69685428Y-138462797D01*
X69777289Y-138385031D01*
X69777291Y-138385029D01*
X69780862Y-138382006D01*
X69948295Y-138191084D01*
X69981855Y-138138910D01*
X70083141Y-137981442D01*
X70085669Y-137977512D01*
X70189967Y-137745980D01*
X70244736Y-137551783D01*
X74692723Y-137551783D01*
X74730248Y-137836814D01*
X74806109Y-138114116D01*
X74918903Y-138378556D01*
X74969320Y-138462797D01*
X75059187Y-138612953D01*
X75066541Y-138625241D01*
X75246293Y-138849608D01*
X75454831Y-139047503D01*
X75688297Y-139215266D01*
X75692092Y-139217275D01*
X75692093Y-139217276D01*
X75713849Y-139228795D01*
X75942372Y-139349792D01*
X76212353Y-139448591D01*
X76493244Y-139509835D01*
X76521821Y-139512084D01*
X76716262Y-139527387D01*
X76716271Y-139527387D01*
X76718719Y-139527580D01*
X76874251Y-139527580D01*
X76876387Y-139527434D01*
X76876398Y-139527434D01*
X77084528Y-139513245D01*
X77084534Y-139513244D01*
X77088805Y-139512953D01*
X77093000Y-139512084D01*
X77093002Y-139512084D01*
X77229563Y-139483804D01*
X77370322Y-139454654D01*
X77641323Y-139358687D01*
X77896792Y-139226830D01*
X77900293Y-139224369D01*
X77900297Y-139224367D01*
X78014397Y-139144176D01*
X78132003Y-139061521D01*
X78335883Y-138872064D01*
X78339459Y-138868741D01*
X78339461Y-138868738D01*
X78342602Y-138865820D01*
X78524693Y-138643348D01*
X78674907Y-138398222D01*
X78680698Y-138385031D01*
X78788737Y-138138910D01*
X78790463Y-138134978D01*
X78869224Y-137858486D01*
X78909731Y-137573864D01*
X78909825Y-137556031D01*
X78909847Y-137551783D01*
X149691303Y-137551783D01*
X149728828Y-137836814D01*
X149804689Y-138114116D01*
X149917483Y-138378556D01*
X149967900Y-138462797D01*
X150057767Y-138612953D01*
X150065121Y-138625241D01*
X150244873Y-138849608D01*
X150453411Y-139047503D01*
X150686877Y-139215266D01*
X150690672Y-139217275D01*
X150690673Y-139217276D01*
X150712429Y-139228795D01*
X150940952Y-139349792D01*
X151210933Y-139448591D01*
X151491824Y-139509835D01*
X151520401Y-139512084D01*
X151714842Y-139527387D01*
X151714851Y-139527387D01*
X151717299Y-139527580D01*
X151872831Y-139527580D01*
X151874967Y-139527434D01*
X151874978Y-139527434D01*
X152083108Y-139513245D01*
X152083114Y-139513244D01*
X152087385Y-139512953D01*
X152091580Y-139512084D01*
X152091582Y-139512084D01*
X152228143Y-139483804D01*
X152368902Y-139454654D01*
X152639903Y-139358687D01*
X152895372Y-139226830D01*
X152898873Y-139224369D01*
X152898877Y-139224367D01*
X153012977Y-139144176D01*
X153130583Y-139061521D01*
X153334463Y-138872064D01*
X153338039Y-138868741D01*
X153338041Y-138868738D01*
X153341182Y-138865820D01*
X153523273Y-138643348D01*
X153673487Y-138398222D01*
X153679278Y-138385031D01*
X153787317Y-138138910D01*
X153789043Y-138134978D01*
X153867804Y-137858486D01*
X153908311Y-137573864D01*
X153908405Y-137556031D01*
X153909795Y-137290663D01*
X153909795Y-137290656D01*
X153909817Y-137286377D01*
X153904569Y-137246510D01*
X153872852Y-137005602D01*
X153872292Y-137001346D01*
X153796431Y-136724044D01*
X153683637Y-136459604D01*
X153535999Y-136212919D01*
X153356247Y-135988552D01*
X153190983Y-135831722D01*
X153150818Y-135793607D01*
X153150815Y-135793605D01*
X153147709Y-135790657D01*
X152914243Y-135622894D01*
X152892403Y-135611330D01*
X152790110Y-135557169D01*
X152660168Y-135488368D01*
X152390187Y-135389569D01*
X152109296Y-135328325D01*
X152078245Y-135325881D01*
X151886278Y-135310773D01*
X151886269Y-135310773D01*
X151883821Y-135310580D01*
X151728289Y-135310580D01*
X151726153Y-135310726D01*
X151726142Y-135310726D01*
X151518012Y-135324915D01*
X151518006Y-135324916D01*
X151513735Y-135325207D01*
X151509540Y-135326076D01*
X151509538Y-135326076D01*
X151372976Y-135354357D01*
X151232218Y-135383506D01*
X150961217Y-135479473D01*
X150705748Y-135611330D01*
X150702247Y-135613791D01*
X150702243Y-135613793D01*
X150588142Y-135693985D01*
X150470537Y-135776639D01*
X150259938Y-135972340D01*
X150077847Y-136194812D01*
X149927633Y-136439938D01*
X149812077Y-136703182D01*
X149733316Y-136979674D01*
X149692809Y-137264296D01*
X149692787Y-137268585D01*
X149692786Y-137268592D01*
X149691590Y-137496944D01*
X149691303Y-137551783D01*
X78909847Y-137551783D01*
X78911215Y-137290663D01*
X78911215Y-137290656D01*
X78911237Y-137286377D01*
X78905989Y-137246510D01*
X78874272Y-137005602D01*
X78873712Y-137001346D01*
X78797851Y-136724044D01*
X78685057Y-136459604D01*
X78537419Y-136212919D01*
X78357667Y-135988552D01*
X78192403Y-135831722D01*
X78152238Y-135793607D01*
X78152235Y-135793605D01*
X78149129Y-135790657D01*
X77915663Y-135622894D01*
X77893823Y-135611330D01*
X77791530Y-135557169D01*
X77661588Y-135488368D01*
X77391607Y-135389569D01*
X77110716Y-135328325D01*
X77079665Y-135325881D01*
X76887698Y-135310773D01*
X76887689Y-135310773D01*
X76885241Y-135310580D01*
X76729709Y-135310580D01*
X76727573Y-135310726D01*
X76727562Y-135310726D01*
X76519432Y-135324915D01*
X76519426Y-135324916D01*
X76515155Y-135325207D01*
X76510960Y-135326076D01*
X76510958Y-135326076D01*
X76374396Y-135354357D01*
X76233638Y-135383506D01*
X75962637Y-135479473D01*
X75707168Y-135611330D01*
X75703667Y-135613791D01*
X75703663Y-135613793D01*
X75589562Y-135693985D01*
X75471957Y-135776639D01*
X75261358Y-135972340D01*
X75079267Y-136194812D01*
X74929053Y-136439938D01*
X74813497Y-136703182D01*
X74734736Y-136979674D01*
X74694229Y-137264296D01*
X74694207Y-137268585D01*
X74694206Y-137268592D01*
X74693010Y-137496944D01*
X74692723Y-137551783D01*
X70244736Y-137551783D01*
X70258896Y-137501575D01*
X70286273Y-137286377D01*
X70290545Y-137252798D01*
X70290545Y-137252792D01*
X70290943Y-137249667D01*
X70293291Y-137160000D01*
X70274472Y-136906759D01*
X70218428Y-136659082D01*
X70142392Y-136463556D01*
X70128084Y-136426762D01*
X70128083Y-136426760D01*
X70126391Y-136422409D01*
X70105866Y-136386498D01*
X70002702Y-136205997D01*
X70002700Y-136205995D01*
X70000383Y-136201940D01*
X69843171Y-136002517D01*
X69658209Y-135828523D01*
X69587626Y-135779558D01*
X69453393Y-135686437D01*
X69453390Y-135686435D01*
X69449561Y-135683779D01*
X69445384Y-135681719D01*
X69445377Y-135681715D01*
X69225996Y-135573528D01*
X69225992Y-135573527D01*
X69221810Y-135571464D01*
X68979960Y-135494047D01*
X68936032Y-135486893D01*
X68733935Y-135453980D01*
X68733934Y-135453980D01*
X68729323Y-135453229D01*
X68602364Y-135451567D01*
X68480083Y-135449966D01*
X68480080Y-135449966D01*
X68475406Y-135449905D01*
X68223787Y-135484149D01*
X68219301Y-135485457D01*
X68219299Y-135485457D01*
X68192401Y-135493297D01*
X67979993Y-135555208D01*
X67749380Y-135661522D01*
X67745471Y-135664085D01*
X67540928Y-135798189D01*
X67540923Y-135798193D01*
X67537015Y-135800755D01*
X67347562Y-135969848D01*
X67185183Y-136165087D01*
X67053447Y-136382182D01*
X66955246Y-136616365D01*
X66892738Y-136862490D01*
X66867296Y-137115151D01*
X30988500Y-137115151D01*
X30988500Y-111715151D01*
X66867296Y-111715151D01*
X66879480Y-111968798D01*
X66929021Y-112217857D01*
X66930600Y-112222255D01*
X66930602Y-112222262D01*
X66975022Y-112345980D01*
X67014831Y-112456858D01*
X67135025Y-112680551D01*
X67137820Y-112684294D01*
X67137822Y-112684297D01*
X67284171Y-112880282D01*
X67284176Y-112880288D01*
X67286963Y-112884020D01*
X67290272Y-112887300D01*
X67290277Y-112887306D01*
X67388859Y-112985031D01*
X67467307Y-113062797D01*
X67471069Y-113065555D01*
X67471072Y-113065558D01*
X67576764Y-113143054D01*
X67672094Y-113212953D01*
X67676229Y-113215129D01*
X67676233Y-113215131D01*
X67794289Y-113277243D01*
X67896827Y-113331191D01*
X68136568Y-113414912D01*
X68386050Y-113462278D01*
X68506532Y-113467011D01*
X68635125Y-113472064D01*
X68635130Y-113472064D01*
X68639793Y-113472247D01*
X68738774Y-113461407D01*
X68887569Y-113445112D01*
X68887575Y-113445111D01*
X68892222Y-113444602D01*
X69001680Y-113415784D01*
X69133273Y-113381138D01*
X69137793Y-113379948D01*
X69256353Y-113329011D01*
X69366807Y-113281557D01*
X69366810Y-113281555D01*
X69371110Y-113279708D01*
X69375090Y-113277245D01*
X69375094Y-113277243D01*
X69583064Y-113148547D01*
X69583066Y-113148545D01*
X69587047Y-113146082D01*
X69685428Y-113062797D01*
X69777289Y-112985031D01*
X69777291Y-112985029D01*
X69780862Y-112982006D01*
X69948295Y-112791084D01*
X70085669Y-112577512D01*
X70189967Y-112345980D01*
X70258896Y-112101575D01*
X70290943Y-111849667D01*
X70293291Y-111760000D01*
X70274472Y-111506759D01*
X70218428Y-111259082D01*
X70126391Y-111022409D01*
X70105866Y-110986498D01*
X70002702Y-110805997D01*
X70002700Y-110805995D01*
X70000383Y-110801940D01*
X69843171Y-110602517D01*
X69658209Y-110428523D01*
X69614483Y-110398189D01*
X69453393Y-110286437D01*
X69453390Y-110286435D01*
X69449561Y-110283779D01*
X69445384Y-110281719D01*
X69445377Y-110281715D01*
X69225996Y-110173528D01*
X69225992Y-110173527D01*
X69221810Y-110171464D01*
X68979960Y-110094047D01*
X68975355Y-110093297D01*
X68733935Y-110053980D01*
X68733934Y-110053980D01*
X68729323Y-110053229D01*
X68602364Y-110051567D01*
X68480083Y-110049966D01*
X68480080Y-110049966D01*
X68475406Y-110049905D01*
X68223787Y-110084149D01*
X67979993Y-110155208D01*
X67749380Y-110261522D01*
X67745471Y-110264085D01*
X67540928Y-110398189D01*
X67540923Y-110398193D01*
X67537015Y-110400755D01*
X67347562Y-110569848D01*
X67185183Y-110765087D01*
X67053447Y-110982182D01*
X66955246Y-111216365D01*
X66892738Y-111462490D01*
X66867296Y-111715151D01*
X30988500Y-111715151D01*
X30988500Y-106551083D01*
X74692723Y-106551083D01*
X74730248Y-106836114D01*
X74806109Y-107113416D01*
X74918903Y-107377856D01*
X74951238Y-107431883D01*
X75059925Y-107613486D01*
X75066541Y-107624541D01*
X75246293Y-107848908D01*
X75359825Y-107956646D01*
X75422551Y-108016170D01*
X75454831Y-108046803D01*
X75630406Y-108172967D01*
X75669026Y-108200718D01*
X75688297Y-108214566D01*
X75692092Y-108216575D01*
X75692093Y-108216576D01*
X75713849Y-108228095D01*
X75942372Y-108349092D01*
X76212353Y-108447891D01*
X76493244Y-108509135D01*
X76521821Y-108511384D01*
X76716262Y-108526687D01*
X76716271Y-108526687D01*
X76718719Y-108526880D01*
X76874251Y-108526880D01*
X76876387Y-108526734D01*
X76876398Y-108526734D01*
X77084528Y-108512545D01*
X77084534Y-108512544D01*
X77088805Y-108512253D01*
X77093000Y-108511384D01*
X77093002Y-108511384D01*
X77229564Y-108483103D01*
X77370322Y-108453954D01*
X77641323Y-108357987D01*
X77888901Y-108230203D01*
X77892985Y-108228095D01*
X77892986Y-108228095D01*
X77896792Y-108226130D01*
X77900293Y-108223669D01*
X77900297Y-108223667D01*
X78096084Y-108086065D01*
X78132003Y-108060821D01*
X78236932Y-107963315D01*
X78339459Y-107868041D01*
X78339461Y-107868038D01*
X78342602Y-107865120D01*
X78524693Y-107642648D01*
X78674907Y-107397522D01*
X78790463Y-107134278D01*
X78864115Y-106875720D01*
X80893080Y-106875720D01*
X80893305Y-106881029D01*
X80907740Y-107051151D01*
X80909532Y-107061639D01*
X80966881Y-107282591D01*
X80970413Y-107292619D01*
X81064165Y-107500743D01*
X81069345Y-107510049D01*
X81196827Y-107699404D01*
X81203486Y-107707687D01*
X81361051Y-107872858D01*
X81369022Y-107879910D01*
X81552162Y-108016170D01*
X81561199Y-108021774D01*
X81764686Y-108125231D01*
X81774539Y-108129232D01*
X81992541Y-108196924D01*
X82002928Y-108199208D01*
X82029123Y-108202680D01*
X82043287Y-108200484D01*
X82047080Y-108187299D01*
X82047080Y-108185662D01*
X82555080Y-108185662D01*
X82559053Y-108199193D01*
X82569660Y-108200718D01*
X82701920Y-108172967D01*
X82712117Y-108169907D01*
X82924420Y-108086065D01*
X82933956Y-108081331D01*
X83129105Y-107962912D01*
X83137698Y-107956646D01*
X83310107Y-107807038D01*
X83317527Y-107799408D01*
X83462261Y-107622891D01*
X83469722Y-107612036D01*
X83524792Y-107567227D01*
X83595345Y-107559304D01*
X83658981Y-107590782D01*
X83678080Y-107613039D01*
X83739414Y-107704142D01*
X83904406Y-107877098D01*
X84096180Y-108019782D01*
X84100931Y-108022198D01*
X84100935Y-108022200D01*
X84304494Y-108125694D01*
X84309252Y-108128113D01*
X84423392Y-108163555D01*
X84532429Y-108197412D01*
X84532435Y-108197413D01*
X84537532Y-108198996D01*
X84664963Y-108215886D01*
X84769207Y-108229703D01*
X84769211Y-108229703D01*
X84774491Y-108230403D01*
X84779820Y-108230203D01*
X84779821Y-108230203D01*
X84877589Y-108226532D01*
X85013354Y-108221435D01*
X85113206Y-108200484D01*
X85242064Y-108173447D01*
X85242067Y-108173446D01*
X85247291Y-108172350D01*
X85469613Y-108084551D01*
X85673963Y-107960548D01*
X85854499Y-107803887D01*
X85857882Y-107799761D01*
X85857886Y-107799757D01*
X86002671Y-107623178D01*
X86002673Y-107623175D01*
X86006058Y-107619047D01*
X86008697Y-107614411D01*
X86010025Y-107612479D01*
X86065096Y-107567672D01*
X86135650Y-107559751D01*
X86199285Y-107591232D01*
X86218381Y-107613486D01*
X86279414Y-107704142D01*
X86444406Y-107877098D01*
X86636180Y-108019782D01*
X86640931Y-108022198D01*
X86640935Y-108022200D01*
X86844494Y-108125694D01*
X86849252Y-108128113D01*
X86963392Y-108163555D01*
X87072429Y-108197412D01*
X87072435Y-108197413D01*
X87077532Y-108198996D01*
X87204963Y-108215886D01*
X87309207Y-108229703D01*
X87309211Y-108229703D01*
X87314491Y-108230403D01*
X87319820Y-108230203D01*
X87319821Y-108230203D01*
X87417589Y-108226532D01*
X87553354Y-108221435D01*
X87653206Y-108200484D01*
X87782064Y-108173447D01*
X87782067Y-108173446D01*
X87787291Y-108172350D01*
X88009613Y-108084551D01*
X88213963Y-107960548D01*
X88394499Y-107803887D01*
X88397882Y-107799761D01*
X88397886Y-107799757D01*
X88542671Y-107623178D01*
X88542673Y-107623175D01*
X88546058Y-107619047D01*
X88548697Y-107614411D01*
X88550025Y-107612479D01*
X88605096Y-107567672D01*
X88675650Y-107559751D01*
X88739285Y-107591232D01*
X88758381Y-107613486D01*
X88819414Y-107704142D01*
X88984406Y-107877098D01*
X89176180Y-108019782D01*
X89180931Y-108022198D01*
X89180935Y-108022200D01*
X89384494Y-108125694D01*
X89389252Y-108128113D01*
X89503392Y-108163555D01*
X89612429Y-108197412D01*
X89612435Y-108197413D01*
X89617532Y-108198996D01*
X89744963Y-108215886D01*
X89849207Y-108229703D01*
X89849211Y-108229703D01*
X89854491Y-108230403D01*
X89859820Y-108230203D01*
X89859821Y-108230203D01*
X89957589Y-108226532D01*
X90093354Y-108221435D01*
X90193206Y-108200484D01*
X90322064Y-108173447D01*
X90322067Y-108173446D01*
X90327291Y-108172350D01*
X90549613Y-108084551D01*
X90753963Y-107960548D01*
X90934499Y-107803887D01*
X90937882Y-107799761D01*
X90937886Y-107799757D01*
X91066706Y-107642648D01*
X91086058Y-107619047D01*
X91088699Y-107614407D01*
X91090324Y-107612043D01*
X91145392Y-107567232D01*
X91215945Y-107559307D01*
X91279582Y-107590783D01*
X91298684Y-107613042D01*
X91356831Y-107699409D01*
X91363486Y-107707687D01*
X91521051Y-107872858D01*
X91529022Y-107879910D01*
X91712162Y-108016170D01*
X91721199Y-108021774D01*
X91924686Y-108125231D01*
X91934539Y-108129232D01*
X92152541Y-108196924D01*
X92162928Y-108199208D01*
X92189123Y-108202680D01*
X92203287Y-108200484D01*
X92207080Y-108187299D01*
X92207080Y-108185662D01*
X92715080Y-108185662D01*
X92719053Y-108199193D01*
X92729660Y-108200718D01*
X92861920Y-108172967D01*
X92872117Y-108169907D01*
X93084420Y-108086065D01*
X93093956Y-108081331D01*
X93289105Y-107962912D01*
X93297698Y-107956646D01*
X93470107Y-107807038D01*
X93477527Y-107799408D01*
X93622261Y-107622891D01*
X93629722Y-107612036D01*
X93684792Y-107567227D01*
X93755345Y-107559304D01*
X93818981Y-107590782D01*
X93838080Y-107613039D01*
X93899414Y-107704142D01*
X94064406Y-107877098D01*
X94256180Y-108019782D01*
X94260931Y-108022198D01*
X94260935Y-108022200D01*
X94464494Y-108125694D01*
X94469252Y-108128113D01*
X94583392Y-108163555D01*
X94692429Y-108197412D01*
X94692435Y-108197413D01*
X94697532Y-108198996D01*
X94824963Y-108215886D01*
X94929207Y-108229703D01*
X94929211Y-108229703D01*
X94934491Y-108230403D01*
X94939820Y-108230203D01*
X94939821Y-108230203D01*
X95037589Y-108226532D01*
X95173354Y-108221435D01*
X95273206Y-108200484D01*
X95402064Y-108173447D01*
X95402067Y-108173446D01*
X95407291Y-108172350D01*
X95629613Y-108084551D01*
X95833963Y-107960548D01*
X96014499Y-107803887D01*
X96017882Y-107799761D01*
X96017886Y-107799757D01*
X96162671Y-107623178D01*
X96162673Y-107623175D01*
X96166058Y-107619047D01*
X96168697Y-107614411D01*
X96170025Y-107612479D01*
X96225096Y-107567672D01*
X96295650Y-107559751D01*
X96359285Y-107591232D01*
X96378381Y-107613486D01*
X96439414Y-107704142D01*
X96604406Y-107877098D01*
X96796180Y-108019782D01*
X96800931Y-108022198D01*
X96800935Y-108022200D01*
X97004494Y-108125694D01*
X97009252Y-108128113D01*
X97123392Y-108163555D01*
X97232429Y-108197412D01*
X97232435Y-108197413D01*
X97237532Y-108198996D01*
X97364963Y-108215886D01*
X97469207Y-108229703D01*
X97469211Y-108229703D01*
X97474491Y-108230403D01*
X97479820Y-108230203D01*
X97479821Y-108230203D01*
X97577589Y-108226532D01*
X97713354Y-108221435D01*
X97813206Y-108200484D01*
X97942064Y-108173447D01*
X97942067Y-108173446D01*
X97947291Y-108172350D01*
X98169613Y-108084551D01*
X98373963Y-107960548D01*
X98554499Y-107803887D01*
X98557882Y-107799761D01*
X98557886Y-107799757D01*
X98702671Y-107623178D01*
X98702673Y-107623175D01*
X98706058Y-107619047D01*
X98708697Y-107614411D01*
X98710025Y-107612479D01*
X98765096Y-107567672D01*
X98835650Y-107559751D01*
X98899285Y-107591232D01*
X98918381Y-107613486D01*
X98979414Y-107704142D01*
X99144406Y-107877098D01*
X99336180Y-108019782D01*
X99340931Y-108022198D01*
X99340935Y-108022200D01*
X99544494Y-108125694D01*
X99549252Y-108128113D01*
X99663392Y-108163555D01*
X99772429Y-108197412D01*
X99772435Y-108197413D01*
X99777532Y-108198996D01*
X99904963Y-108215886D01*
X100009207Y-108229703D01*
X100009211Y-108229703D01*
X100014491Y-108230403D01*
X100019820Y-108230203D01*
X100019821Y-108230203D01*
X100117589Y-108226532D01*
X100253354Y-108221435D01*
X100353206Y-108200484D01*
X100482064Y-108173447D01*
X100482067Y-108173446D01*
X100487291Y-108172350D01*
X100709613Y-108084551D01*
X100913963Y-107960548D01*
X101094499Y-107803887D01*
X101097882Y-107799761D01*
X101097886Y-107799757D01*
X101242671Y-107623178D01*
X101242673Y-107623175D01*
X101246058Y-107619047D01*
X101248697Y-107614411D01*
X101250025Y-107612479D01*
X101305096Y-107567672D01*
X101375650Y-107559751D01*
X101439285Y-107591232D01*
X101458381Y-107613486D01*
X101519414Y-107704142D01*
X101684406Y-107877098D01*
X101876180Y-108019782D01*
X101880931Y-108022198D01*
X101880935Y-108022200D01*
X102084494Y-108125694D01*
X102089252Y-108128113D01*
X102203392Y-108163555D01*
X102312429Y-108197412D01*
X102312435Y-108197413D01*
X102317532Y-108198996D01*
X102444963Y-108215886D01*
X102549207Y-108229703D01*
X102549211Y-108229703D01*
X102554491Y-108230403D01*
X102559820Y-108230203D01*
X102559821Y-108230203D01*
X102657589Y-108226532D01*
X102793354Y-108221435D01*
X102893206Y-108200484D01*
X103022064Y-108173447D01*
X103022067Y-108173446D01*
X103027291Y-108172350D01*
X103249613Y-108084551D01*
X103453963Y-107960548D01*
X103634499Y-107803887D01*
X103637882Y-107799761D01*
X103637886Y-107799757D01*
X103782671Y-107623178D01*
X103782673Y-107623175D01*
X103786058Y-107619047D01*
X103788697Y-107614411D01*
X103790025Y-107612479D01*
X103845096Y-107567672D01*
X103915650Y-107559751D01*
X103979285Y-107591232D01*
X103998381Y-107613486D01*
X104059414Y-107704142D01*
X104224406Y-107877098D01*
X104416180Y-108019782D01*
X104420931Y-108022198D01*
X104420935Y-108022200D01*
X104624494Y-108125694D01*
X104629252Y-108128113D01*
X104743392Y-108163555D01*
X104852429Y-108197412D01*
X104852435Y-108197413D01*
X104857532Y-108198996D01*
X104984963Y-108215886D01*
X105089207Y-108229703D01*
X105089211Y-108229703D01*
X105094491Y-108230403D01*
X105099820Y-108230203D01*
X105099821Y-108230203D01*
X105197589Y-108226532D01*
X105333354Y-108221435D01*
X105433206Y-108200484D01*
X105562064Y-108173447D01*
X105562067Y-108173446D01*
X105567291Y-108172350D01*
X105789613Y-108084551D01*
X105993963Y-107960548D01*
X106174499Y-107803887D01*
X106177882Y-107799761D01*
X106177886Y-107799757D01*
X106322671Y-107623178D01*
X106322673Y-107623175D01*
X106326058Y-107619047D01*
X106328697Y-107614411D01*
X106330025Y-107612479D01*
X106385096Y-107567672D01*
X106455650Y-107559751D01*
X106519285Y-107591232D01*
X106538381Y-107613486D01*
X106599414Y-107704142D01*
X106764406Y-107877098D01*
X106956180Y-108019782D01*
X106960931Y-108022198D01*
X106960935Y-108022200D01*
X107164494Y-108125694D01*
X107169252Y-108128113D01*
X107283392Y-108163555D01*
X107392429Y-108197412D01*
X107392435Y-108197413D01*
X107397532Y-108198996D01*
X107524963Y-108215886D01*
X107629207Y-108229703D01*
X107629211Y-108229703D01*
X107634491Y-108230403D01*
X107639820Y-108230203D01*
X107639821Y-108230203D01*
X107737589Y-108226532D01*
X107873354Y-108221435D01*
X107973206Y-108200484D01*
X108102064Y-108173447D01*
X108102067Y-108173446D01*
X108107291Y-108172350D01*
X108329613Y-108084551D01*
X108533963Y-107960548D01*
X108714499Y-107803887D01*
X108717882Y-107799761D01*
X108717886Y-107799757D01*
X108862671Y-107623178D01*
X108862673Y-107623175D01*
X108866058Y-107619047D01*
X108868697Y-107614411D01*
X108870025Y-107612479D01*
X108925096Y-107567672D01*
X108995650Y-107559751D01*
X109059285Y-107591232D01*
X109078381Y-107613486D01*
X109139414Y-107704142D01*
X109304406Y-107877098D01*
X109496180Y-108019782D01*
X109500931Y-108022198D01*
X109500935Y-108022200D01*
X109704494Y-108125694D01*
X109709252Y-108128113D01*
X109823392Y-108163555D01*
X109932429Y-108197412D01*
X109932435Y-108197413D01*
X109937532Y-108198996D01*
X110064963Y-108215886D01*
X110169207Y-108229703D01*
X110169211Y-108229703D01*
X110174491Y-108230403D01*
X110179820Y-108230203D01*
X110179821Y-108230203D01*
X110277589Y-108226532D01*
X110413354Y-108221435D01*
X110513206Y-108200484D01*
X110642064Y-108173447D01*
X110642067Y-108173446D01*
X110647291Y-108172350D01*
X110869613Y-108084551D01*
X111073963Y-107960548D01*
X111254499Y-107803887D01*
X111257882Y-107799761D01*
X111257886Y-107799757D01*
X111402671Y-107623178D01*
X111402673Y-107623175D01*
X111406058Y-107619047D01*
X111408697Y-107614411D01*
X111410025Y-107612479D01*
X111465096Y-107567672D01*
X111535650Y-107559751D01*
X111599285Y-107591232D01*
X111618381Y-107613486D01*
X111679414Y-107704142D01*
X111844406Y-107877098D01*
X112036180Y-108019782D01*
X112040931Y-108022198D01*
X112040935Y-108022200D01*
X112244494Y-108125694D01*
X112249252Y-108128113D01*
X112363392Y-108163555D01*
X112472429Y-108197412D01*
X112472435Y-108197413D01*
X112477532Y-108198996D01*
X112604963Y-108215886D01*
X112709207Y-108229703D01*
X112709211Y-108229703D01*
X112714491Y-108230403D01*
X112719820Y-108230203D01*
X112719821Y-108230203D01*
X112817589Y-108226532D01*
X112953354Y-108221435D01*
X113053206Y-108200484D01*
X113182064Y-108173447D01*
X113182067Y-108173446D01*
X113187291Y-108172350D01*
X113409613Y-108084551D01*
X113613963Y-107960548D01*
X113794499Y-107803887D01*
X113797882Y-107799761D01*
X113797886Y-107799757D01*
X113942671Y-107623178D01*
X113942673Y-107623175D01*
X113946058Y-107619047D01*
X113948697Y-107614411D01*
X113950025Y-107612479D01*
X114005096Y-107567672D01*
X114075650Y-107559751D01*
X114139285Y-107591232D01*
X114158381Y-107613486D01*
X114219414Y-107704142D01*
X114384406Y-107877098D01*
X114576180Y-108019782D01*
X114580931Y-108022198D01*
X114580935Y-108022200D01*
X114784494Y-108125694D01*
X114789252Y-108128113D01*
X114903392Y-108163555D01*
X115012429Y-108197412D01*
X115012435Y-108197413D01*
X115017532Y-108198996D01*
X115144963Y-108215886D01*
X115249207Y-108229703D01*
X115249211Y-108229703D01*
X115254491Y-108230403D01*
X115259820Y-108230203D01*
X115259821Y-108230203D01*
X115357589Y-108226532D01*
X115493354Y-108221435D01*
X115593206Y-108200484D01*
X115722064Y-108173447D01*
X115722067Y-108173446D01*
X115727291Y-108172350D01*
X115949613Y-108084551D01*
X116153963Y-107960548D01*
X116334499Y-107803887D01*
X116337882Y-107799761D01*
X116337886Y-107799757D01*
X116482671Y-107623178D01*
X116482673Y-107623175D01*
X116486058Y-107619047D01*
X116488697Y-107614411D01*
X116490025Y-107612479D01*
X116545096Y-107567672D01*
X116615650Y-107559751D01*
X116679285Y-107591232D01*
X116698381Y-107613486D01*
X116759414Y-107704142D01*
X116924406Y-107877098D01*
X117116180Y-108019782D01*
X117120931Y-108022198D01*
X117120935Y-108022200D01*
X117324494Y-108125694D01*
X117329252Y-108128113D01*
X117443392Y-108163555D01*
X117552429Y-108197412D01*
X117552435Y-108197413D01*
X117557532Y-108198996D01*
X117684963Y-108215886D01*
X117789207Y-108229703D01*
X117789211Y-108229703D01*
X117794491Y-108230403D01*
X117799820Y-108230203D01*
X117799821Y-108230203D01*
X117897589Y-108226532D01*
X118033354Y-108221435D01*
X118133206Y-108200484D01*
X118262064Y-108173447D01*
X118262067Y-108173446D01*
X118267291Y-108172350D01*
X118489613Y-108084551D01*
X118693963Y-107960548D01*
X118874499Y-107803887D01*
X118877882Y-107799761D01*
X118877886Y-107799757D01*
X119006706Y-107642648D01*
X119026058Y-107619047D01*
X119028699Y-107614407D01*
X119030324Y-107612043D01*
X119085392Y-107567232D01*
X119155945Y-107559307D01*
X119219582Y-107590783D01*
X119238684Y-107613042D01*
X119296831Y-107699409D01*
X119303486Y-107707687D01*
X119461051Y-107872858D01*
X119469022Y-107879910D01*
X119652162Y-108016170D01*
X119661199Y-108021774D01*
X119864686Y-108125231D01*
X119874539Y-108129232D01*
X120092541Y-108196924D01*
X120102928Y-108199208D01*
X120129123Y-108202680D01*
X120143287Y-108200484D01*
X120147080Y-108187299D01*
X120147080Y-108185662D01*
X120655080Y-108185662D01*
X120659053Y-108199193D01*
X120669660Y-108200718D01*
X120801920Y-108172967D01*
X120812117Y-108169907D01*
X121024420Y-108086065D01*
X121033956Y-108081331D01*
X121229105Y-107962912D01*
X121237698Y-107956646D01*
X121410107Y-107807038D01*
X121417527Y-107799408D01*
X121562260Y-107622892D01*
X121568286Y-107614125D01*
X121681209Y-107415747D01*
X121685675Y-107406083D01*
X121763561Y-107191512D01*
X121766331Y-107181245D01*
X121807161Y-106955448D01*
X121808096Y-106947218D01*
X121809010Y-106927830D01*
X121809080Y-106924854D01*
X121809080Y-106690495D01*
X121804605Y-106675256D01*
X121803215Y-106674051D01*
X121795532Y-106672380D01*
X120673195Y-106672380D01*
X120657956Y-106676855D01*
X120656751Y-106678245D01*
X120655080Y-106685928D01*
X120655080Y-108185662D01*
X120147080Y-108185662D01*
X120147080Y-106551083D01*
X149691303Y-106551083D01*
X149728828Y-106836114D01*
X149804689Y-107113416D01*
X149917483Y-107377856D01*
X149949818Y-107431883D01*
X150058505Y-107613486D01*
X150065121Y-107624541D01*
X150244873Y-107848908D01*
X150358405Y-107956646D01*
X150421131Y-108016170D01*
X150453411Y-108046803D01*
X150628986Y-108172967D01*
X150667606Y-108200718D01*
X150686877Y-108214566D01*
X150690672Y-108216575D01*
X150690673Y-108216576D01*
X150712429Y-108228095D01*
X150940952Y-108349092D01*
X151210933Y-108447891D01*
X151491824Y-108509135D01*
X151520401Y-108511384D01*
X151714842Y-108526687D01*
X151714851Y-108526687D01*
X151717299Y-108526880D01*
X151872831Y-108526880D01*
X151874967Y-108526734D01*
X151874978Y-108526734D01*
X152083108Y-108512545D01*
X152083114Y-108512544D01*
X152087385Y-108512253D01*
X152091580Y-108511384D01*
X152091582Y-108511384D01*
X152228144Y-108483103D01*
X152368902Y-108453954D01*
X152639903Y-108357987D01*
X152887481Y-108230203D01*
X152891565Y-108228095D01*
X152891566Y-108228095D01*
X152895372Y-108226130D01*
X152898873Y-108223669D01*
X152898877Y-108223667D01*
X153094664Y-108086065D01*
X153130583Y-108060821D01*
X153235512Y-107963315D01*
X153338039Y-107868041D01*
X153338041Y-107868038D01*
X153341182Y-107865120D01*
X153523273Y-107642648D01*
X153673487Y-107397522D01*
X153789043Y-107134278D01*
X153867804Y-106857786D01*
X153908311Y-106573164D01*
X153908405Y-106555331D01*
X153909795Y-106289963D01*
X153909795Y-106289956D01*
X153909817Y-106285677D01*
X153872292Y-106000646D01*
X153796431Y-105723344D01*
X153683637Y-105458904D01*
X153570298Y-105269528D01*
X153538203Y-105215901D01*
X153538200Y-105215897D01*
X153535999Y-105212219D01*
X153356247Y-104987852D01*
X153232849Y-104870752D01*
X153150818Y-104792907D01*
X153150815Y-104792905D01*
X153147709Y-104789957D01*
X152933840Y-104636276D01*
X152917732Y-104624701D01*
X152917731Y-104624700D01*
X152914243Y-104622194D01*
X152892403Y-104610630D01*
X152869214Y-104598352D01*
X152660168Y-104487668D01*
X152390187Y-104388869D01*
X152109296Y-104327625D01*
X152078245Y-104325181D01*
X151886278Y-104310073D01*
X151886269Y-104310073D01*
X151883821Y-104309880D01*
X151728289Y-104309880D01*
X151726153Y-104310026D01*
X151726142Y-104310026D01*
X151518012Y-104324215D01*
X151518006Y-104324216D01*
X151513735Y-104324507D01*
X151509540Y-104325376D01*
X151509538Y-104325376D01*
X151372976Y-104353657D01*
X151232218Y-104382806D01*
X150961217Y-104478773D01*
X150957408Y-104480739D01*
X150712671Y-104607057D01*
X150705748Y-104610630D01*
X150702247Y-104613091D01*
X150702243Y-104613093D01*
X150629227Y-104664410D01*
X150470537Y-104775939D01*
X150426374Y-104816978D01*
X150358432Y-104880114D01*
X150259938Y-104971640D01*
X150077847Y-105194112D01*
X149927633Y-105439238D01*
X149812077Y-105702482D01*
X149733316Y-105978974D01*
X149692809Y-106263596D01*
X149692787Y-106267885D01*
X149692786Y-106267892D01*
X149691325Y-106546797D01*
X149691303Y-106551083D01*
X120147080Y-106551083D01*
X120147080Y-106146265D01*
X120655080Y-106146265D01*
X120659555Y-106161504D01*
X120660945Y-106162709D01*
X120668628Y-106164380D01*
X121790965Y-106164380D01*
X121806204Y-106159905D01*
X121807409Y-106158515D01*
X121809080Y-106150832D01*
X121809080Y-105961040D01*
X121808855Y-105955731D01*
X121794420Y-105785609D01*
X121792628Y-105775121D01*
X121735279Y-105554169D01*
X121731747Y-105544141D01*
X121637995Y-105336017D01*
X121632815Y-105326711D01*
X121505333Y-105137356D01*
X121498674Y-105129073D01*
X121341109Y-104963902D01*
X121333138Y-104956850D01*
X121149998Y-104820590D01*
X121140961Y-104814986D01*
X120937474Y-104711529D01*
X120927621Y-104707528D01*
X120709619Y-104639836D01*
X120699232Y-104637552D01*
X120673037Y-104634080D01*
X120658873Y-104636276D01*
X120655080Y-104649461D01*
X120655080Y-106146265D01*
X120147080Y-106146265D01*
X120147080Y-104651098D01*
X120143107Y-104637567D01*
X120132500Y-104636042D01*
X120000240Y-104663793D01*
X119990043Y-104666853D01*
X119777740Y-104750695D01*
X119768204Y-104755429D01*
X119573055Y-104873848D01*
X119564462Y-104880114D01*
X119392053Y-105029722D01*
X119384633Y-105037352D01*
X119239899Y-105213869D01*
X119232438Y-105224724D01*
X119177368Y-105269533D01*
X119106815Y-105277456D01*
X119043179Y-105245978D01*
X119024080Y-105223721D01*
X119001912Y-105190794D01*
X118962746Y-105132618D01*
X118797754Y-104959662D01*
X118605980Y-104816978D01*
X118601229Y-104814562D01*
X118601225Y-104814560D01*
X118397666Y-104711066D01*
X118397665Y-104711066D01*
X118392908Y-104708647D01*
X118248455Y-104663793D01*
X118169731Y-104639348D01*
X118169725Y-104639347D01*
X118164628Y-104637764D01*
X118031991Y-104620184D01*
X117932953Y-104607057D01*
X117932949Y-104607057D01*
X117927669Y-104606357D01*
X117922340Y-104606557D01*
X117922339Y-104606557D01*
X117824571Y-104610228D01*
X117688806Y-104615325D01*
X117601896Y-104633561D01*
X117460096Y-104663313D01*
X117460093Y-104663314D01*
X117454869Y-104664410D01*
X117232547Y-104752209D01*
X117028197Y-104876212D01*
X116847661Y-105032873D01*
X116844278Y-105036999D01*
X116844274Y-105037003D01*
X116712457Y-105197766D01*
X116696102Y-105217713D01*
X116693463Y-105222349D01*
X116692135Y-105224281D01*
X116637064Y-105269088D01*
X116566510Y-105277009D01*
X116502875Y-105245528D01*
X116483779Y-105223274D01*
X116477447Y-105213869D01*
X116422746Y-105132618D01*
X116257754Y-104959662D01*
X116065980Y-104816978D01*
X116061229Y-104814562D01*
X116061225Y-104814560D01*
X115857666Y-104711066D01*
X115857665Y-104711066D01*
X115852908Y-104708647D01*
X115708455Y-104663793D01*
X115629731Y-104639348D01*
X115629725Y-104639347D01*
X115624628Y-104637764D01*
X115491991Y-104620184D01*
X115392953Y-104607057D01*
X115392949Y-104607057D01*
X115387669Y-104606357D01*
X115382340Y-104606557D01*
X115382339Y-104606557D01*
X115284571Y-104610228D01*
X115148806Y-104615325D01*
X115061896Y-104633561D01*
X114920096Y-104663313D01*
X114920093Y-104663314D01*
X114914869Y-104664410D01*
X114692547Y-104752209D01*
X114488197Y-104876212D01*
X114307661Y-105032873D01*
X114304278Y-105036999D01*
X114304274Y-105037003D01*
X114172457Y-105197766D01*
X114156102Y-105217713D01*
X114153463Y-105222349D01*
X114152135Y-105224281D01*
X114097064Y-105269088D01*
X114026510Y-105277009D01*
X113962875Y-105245528D01*
X113943779Y-105223274D01*
X113937447Y-105213869D01*
X113882746Y-105132618D01*
X113717754Y-104959662D01*
X113525980Y-104816978D01*
X113521229Y-104814562D01*
X113521225Y-104814560D01*
X113317666Y-104711066D01*
X113317665Y-104711066D01*
X113312908Y-104708647D01*
X113168455Y-104663793D01*
X113089731Y-104639348D01*
X113089725Y-104639347D01*
X113084628Y-104637764D01*
X112951991Y-104620184D01*
X112852953Y-104607057D01*
X112852949Y-104607057D01*
X112847669Y-104606357D01*
X112842340Y-104606557D01*
X112842339Y-104606557D01*
X112744571Y-104610228D01*
X112608806Y-104615325D01*
X112521896Y-104633561D01*
X112380096Y-104663313D01*
X112380093Y-104663314D01*
X112374869Y-104664410D01*
X112152547Y-104752209D01*
X111948197Y-104876212D01*
X111767661Y-105032873D01*
X111764278Y-105036999D01*
X111764274Y-105037003D01*
X111632457Y-105197766D01*
X111616102Y-105217713D01*
X111613463Y-105222349D01*
X111612135Y-105224281D01*
X111557064Y-105269088D01*
X111486510Y-105277009D01*
X111422875Y-105245528D01*
X111403779Y-105223274D01*
X111397447Y-105213869D01*
X111342746Y-105132618D01*
X111177754Y-104959662D01*
X110985980Y-104816978D01*
X110981229Y-104814562D01*
X110981225Y-104814560D01*
X110777666Y-104711066D01*
X110777665Y-104711066D01*
X110772908Y-104708647D01*
X110628455Y-104663793D01*
X110549731Y-104639348D01*
X110549725Y-104639347D01*
X110544628Y-104637764D01*
X110411991Y-104620184D01*
X110312953Y-104607057D01*
X110312949Y-104607057D01*
X110307669Y-104606357D01*
X110302340Y-104606557D01*
X110302339Y-104606557D01*
X110204571Y-104610228D01*
X110068806Y-104615325D01*
X109981896Y-104633561D01*
X109840096Y-104663313D01*
X109840093Y-104663314D01*
X109834869Y-104664410D01*
X109612547Y-104752209D01*
X109408197Y-104876212D01*
X109227661Y-105032873D01*
X109224278Y-105036999D01*
X109224274Y-105037003D01*
X109092457Y-105197766D01*
X109076102Y-105217713D01*
X109073463Y-105222349D01*
X109072135Y-105224281D01*
X109017064Y-105269088D01*
X108946510Y-105277009D01*
X108882875Y-105245528D01*
X108863779Y-105223274D01*
X108857447Y-105213869D01*
X108802746Y-105132618D01*
X108637754Y-104959662D01*
X108445980Y-104816978D01*
X108441229Y-104814562D01*
X108441225Y-104814560D01*
X108237666Y-104711066D01*
X108237665Y-104711066D01*
X108232908Y-104708647D01*
X108088455Y-104663793D01*
X108009731Y-104639348D01*
X108009725Y-104639347D01*
X108004628Y-104637764D01*
X107871991Y-104620184D01*
X107772953Y-104607057D01*
X107772949Y-104607057D01*
X107767669Y-104606357D01*
X107762340Y-104606557D01*
X107762339Y-104606557D01*
X107664571Y-104610228D01*
X107528806Y-104615325D01*
X107441896Y-104633561D01*
X107300096Y-104663313D01*
X107300093Y-104663314D01*
X107294869Y-104664410D01*
X107072547Y-104752209D01*
X106868197Y-104876212D01*
X106687661Y-105032873D01*
X106684278Y-105036999D01*
X106684274Y-105037003D01*
X106552457Y-105197766D01*
X106536102Y-105217713D01*
X106533463Y-105222349D01*
X106532135Y-105224281D01*
X106477064Y-105269088D01*
X106406510Y-105277009D01*
X106342875Y-105245528D01*
X106323779Y-105223274D01*
X106317447Y-105213869D01*
X106262746Y-105132618D01*
X106097754Y-104959662D01*
X105905980Y-104816978D01*
X105901229Y-104814562D01*
X105901225Y-104814560D01*
X105697666Y-104711066D01*
X105697665Y-104711066D01*
X105692908Y-104708647D01*
X105548455Y-104663793D01*
X105469731Y-104639348D01*
X105469725Y-104639347D01*
X105464628Y-104637764D01*
X105331991Y-104620184D01*
X105232953Y-104607057D01*
X105232949Y-104607057D01*
X105227669Y-104606357D01*
X105222340Y-104606557D01*
X105222339Y-104606557D01*
X105124571Y-104610228D01*
X104988806Y-104615325D01*
X104901896Y-104633561D01*
X104760096Y-104663313D01*
X104760093Y-104663314D01*
X104754869Y-104664410D01*
X104532547Y-104752209D01*
X104328197Y-104876212D01*
X104147661Y-105032873D01*
X104144278Y-105036999D01*
X104144274Y-105037003D01*
X104012457Y-105197766D01*
X103996102Y-105217713D01*
X103993463Y-105222349D01*
X103992135Y-105224281D01*
X103937064Y-105269088D01*
X103866510Y-105277009D01*
X103802875Y-105245528D01*
X103783779Y-105223274D01*
X103777447Y-105213869D01*
X103722746Y-105132618D01*
X103557754Y-104959662D01*
X103365980Y-104816978D01*
X103361229Y-104814562D01*
X103361225Y-104814560D01*
X103157666Y-104711066D01*
X103157665Y-104711066D01*
X103152908Y-104708647D01*
X103008455Y-104663793D01*
X102929731Y-104639348D01*
X102929725Y-104639347D01*
X102924628Y-104637764D01*
X102791991Y-104620184D01*
X102692953Y-104607057D01*
X102692949Y-104607057D01*
X102687669Y-104606357D01*
X102682340Y-104606557D01*
X102682339Y-104606557D01*
X102584571Y-104610228D01*
X102448806Y-104615325D01*
X102361896Y-104633561D01*
X102220096Y-104663313D01*
X102220093Y-104663314D01*
X102214869Y-104664410D01*
X101992547Y-104752209D01*
X101788197Y-104876212D01*
X101607661Y-105032873D01*
X101604278Y-105036999D01*
X101604274Y-105037003D01*
X101472457Y-105197766D01*
X101456102Y-105217713D01*
X101453463Y-105222349D01*
X101452135Y-105224281D01*
X101397064Y-105269088D01*
X101326510Y-105277009D01*
X101262875Y-105245528D01*
X101243779Y-105223274D01*
X101237447Y-105213869D01*
X101182746Y-105132618D01*
X101017754Y-104959662D01*
X100825980Y-104816978D01*
X100821229Y-104814562D01*
X100821225Y-104814560D01*
X100617666Y-104711066D01*
X100617665Y-104711066D01*
X100612908Y-104708647D01*
X100468455Y-104663793D01*
X100389731Y-104639348D01*
X100389725Y-104639347D01*
X100384628Y-104637764D01*
X100251991Y-104620184D01*
X100152953Y-104607057D01*
X100152949Y-104607057D01*
X100147669Y-104606357D01*
X100142340Y-104606557D01*
X100142339Y-104606557D01*
X100044571Y-104610228D01*
X99908806Y-104615325D01*
X99821896Y-104633561D01*
X99680096Y-104663313D01*
X99680093Y-104663314D01*
X99674869Y-104664410D01*
X99452547Y-104752209D01*
X99248197Y-104876212D01*
X99067661Y-105032873D01*
X99064278Y-105036999D01*
X99064274Y-105037003D01*
X98932457Y-105197766D01*
X98916102Y-105217713D01*
X98913463Y-105222349D01*
X98912135Y-105224281D01*
X98857064Y-105269088D01*
X98786510Y-105277009D01*
X98722875Y-105245528D01*
X98703779Y-105223274D01*
X98697447Y-105213869D01*
X98642746Y-105132618D01*
X98477754Y-104959662D01*
X98285980Y-104816978D01*
X98281229Y-104814562D01*
X98281225Y-104814560D01*
X98077666Y-104711066D01*
X98077665Y-104711066D01*
X98072908Y-104708647D01*
X97928455Y-104663793D01*
X97849731Y-104639348D01*
X97849725Y-104639347D01*
X97844628Y-104637764D01*
X97711991Y-104620184D01*
X97612953Y-104607057D01*
X97612949Y-104607057D01*
X97607669Y-104606357D01*
X97602340Y-104606557D01*
X97602339Y-104606557D01*
X97504571Y-104610228D01*
X97368806Y-104615325D01*
X97281896Y-104633561D01*
X97140096Y-104663313D01*
X97140093Y-104663314D01*
X97134869Y-104664410D01*
X96912547Y-104752209D01*
X96708197Y-104876212D01*
X96527661Y-105032873D01*
X96524278Y-105036999D01*
X96524274Y-105037003D01*
X96392457Y-105197766D01*
X96376102Y-105217713D01*
X96373463Y-105222349D01*
X96372135Y-105224281D01*
X96317064Y-105269088D01*
X96246510Y-105277009D01*
X96182875Y-105245528D01*
X96163779Y-105223274D01*
X96157447Y-105213869D01*
X96102746Y-105132618D01*
X95937754Y-104959662D01*
X95745980Y-104816978D01*
X95741229Y-104814562D01*
X95741225Y-104814560D01*
X95537666Y-104711066D01*
X95537665Y-104711066D01*
X95532908Y-104708647D01*
X95388455Y-104663793D01*
X95309731Y-104639348D01*
X95309725Y-104639347D01*
X95304628Y-104637764D01*
X95171991Y-104620184D01*
X95072953Y-104607057D01*
X95072949Y-104607057D01*
X95067669Y-104606357D01*
X95062340Y-104606557D01*
X95062339Y-104606557D01*
X94964571Y-104610228D01*
X94828806Y-104615325D01*
X94741896Y-104633561D01*
X94600096Y-104663313D01*
X94600093Y-104663314D01*
X94594869Y-104664410D01*
X94372547Y-104752209D01*
X94168197Y-104876212D01*
X93987661Y-105032873D01*
X93984278Y-105036999D01*
X93984274Y-105037003D01*
X93901990Y-105137356D01*
X93836102Y-105217713D01*
X93833461Y-105222353D01*
X93831836Y-105224717D01*
X93776768Y-105269528D01*
X93706215Y-105277453D01*
X93642578Y-105245977D01*
X93623476Y-105223718D01*
X93565329Y-105137351D01*
X93558674Y-105129073D01*
X93401109Y-104963902D01*
X93393138Y-104956850D01*
X93209998Y-104820590D01*
X93200961Y-104814986D01*
X92997474Y-104711529D01*
X92987621Y-104707528D01*
X92769619Y-104639836D01*
X92759232Y-104637552D01*
X92733037Y-104634080D01*
X92718873Y-104636276D01*
X92715080Y-104649461D01*
X92715080Y-108185662D01*
X92207080Y-108185662D01*
X92207080Y-104651098D01*
X92203107Y-104637567D01*
X92192500Y-104636042D01*
X92060240Y-104663793D01*
X92050043Y-104666853D01*
X91837740Y-104750695D01*
X91828204Y-104755429D01*
X91633055Y-104873848D01*
X91624462Y-104880114D01*
X91452053Y-105029722D01*
X91444633Y-105037352D01*
X91299899Y-105213869D01*
X91292438Y-105224724D01*
X91237368Y-105269533D01*
X91166815Y-105277456D01*
X91103179Y-105245978D01*
X91084080Y-105223721D01*
X91061912Y-105190794D01*
X91022746Y-105132618D01*
X90857754Y-104959662D01*
X90665980Y-104816978D01*
X90661229Y-104814562D01*
X90661225Y-104814560D01*
X90457666Y-104711066D01*
X90457665Y-104711066D01*
X90452908Y-104708647D01*
X90308455Y-104663793D01*
X90229731Y-104639348D01*
X90229725Y-104639347D01*
X90224628Y-104637764D01*
X90091991Y-104620184D01*
X89992953Y-104607057D01*
X89992949Y-104607057D01*
X89987669Y-104606357D01*
X89982340Y-104606557D01*
X89982339Y-104606557D01*
X89884571Y-104610228D01*
X89748806Y-104615325D01*
X89661896Y-104633561D01*
X89520096Y-104663313D01*
X89520093Y-104663314D01*
X89514869Y-104664410D01*
X89292547Y-104752209D01*
X89088197Y-104876212D01*
X88907661Y-105032873D01*
X88904278Y-105036999D01*
X88904274Y-105037003D01*
X88772457Y-105197766D01*
X88756102Y-105217713D01*
X88753463Y-105222349D01*
X88752135Y-105224281D01*
X88697064Y-105269088D01*
X88626510Y-105277009D01*
X88562875Y-105245528D01*
X88543779Y-105223274D01*
X88537447Y-105213869D01*
X88482746Y-105132618D01*
X88317754Y-104959662D01*
X88125980Y-104816978D01*
X88121229Y-104814562D01*
X88121225Y-104814560D01*
X87917666Y-104711066D01*
X87917665Y-104711066D01*
X87912908Y-104708647D01*
X87768455Y-104663793D01*
X87689731Y-104639348D01*
X87689725Y-104639347D01*
X87684628Y-104637764D01*
X87551991Y-104620184D01*
X87452953Y-104607057D01*
X87452949Y-104607057D01*
X87447669Y-104606357D01*
X87442340Y-104606557D01*
X87442339Y-104606557D01*
X87344571Y-104610228D01*
X87208806Y-104615325D01*
X87121896Y-104633561D01*
X86980096Y-104663313D01*
X86980093Y-104663314D01*
X86974869Y-104664410D01*
X86752547Y-104752209D01*
X86548197Y-104876212D01*
X86367661Y-105032873D01*
X86364278Y-105036999D01*
X86364274Y-105037003D01*
X86232457Y-105197766D01*
X86216102Y-105217713D01*
X86213463Y-105222349D01*
X86212135Y-105224281D01*
X86157064Y-105269088D01*
X86086510Y-105277009D01*
X86022875Y-105245528D01*
X86003779Y-105223274D01*
X85997447Y-105213869D01*
X85942746Y-105132618D01*
X85777754Y-104959662D01*
X85585980Y-104816978D01*
X85581229Y-104814562D01*
X85581225Y-104814560D01*
X85377666Y-104711066D01*
X85377665Y-104711066D01*
X85372908Y-104708647D01*
X85228455Y-104663793D01*
X85149731Y-104639348D01*
X85149725Y-104639347D01*
X85144628Y-104637764D01*
X85011991Y-104620184D01*
X84912953Y-104607057D01*
X84912949Y-104607057D01*
X84907669Y-104606357D01*
X84902340Y-104606557D01*
X84902339Y-104606557D01*
X84804571Y-104610228D01*
X84668806Y-104615325D01*
X84581896Y-104633561D01*
X84440096Y-104663313D01*
X84440093Y-104663314D01*
X84434869Y-104664410D01*
X84212547Y-104752209D01*
X84008197Y-104876212D01*
X83827661Y-105032873D01*
X83824278Y-105036999D01*
X83824274Y-105037003D01*
X83741990Y-105137356D01*
X83676102Y-105217713D01*
X83673461Y-105222353D01*
X83671836Y-105224717D01*
X83616768Y-105269528D01*
X83546215Y-105277453D01*
X83482578Y-105245977D01*
X83463476Y-105223718D01*
X83405329Y-105137351D01*
X83398674Y-105129073D01*
X83241109Y-104963902D01*
X83233138Y-104956850D01*
X83049998Y-104820590D01*
X83040961Y-104814986D01*
X82837474Y-104711529D01*
X82827621Y-104707528D01*
X82609619Y-104639836D01*
X82599232Y-104637552D01*
X82573037Y-104634080D01*
X82558873Y-104636276D01*
X82555080Y-104649461D01*
X82555080Y-108185662D01*
X82047080Y-108185662D01*
X82047080Y-106690495D01*
X82042605Y-106675256D01*
X82041215Y-106674051D01*
X82033532Y-106672380D01*
X80911195Y-106672380D01*
X80895956Y-106676855D01*
X80894751Y-106678245D01*
X80893080Y-106685928D01*
X80893080Y-106875720D01*
X78864115Y-106875720D01*
X78869224Y-106857786D01*
X78909731Y-106573164D01*
X78909825Y-106555331D01*
X78911215Y-106289963D01*
X78911215Y-106289956D01*
X78911237Y-106285677D01*
X78892883Y-106146265D01*
X80893080Y-106146265D01*
X80897555Y-106161504D01*
X80898945Y-106162709D01*
X80906628Y-106164380D01*
X82028965Y-106164380D01*
X82044204Y-106159905D01*
X82045409Y-106158515D01*
X82047080Y-106150832D01*
X82047080Y-104651098D01*
X82043107Y-104637567D01*
X82032500Y-104636042D01*
X81900240Y-104663793D01*
X81890043Y-104666853D01*
X81677740Y-104750695D01*
X81668204Y-104755429D01*
X81473055Y-104873848D01*
X81464462Y-104880114D01*
X81292053Y-105029722D01*
X81284633Y-105037352D01*
X81139900Y-105213868D01*
X81133874Y-105222635D01*
X81020951Y-105421013D01*
X81016485Y-105430677D01*
X80938599Y-105645248D01*
X80935829Y-105655515D01*
X80894999Y-105881312D01*
X80894064Y-105889542D01*
X80893150Y-105908930D01*
X80893080Y-105911906D01*
X80893080Y-106146265D01*
X78892883Y-106146265D01*
X78873712Y-106000646D01*
X78797851Y-105723344D01*
X78685057Y-105458904D01*
X78571718Y-105269528D01*
X78539623Y-105215901D01*
X78539620Y-105215897D01*
X78537419Y-105212219D01*
X78357667Y-104987852D01*
X78234269Y-104870752D01*
X78152238Y-104792907D01*
X78152235Y-104792905D01*
X78149129Y-104789957D01*
X77935260Y-104636276D01*
X77919152Y-104624701D01*
X77919151Y-104624700D01*
X77915663Y-104622194D01*
X77893823Y-104610630D01*
X77870634Y-104598352D01*
X77661588Y-104487668D01*
X77391607Y-104388869D01*
X77110716Y-104327625D01*
X77079665Y-104325181D01*
X76887698Y-104310073D01*
X76887689Y-104310073D01*
X76885241Y-104309880D01*
X76729709Y-104309880D01*
X76727573Y-104310026D01*
X76727562Y-104310026D01*
X76519432Y-104324215D01*
X76519426Y-104324216D01*
X76515155Y-104324507D01*
X76510960Y-104325376D01*
X76510958Y-104325376D01*
X76374396Y-104353657D01*
X76233638Y-104382806D01*
X75962637Y-104478773D01*
X75958828Y-104480739D01*
X75714091Y-104607057D01*
X75707168Y-104610630D01*
X75703667Y-104613091D01*
X75703663Y-104613093D01*
X75630647Y-104664410D01*
X75471957Y-104775939D01*
X75427794Y-104816978D01*
X75359852Y-104880114D01*
X75261358Y-104971640D01*
X75079267Y-105194112D01*
X74929053Y-105439238D01*
X74813497Y-105702482D01*
X74734736Y-105978974D01*
X74694229Y-106263596D01*
X74694207Y-106267885D01*
X74694206Y-106267892D01*
X74692745Y-106546797D01*
X74692723Y-106551083D01*
X30988500Y-106551083D01*
X30988500Y-94180469D01*
X71212095Y-94180469D01*
X71212392Y-94185622D01*
X71212392Y-94185625D01*
X71218067Y-94284041D01*
X71225427Y-94411697D01*
X71226564Y-94416743D01*
X71226565Y-94416749D01*
X71258741Y-94559523D01*
X71276346Y-94637642D01*
X71278288Y-94642424D01*
X71278289Y-94642428D01*
X71361540Y-94847450D01*
X71363484Y-94852237D01*
X71484501Y-95049719D01*
X71636147Y-95224784D01*
X71814349Y-95372730D01*
X72014322Y-95489584D01*
X72230694Y-95572209D01*
X72235760Y-95573240D01*
X72235761Y-95573240D01*
X72288846Y-95584040D01*
X72457656Y-95618385D01*
X72588324Y-95623176D01*
X72683949Y-95626683D01*
X72683953Y-95626683D01*
X72689113Y-95626872D01*
X72694233Y-95626216D01*
X72694235Y-95626216D01*
X72767270Y-95616860D01*
X72918847Y-95597442D01*
X72923795Y-95595957D01*
X72923802Y-95595956D01*
X73135747Y-95532369D01*
X73140690Y-95530886D01*
X73221236Y-95491427D01*
X73344049Y-95431262D01*
X73344052Y-95431260D01*
X73348684Y-95428991D01*
X73537243Y-95294494D01*
X73701303Y-95131005D01*
X73836458Y-94942917D01*
X73883641Y-94847450D01*
X73936784Y-94739922D01*
X73936785Y-94739920D01*
X73939078Y-94735280D01*
X74006408Y-94513671D01*
X74036640Y-94284041D01*
X74038327Y-94215000D01*
X74032032Y-94138434D01*
X74019773Y-93989318D01*
X74019772Y-93989312D01*
X74019349Y-93984167D01*
X73962925Y-93759533D01*
X73960866Y-93754797D01*
X73872630Y-93551868D01*
X73872628Y-93551865D01*
X73870570Y-93547131D01*
X73744764Y-93352665D01*
X73588887Y-93181358D01*
X73584836Y-93178159D01*
X73584832Y-93178155D01*
X73411177Y-93041011D01*
X73411172Y-93041008D01*
X73407123Y-93037810D01*
X73402607Y-93035317D01*
X73402604Y-93035315D01*
X73208879Y-92928373D01*
X73208875Y-92928371D01*
X73204355Y-92925876D01*
X73199486Y-92924152D01*
X73199482Y-92924150D01*
X72990903Y-92850288D01*
X72990899Y-92850287D01*
X72986028Y-92848562D01*
X72980935Y-92847655D01*
X72980932Y-92847654D01*
X72763095Y-92808851D01*
X72763089Y-92808850D01*
X72758006Y-92807945D01*
X72685096Y-92807054D01*
X72531581Y-92805179D01*
X72531579Y-92805179D01*
X72526411Y-92805116D01*
X72297464Y-92840150D01*
X72077314Y-92912106D01*
X72072726Y-92914494D01*
X72072722Y-92914496D01*
X71876461Y-93016663D01*
X71871872Y-93019052D01*
X71867739Y-93022155D01*
X71867736Y-93022157D01*
X71842625Y-93041011D01*
X71686655Y-93158117D01*
X71526639Y-93325564D01*
X71523725Y-93329836D01*
X71523724Y-93329837D01*
X71508152Y-93352665D01*
X71396119Y-93516899D01*
X71298602Y-93726981D01*
X71236707Y-93950169D01*
X71212095Y-94180469D01*
X30988500Y-94180469D01*
X30988500Y-92277098D01*
X53572000Y-92277098D01*
X53572337Y-92283613D01*
X53582256Y-92379205D01*
X53585150Y-92392604D01*
X53636588Y-92546785D01*
X53642762Y-92559964D01*
X53728063Y-92697810D01*
X53737099Y-92709209D01*
X53851828Y-92823738D01*
X53863239Y-92832750D01*
X54001242Y-92917816D01*
X54014423Y-92923963D01*
X54168709Y-92975138D01*
X54182085Y-92978005D01*
X54276437Y-92987672D01*
X54282853Y-92988000D01*
X55607885Y-92988000D01*
X55623124Y-92983525D01*
X55624329Y-92982135D01*
X55626000Y-92974452D01*
X55626000Y-92969885D01*
X56134000Y-92969885D01*
X56138475Y-92985124D01*
X56139865Y-92986329D01*
X56147548Y-92988000D01*
X57477098Y-92988000D01*
X57483613Y-92987663D01*
X57579205Y-92977744D01*
X57592604Y-92974850D01*
X57746785Y-92923412D01*
X57759964Y-92917238D01*
X57897810Y-92831937D01*
X57909209Y-92822901D01*
X58023738Y-92708172D01*
X58032750Y-92696761D01*
X58117816Y-92558758D01*
X58123963Y-92545577D01*
X58175138Y-92391291D01*
X58178005Y-92377915D01*
X58187672Y-92283563D01*
X58188000Y-92277147D01*
X58188000Y-91712115D01*
X58183525Y-91696876D01*
X58182135Y-91695671D01*
X58174452Y-91694000D01*
X56152115Y-91694000D01*
X56136876Y-91698475D01*
X56135671Y-91699865D01*
X56134000Y-91707548D01*
X56134000Y-92969885D01*
X55626000Y-92969885D01*
X55626000Y-91712115D01*
X55621525Y-91696876D01*
X55620135Y-91695671D01*
X55612452Y-91694000D01*
X53590115Y-91694000D01*
X53574876Y-91698475D01*
X53573671Y-91699865D01*
X53572000Y-91707548D01*
X53572000Y-92277098D01*
X30988500Y-92277098D01*
X30988500Y-91167885D01*
X53572000Y-91167885D01*
X53576475Y-91183124D01*
X53577865Y-91184329D01*
X53585548Y-91186000D01*
X55607885Y-91186000D01*
X55623124Y-91181525D01*
X55624329Y-91180135D01*
X55626000Y-91172452D01*
X55626000Y-91167885D01*
X56134000Y-91167885D01*
X56138475Y-91183124D01*
X56139865Y-91184329D01*
X56147548Y-91186000D01*
X58169885Y-91186000D01*
X58185124Y-91181525D01*
X58186329Y-91180135D01*
X58188000Y-91172452D01*
X58188000Y-90602902D01*
X58187663Y-90596387D01*
X58177744Y-90500795D01*
X58174850Y-90487396D01*
X58123412Y-90333215D01*
X58117238Y-90320036D01*
X58031937Y-90182190D01*
X58022901Y-90170791D01*
X57908172Y-90056262D01*
X57896761Y-90047250D01*
X57758758Y-89962184D01*
X57745577Y-89956037D01*
X57591291Y-89904862D01*
X57577915Y-89901995D01*
X57483563Y-89892328D01*
X57477146Y-89892000D01*
X56152115Y-89892000D01*
X56136876Y-89896475D01*
X56135671Y-89897865D01*
X56134000Y-89905548D01*
X56134000Y-91167885D01*
X55626000Y-91167885D01*
X55626000Y-89910115D01*
X55621525Y-89894876D01*
X55620135Y-89893671D01*
X55612452Y-89892000D01*
X54282902Y-89892000D01*
X54276387Y-89892337D01*
X54180795Y-89902256D01*
X54167396Y-89905150D01*
X54013215Y-89956588D01*
X54000036Y-89962762D01*
X53862190Y-90048063D01*
X53850791Y-90057099D01*
X53736262Y-90171828D01*
X53727250Y-90183239D01*
X53642184Y-90321242D01*
X53636037Y-90334423D01*
X53584862Y-90488709D01*
X53581995Y-90502085D01*
X53572328Y-90596437D01*
X53572000Y-90602853D01*
X53572000Y-91167885D01*
X30988500Y-91167885D01*
X30988500Y-86631114D01*
X53593007Y-86631114D01*
X53595960Y-86656631D01*
X53597919Y-86666521D01*
X53662989Y-86896476D01*
X53666503Y-86905927D01*
X53767506Y-87122528D01*
X53772485Y-87131292D01*
X53906814Y-87328951D01*
X53913138Y-87336815D01*
X54077336Y-87510451D01*
X54084843Y-87517210D01*
X54274688Y-87662357D01*
X54283167Y-87667821D01*
X54493783Y-87780752D01*
X54503029Y-87784792D01*
X54728987Y-87862596D01*
X54738768Y-87865107D01*
X54975334Y-87905969D01*
X54983206Y-87906824D01*
X55007685Y-87907936D01*
X55010518Y-87908000D01*
X55607885Y-87908000D01*
X55623124Y-87903525D01*
X55624329Y-87902135D01*
X55626000Y-87894452D01*
X55626000Y-87889885D01*
X56134000Y-87889885D01*
X56138475Y-87905124D01*
X56139865Y-87906329D01*
X56147548Y-87908000D01*
X56700072Y-87908000D01*
X56705104Y-87907798D01*
X56883259Y-87893464D01*
X56893212Y-87891852D01*
X57125300Y-87834846D01*
X57134870Y-87831663D01*
X57354860Y-87738282D01*
X57363799Y-87733608D01*
X57566024Y-87606261D01*
X57574099Y-87600220D01*
X57753368Y-87442173D01*
X57760371Y-87434921D01*
X57912062Y-87250250D01*
X57917818Y-87241967D01*
X58038031Y-87035421D01*
X58042393Y-87026316D01*
X58128034Y-86803215D01*
X58130885Y-86793526D01*
X58164685Y-86631736D01*
X58163562Y-86617675D01*
X58153454Y-86614000D01*
X56152115Y-86614000D01*
X56136876Y-86618475D01*
X56135671Y-86619865D01*
X56134000Y-86627548D01*
X56134000Y-87889885D01*
X55626000Y-87889885D01*
X55626000Y-86632115D01*
X55621525Y-86616876D01*
X55620135Y-86615671D01*
X55612452Y-86614000D01*
X53609142Y-86614000D01*
X53595056Y-86618136D01*
X53593007Y-86631114D01*
X30988500Y-86631114D01*
X30988500Y-86560469D01*
X73752095Y-86560469D01*
X73752392Y-86565622D01*
X73752392Y-86565625D01*
X73758067Y-86664041D01*
X73765427Y-86791697D01*
X73766564Y-86796743D01*
X73766565Y-86796749D01*
X73791170Y-86905927D01*
X73816346Y-87017642D01*
X73818288Y-87022424D01*
X73818289Y-87022428D01*
X73862494Y-87131292D01*
X73903484Y-87232237D01*
X74024501Y-87429719D01*
X74176147Y-87604784D01*
X74354349Y-87752730D01*
X74554322Y-87869584D01*
X74770694Y-87952209D01*
X74775760Y-87953240D01*
X74775761Y-87953240D01*
X74828846Y-87964040D01*
X74997656Y-87998385D01*
X75128324Y-88003176D01*
X75223949Y-88006683D01*
X75223953Y-88006683D01*
X75229113Y-88006872D01*
X75234233Y-88006216D01*
X75234235Y-88006216D01*
X75307270Y-87996860D01*
X75458847Y-87977442D01*
X75463795Y-87975957D01*
X75463802Y-87975956D01*
X75675747Y-87912369D01*
X75680690Y-87910886D01*
X75686712Y-87907936D01*
X75884049Y-87811262D01*
X75884052Y-87811260D01*
X75888684Y-87808991D01*
X76077243Y-87674494D01*
X76241303Y-87511005D01*
X76376458Y-87322917D01*
X76423641Y-87227450D01*
X76476784Y-87119922D01*
X76476785Y-87119920D01*
X76479078Y-87115280D01*
X76546408Y-86893671D01*
X76576640Y-86664041D01*
X76577420Y-86632115D01*
X76578245Y-86598365D01*
X76578245Y-86598361D01*
X76578327Y-86595000D01*
X76572032Y-86518434D01*
X76559773Y-86369318D01*
X76559772Y-86369312D01*
X76559349Y-86364167D01*
X76502925Y-86139533D01*
X76500866Y-86134797D01*
X76412630Y-85931868D01*
X76412628Y-85931865D01*
X76410570Y-85927131D01*
X76284764Y-85732665D01*
X76128887Y-85561358D01*
X76124836Y-85558159D01*
X76124832Y-85558155D01*
X75951177Y-85421011D01*
X75951172Y-85421008D01*
X75947123Y-85417810D01*
X75942607Y-85415317D01*
X75942604Y-85415315D01*
X75748879Y-85308373D01*
X75748875Y-85308371D01*
X75744355Y-85305876D01*
X75739486Y-85304152D01*
X75739482Y-85304150D01*
X75530903Y-85230288D01*
X75530899Y-85230287D01*
X75526028Y-85228562D01*
X75520935Y-85227655D01*
X75520932Y-85227654D01*
X75303095Y-85188851D01*
X75303089Y-85188850D01*
X75298006Y-85187945D01*
X75225096Y-85187054D01*
X75071581Y-85185179D01*
X75071579Y-85185179D01*
X75066411Y-85185116D01*
X74837464Y-85220150D01*
X74617314Y-85292106D01*
X74612726Y-85294494D01*
X74612722Y-85294496D01*
X74422157Y-85393698D01*
X74411872Y-85399052D01*
X74407739Y-85402155D01*
X74407736Y-85402157D01*
X74382625Y-85421011D01*
X74226655Y-85538117D01*
X74066639Y-85705564D01*
X74063725Y-85709836D01*
X74063724Y-85709837D01*
X74048152Y-85732665D01*
X73936119Y-85896899D01*
X73838602Y-86106981D01*
X73776707Y-86330169D01*
X73752095Y-86560469D01*
X30988500Y-86560469D01*
X30988500Y-86088264D01*
X53595315Y-86088264D01*
X53596438Y-86102325D01*
X53606546Y-86106000D01*
X55607885Y-86106000D01*
X55623124Y-86101525D01*
X55624329Y-86100135D01*
X55626000Y-86092452D01*
X55626000Y-86087885D01*
X56134000Y-86087885D01*
X56138475Y-86103124D01*
X56139865Y-86104329D01*
X56147548Y-86106000D01*
X58150858Y-86106000D01*
X58164944Y-86101864D01*
X58166993Y-86088886D01*
X58164040Y-86063369D01*
X58162081Y-86053479D01*
X58097011Y-85823524D01*
X58093497Y-85814073D01*
X57992494Y-85597472D01*
X57987515Y-85588708D01*
X57853186Y-85391049D01*
X57846862Y-85383185D01*
X57682664Y-85209549D01*
X57675157Y-85202790D01*
X57485312Y-85057643D01*
X57476833Y-85052179D01*
X57266217Y-84939248D01*
X57256971Y-84935208D01*
X57031013Y-84857404D01*
X57021232Y-84854893D01*
X56784666Y-84814031D01*
X56776794Y-84813176D01*
X56752315Y-84812064D01*
X56749482Y-84812000D01*
X56152115Y-84812000D01*
X56136876Y-84816475D01*
X56135671Y-84817865D01*
X56134000Y-84825548D01*
X56134000Y-86087885D01*
X55626000Y-86087885D01*
X55626000Y-84830115D01*
X55621525Y-84814876D01*
X55620135Y-84813671D01*
X55612452Y-84812000D01*
X55059928Y-84812000D01*
X55054896Y-84812202D01*
X54876741Y-84826536D01*
X54866788Y-84828148D01*
X54634700Y-84885154D01*
X54625130Y-84888337D01*
X54405140Y-84981718D01*
X54396201Y-84986392D01*
X54193976Y-85113739D01*
X54185901Y-85119780D01*
X54006632Y-85277827D01*
X53999629Y-85285079D01*
X53847938Y-85469750D01*
X53842182Y-85478033D01*
X53721969Y-85684579D01*
X53717607Y-85693684D01*
X53631966Y-85916785D01*
X53629115Y-85926474D01*
X53595315Y-86088264D01*
X30988500Y-86088264D01*
X30988500Y-81551114D01*
X53593007Y-81551114D01*
X53595960Y-81576631D01*
X53597919Y-81586521D01*
X53662989Y-81816476D01*
X53666503Y-81825927D01*
X53767506Y-82042528D01*
X53772485Y-82051292D01*
X53906814Y-82248951D01*
X53913138Y-82256815D01*
X54077336Y-82430451D01*
X54084843Y-82437210D01*
X54274688Y-82582357D01*
X54283167Y-82587821D01*
X54493783Y-82700752D01*
X54503029Y-82704792D01*
X54728987Y-82782596D01*
X54738768Y-82785107D01*
X54975334Y-82825969D01*
X54983206Y-82826824D01*
X55007685Y-82827936D01*
X55010518Y-82828000D01*
X55607885Y-82828000D01*
X55623124Y-82823525D01*
X55624329Y-82822135D01*
X55626000Y-82814452D01*
X55626000Y-82809885D01*
X56134000Y-82809885D01*
X56138475Y-82825124D01*
X56139865Y-82826329D01*
X56147548Y-82828000D01*
X56700072Y-82828000D01*
X56705104Y-82827798D01*
X56883259Y-82813464D01*
X56893212Y-82811852D01*
X57125300Y-82754846D01*
X57134870Y-82751663D01*
X57312163Y-82676406D01*
X71828423Y-82676406D01*
X71833704Y-82683461D01*
X72010080Y-82786527D01*
X72019363Y-82790974D01*
X72226003Y-82869883D01*
X72235901Y-82872759D01*
X72452653Y-82916857D01*
X72462883Y-82918076D01*
X72683914Y-82926182D01*
X72694223Y-82925714D01*
X72913623Y-82897608D01*
X72923688Y-82895468D01*
X73135557Y-82831905D01*
X73145152Y-82828144D01*
X73343778Y-82730838D01*
X73352636Y-82725559D01*
X73410097Y-82684572D01*
X73418497Y-82673874D01*
X73411510Y-82660721D01*
X72637811Y-81887021D01*
X72623868Y-81879408D01*
X72622034Y-81879539D01*
X72615420Y-81883790D01*
X71835180Y-82664031D01*
X71828423Y-82676406D01*
X57312163Y-82676406D01*
X57354860Y-82658282D01*
X57363799Y-82653608D01*
X57566024Y-82526261D01*
X57574099Y-82520220D01*
X57753368Y-82362173D01*
X57760371Y-82354921D01*
X57912062Y-82170250D01*
X57917818Y-82161967D01*
X58038031Y-81955421D01*
X58042393Y-81946316D01*
X58128034Y-81723215D01*
X58130885Y-81713526D01*
X58164685Y-81551736D01*
X58163562Y-81537675D01*
X58153454Y-81534000D01*
X56152115Y-81534000D01*
X56136876Y-81538475D01*
X56135671Y-81539865D01*
X56134000Y-81547548D01*
X56134000Y-82809885D01*
X55626000Y-82809885D01*
X55626000Y-81552115D01*
X55621525Y-81536876D01*
X55620135Y-81535671D01*
X55612452Y-81534000D01*
X53609142Y-81534000D01*
X53595056Y-81538136D01*
X53593007Y-81551114D01*
X30988500Y-81551114D01*
X30988500Y-81485638D01*
X71212893Y-81485638D01*
X71225627Y-81706468D01*
X71227061Y-81716670D01*
X71275685Y-81932439D01*
X71278773Y-81942292D01*
X71361986Y-82147220D01*
X71366634Y-82156421D01*
X71455097Y-82300781D01*
X71465553Y-82310242D01*
X71474331Y-82306458D01*
X72252979Y-81527811D01*
X72259356Y-81516132D01*
X72989408Y-81516132D01*
X72989539Y-81517966D01*
X72993790Y-81524580D01*
X73771307Y-82302096D01*
X73783313Y-82308652D01*
X73795052Y-82299684D01*
X73833010Y-82246859D01*
X73838321Y-82238020D01*
X73936318Y-82039737D01*
X73940117Y-82030142D01*
X73982696Y-81890000D01*
X102864647Y-81890000D01*
X102884022Y-82111463D01*
X102941560Y-82326196D01*
X102943882Y-82331177D01*
X102943883Y-82331178D01*
X103033186Y-82522689D01*
X103033189Y-82522694D01*
X103035512Y-82527676D01*
X103038668Y-82532183D01*
X103038669Y-82532185D01*
X103159530Y-82704792D01*
X103163023Y-82709781D01*
X103320219Y-82866977D01*
X103324727Y-82870134D01*
X103324730Y-82870136D01*
X103360908Y-82895468D01*
X103502323Y-82994488D01*
X103507305Y-82996811D01*
X103507310Y-82996814D01*
X103698822Y-83086117D01*
X103703804Y-83088440D01*
X103709112Y-83089862D01*
X103709114Y-83089863D01*
X103774949Y-83107503D01*
X103918537Y-83145978D01*
X104140000Y-83165353D01*
X104361463Y-83145978D01*
X104505051Y-83107503D01*
X104570886Y-83089863D01*
X104570888Y-83089862D01*
X104576196Y-83088440D01*
X104581178Y-83086117D01*
X104772690Y-82996814D01*
X104772695Y-82996811D01*
X104777677Y-82994488D01*
X104919092Y-82895468D01*
X104955270Y-82870136D01*
X104955273Y-82870134D01*
X104959781Y-82866977D01*
X105116977Y-82709781D01*
X105120471Y-82704792D01*
X105241331Y-82532185D01*
X105241332Y-82532183D01*
X105244488Y-82527676D01*
X105246811Y-82522694D01*
X105246814Y-82522689D01*
X105336117Y-82331178D01*
X105336118Y-82331177D01*
X105338440Y-82326196D01*
X105395978Y-82111463D01*
X105415353Y-81890000D01*
X128264647Y-81890000D01*
X128284022Y-82111463D01*
X128341560Y-82326196D01*
X128343882Y-82331177D01*
X128343883Y-82331178D01*
X128433186Y-82522689D01*
X128433189Y-82522694D01*
X128435512Y-82527676D01*
X128438668Y-82532183D01*
X128438669Y-82532185D01*
X128559530Y-82704792D01*
X128563023Y-82709781D01*
X128720219Y-82866977D01*
X128724727Y-82870134D01*
X128724730Y-82870136D01*
X128760908Y-82895468D01*
X128902323Y-82994488D01*
X128907305Y-82996811D01*
X128907310Y-82996814D01*
X129098822Y-83086117D01*
X129103804Y-83088440D01*
X129109112Y-83089862D01*
X129109114Y-83089863D01*
X129174949Y-83107503D01*
X129318537Y-83145978D01*
X129540000Y-83165353D01*
X129761463Y-83145978D01*
X129905051Y-83107503D01*
X129970886Y-83089863D01*
X129970888Y-83089862D01*
X129976196Y-83088440D01*
X129981178Y-83086117D01*
X130172690Y-82996814D01*
X130172695Y-82996811D01*
X130177677Y-82994488D01*
X130319092Y-82895468D01*
X130355270Y-82870136D01*
X130355273Y-82870134D01*
X130359781Y-82866977D01*
X130516977Y-82709781D01*
X130520471Y-82704792D01*
X130641331Y-82532185D01*
X130641332Y-82532183D01*
X130644488Y-82527676D01*
X130646811Y-82522694D01*
X130646814Y-82522689D01*
X130736117Y-82331178D01*
X130736118Y-82331177D01*
X130738440Y-82326196D01*
X130795978Y-82111463D01*
X130815353Y-81890000D01*
X130795978Y-81668537D01*
X130738440Y-81453804D01*
X130661777Y-81289400D01*
X130646814Y-81257311D01*
X130646811Y-81257306D01*
X130644488Y-81252324D01*
X130573163Y-81150461D01*
X130520136Y-81074730D01*
X130520134Y-81074727D01*
X130516977Y-81070219D01*
X130359781Y-80913023D01*
X130355273Y-80909866D01*
X130355270Y-80909864D01*
X130250902Y-80836785D01*
X130177677Y-80785512D01*
X130172695Y-80783189D01*
X130172690Y-80783186D01*
X130087633Y-80743524D01*
X130067035Y-80733919D01*
X130013750Y-80687002D01*
X129994289Y-80618725D01*
X130014831Y-80550765D01*
X130067035Y-80505529D01*
X130172445Y-80456376D01*
X130181931Y-80450898D01*
X130225764Y-80420207D01*
X130234139Y-80409729D01*
X130227071Y-80396281D01*
X129552812Y-79722022D01*
X129538868Y-79714408D01*
X129537035Y-79714539D01*
X129530420Y-79718790D01*
X128852207Y-80397003D01*
X128845777Y-80408777D01*
X128855074Y-80420793D01*
X128898069Y-80450898D01*
X128907555Y-80456376D01*
X129012965Y-80505529D01*
X129066250Y-80552446D01*
X129085711Y-80620723D01*
X129065169Y-80688683D01*
X129012965Y-80733919D01*
X128907311Y-80783186D01*
X128907306Y-80783189D01*
X128902324Y-80785512D01*
X128897817Y-80788668D01*
X128897815Y-80788669D01*
X128724730Y-80909864D01*
X128724727Y-80909866D01*
X128720219Y-80913023D01*
X128563023Y-81070219D01*
X128559866Y-81074727D01*
X128559864Y-81074730D01*
X128506837Y-81150461D01*
X128435512Y-81252324D01*
X128433189Y-81257306D01*
X128433186Y-81257311D01*
X128418223Y-81289400D01*
X128341560Y-81453804D01*
X128284022Y-81668537D01*
X128264647Y-81890000D01*
X105415353Y-81890000D01*
X105395978Y-81668537D01*
X105338440Y-81453804D01*
X105261777Y-81289400D01*
X105246814Y-81257311D01*
X105246811Y-81257306D01*
X105244488Y-81252324D01*
X105173163Y-81150461D01*
X105120136Y-81074730D01*
X105120134Y-81074727D01*
X105116977Y-81070219D01*
X104959781Y-80913023D01*
X104955273Y-80909866D01*
X104955270Y-80909864D01*
X104850902Y-80836785D01*
X104777677Y-80785512D01*
X104772695Y-80783189D01*
X104772690Y-80783186D01*
X104687633Y-80743524D01*
X104667035Y-80733919D01*
X104613750Y-80687002D01*
X104594289Y-80618725D01*
X104614831Y-80550765D01*
X104667035Y-80505529D01*
X104772445Y-80456376D01*
X104781931Y-80450898D01*
X104825764Y-80420207D01*
X104834139Y-80409729D01*
X104827071Y-80396281D01*
X104152812Y-79722022D01*
X104138868Y-79714408D01*
X104137035Y-79714539D01*
X104130420Y-79718790D01*
X103452207Y-80397003D01*
X103445777Y-80408777D01*
X103455074Y-80420793D01*
X103498069Y-80450898D01*
X103507555Y-80456376D01*
X103612965Y-80505529D01*
X103666250Y-80552446D01*
X103685711Y-80620723D01*
X103665169Y-80688683D01*
X103612965Y-80733919D01*
X103507311Y-80783186D01*
X103507306Y-80783189D01*
X103502324Y-80785512D01*
X103497817Y-80788668D01*
X103497815Y-80788669D01*
X103324730Y-80909864D01*
X103324727Y-80909866D01*
X103320219Y-80913023D01*
X103163023Y-81070219D01*
X103159866Y-81074727D01*
X103159864Y-81074730D01*
X103106837Y-81150461D01*
X103035512Y-81252324D01*
X103033189Y-81257306D01*
X103033186Y-81257311D01*
X103018223Y-81289400D01*
X102941560Y-81453804D01*
X102884022Y-81668537D01*
X102864647Y-81890000D01*
X73982696Y-81890000D01*
X74004415Y-81818517D01*
X74006594Y-81808436D01*
X74035702Y-81587338D01*
X74036221Y-81580663D01*
X74037744Y-81518364D01*
X74037550Y-81511646D01*
X74019279Y-81289400D01*
X74017596Y-81279238D01*
X73963710Y-81064708D01*
X73960389Y-81054953D01*
X73872193Y-80852118D01*
X73867315Y-80843020D01*
X73794224Y-80730038D01*
X73783538Y-80720835D01*
X73773973Y-80725238D01*
X72997021Y-81502189D01*
X72989408Y-81516132D01*
X72259356Y-81516132D01*
X72260592Y-81513868D01*
X72260461Y-81512034D01*
X72256210Y-81505420D01*
X71478862Y-80728073D01*
X71467330Y-80721776D01*
X71455048Y-80731399D01*
X71399467Y-80812877D01*
X71394379Y-80821833D01*
X71301252Y-81022459D01*
X71297689Y-81032146D01*
X71238581Y-81245280D01*
X71236650Y-81255400D01*
X71213145Y-81475349D01*
X71212893Y-81485638D01*
X30988500Y-81485638D01*
X30988500Y-81008264D01*
X53595315Y-81008264D01*
X53596438Y-81022325D01*
X53606546Y-81026000D01*
X55607885Y-81026000D01*
X55623124Y-81021525D01*
X55624329Y-81020135D01*
X55626000Y-81012452D01*
X55626000Y-81007885D01*
X56134000Y-81007885D01*
X56138475Y-81023124D01*
X56139865Y-81024329D01*
X56147548Y-81026000D01*
X58150858Y-81026000D01*
X58164944Y-81021864D01*
X58166993Y-81008886D01*
X58164040Y-80983369D01*
X58162081Y-80973479D01*
X58097011Y-80743524D01*
X58093497Y-80734073D01*
X57992494Y-80517472D01*
X57987515Y-80508708D01*
X57883538Y-80355711D01*
X71830508Y-80355711D01*
X71837251Y-80368040D01*
X72612189Y-81142979D01*
X72626132Y-81150592D01*
X72627966Y-81150461D01*
X72634580Y-81146210D01*
X73413994Y-80366795D01*
X73421011Y-80353944D01*
X73413237Y-80343274D01*
X73410902Y-80341430D01*
X73402320Y-80335729D01*
X73208678Y-80228833D01*
X73199272Y-80224606D01*
X72990772Y-80150772D01*
X72980809Y-80148140D01*
X72763047Y-80109350D01*
X72752796Y-80108381D01*
X72531616Y-80105679D01*
X72521332Y-80106399D01*
X72302693Y-80139855D01*
X72292666Y-80142244D01*
X72082426Y-80210961D01*
X72072916Y-80214958D01*
X71876725Y-80317089D01*
X71868007Y-80322578D01*
X71838961Y-80344386D01*
X71830508Y-80355711D01*
X57883538Y-80355711D01*
X57853186Y-80311049D01*
X57846862Y-80303185D01*
X57682664Y-80129549D01*
X57675157Y-80122790D01*
X57485312Y-79977643D01*
X57476833Y-79972179D01*
X57266217Y-79859248D01*
X57256971Y-79855208D01*
X57031013Y-79777404D01*
X57021232Y-79774893D01*
X56784666Y-79734031D01*
X56776794Y-79733176D01*
X56752315Y-79732064D01*
X56749482Y-79732000D01*
X56152115Y-79732000D01*
X56136876Y-79736475D01*
X56135671Y-79737865D01*
X56134000Y-79745548D01*
X56134000Y-81007885D01*
X55626000Y-81007885D01*
X55626000Y-79750115D01*
X55621525Y-79734876D01*
X55620135Y-79733671D01*
X55612452Y-79732000D01*
X55059928Y-79732000D01*
X55054896Y-79732202D01*
X54876741Y-79746536D01*
X54866788Y-79748148D01*
X54634700Y-79805154D01*
X54625130Y-79808337D01*
X54405140Y-79901718D01*
X54396201Y-79906392D01*
X54193976Y-80033739D01*
X54185901Y-80039780D01*
X54006632Y-80197827D01*
X53999629Y-80205079D01*
X53847938Y-80389750D01*
X53842182Y-80398033D01*
X53721969Y-80604579D01*
X53717607Y-80613684D01*
X53631966Y-80836785D01*
X53629115Y-80846474D01*
X53595315Y-81008264D01*
X30988500Y-81008264D01*
X30988500Y-79355475D01*
X102865628Y-79355475D01*
X102884038Y-79565896D01*
X102885941Y-79576691D01*
X102940609Y-79780715D01*
X102944355Y-79791007D01*
X103033623Y-79982441D01*
X103039103Y-79991932D01*
X103069794Y-80035765D01*
X103080271Y-80044140D01*
X103093718Y-80037072D01*
X103767978Y-79362812D01*
X103774356Y-79351132D01*
X104504408Y-79351132D01*
X104504539Y-79352965D01*
X104508790Y-79359580D01*
X105187003Y-80037793D01*
X105198777Y-80044223D01*
X105210793Y-80034926D01*
X105240897Y-79991932D01*
X105246377Y-79982441D01*
X105335645Y-79791007D01*
X105339391Y-79780715D01*
X105394059Y-79576691D01*
X105395962Y-79565896D01*
X105414372Y-79355475D01*
X128265628Y-79355475D01*
X128284038Y-79565896D01*
X128285941Y-79576691D01*
X128340609Y-79780715D01*
X128344355Y-79791007D01*
X128433623Y-79982441D01*
X128439103Y-79991932D01*
X128469794Y-80035765D01*
X128480271Y-80044140D01*
X128493718Y-80037072D01*
X129167978Y-79362812D01*
X129174356Y-79351132D01*
X129904408Y-79351132D01*
X129904539Y-79352965D01*
X129908790Y-79359580D01*
X130587003Y-80037793D01*
X130598777Y-80044223D01*
X130610793Y-80034926D01*
X130640897Y-79991932D01*
X130646377Y-79982441D01*
X130735645Y-79791007D01*
X130739391Y-79780715D01*
X130794059Y-79576691D01*
X130795962Y-79565896D01*
X130814372Y-79355475D01*
X130814372Y-79344525D01*
X130795962Y-79134104D01*
X130794059Y-79123309D01*
X130739391Y-78919285D01*
X130735645Y-78908993D01*
X130646377Y-78717559D01*
X130640897Y-78708068D01*
X130610206Y-78664235D01*
X130599729Y-78655860D01*
X130586282Y-78662928D01*
X129912022Y-79337188D01*
X129904408Y-79351132D01*
X129174356Y-79351132D01*
X129175592Y-79348868D01*
X129175461Y-79347035D01*
X129171210Y-79340420D01*
X128492997Y-78662207D01*
X128481223Y-78655777D01*
X128469207Y-78665074D01*
X128439103Y-78708068D01*
X128433623Y-78717559D01*
X128344355Y-78908993D01*
X128340609Y-78919285D01*
X128285941Y-79123309D01*
X128284038Y-79134104D01*
X128265628Y-79344525D01*
X128265628Y-79355475D01*
X105414372Y-79355475D01*
X105414372Y-79344525D01*
X105395962Y-79134104D01*
X105394059Y-79123309D01*
X105339391Y-78919285D01*
X105335645Y-78908993D01*
X105246377Y-78717559D01*
X105240897Y-78708068D01*
X105210206Y-78664235D01*
X105199729Y-78655860D01*
X105186282Y-78662928D01*
X104512022Y-79337188D01*
X104504408Y-79351132D01*
X103774356Y-79351132D01*
X103775592Y-79348868D01*
X103775461Y-79347035D01*
X103771210Y-79340420D01*
X103092997Y-78662207D01*
X103081223Y-78655777D01*
X103069207Y-78665074D01*
X103039103Y-78708068D01*
X103033623Y-78717559D01*
X102944355Y-78908993D01*
X102940609Y-78919285D01*
X102885941Y-79123309D01*
X102884038Y-79134104D01*
X102865628Y-79344525D01*
X102865628Y-79355475D01*
X30988500Y-79355475D01*
X30988500Y-76471114D01*
X53593007Y-76471114D01*
X53595960Y-76496631D01*
X53597919Y-76506521D01*
X53662989Y-76736476D01*
X53666503Y-76745927D01*
X53767506Y-76962528D01*
X53772485Y-76971292D01*
X53906814Y-77168951D01*
X53913138Y-77176815D01*
X54077336Y-77350451D01*
X54084843Y-77357210D01*
X54274688Y-77502357D01*
X54283167Y-77507821D01*
X54493783Y-77620752D01*
X54503029Y-77624792D01*
X54728987Y-77702596D01*
X54738768Y-77705107D01*
X54975334Y-77745969D01*
X54983206Y-77746824D01*
X55007685Y-77747936D01*
X55010518Y-77748000D01*
X55607885Y-77748000D01*
X55623124Y-77743525D01*
X55624329Y-77742135D01*
X55626000Y-77734452D01*
X55626000Y-77729885D01*
X56134000Y-77729885D01*
X56138475Y-77745124D01*
X56139865Y-77746329D01*
X56147548Y-77748000D01*
X56700072Y-77748000D01*
X56705104Y-77747798D01*
X56883259Y-77733464D01*
X56893212Y-77731852D01*
X57125300Y-77674846D01*
X57134870Y-77671663D01*
X57354860Y-77578282D01*
X57363799Y-77573608D01*
X57566024Y-77446261D01*
X57574099Y-77440220D01*
X57753368Y-77282173D01*
X57760371Y-77274921D01*
X57912062Y-77090250D01*
X57917818Y-77081967D01*
X58038031Y-76875421D01*
X58042393Y-76866316D01*
X58064011Y-76810000D01*
X102864647Y-76810000D01*
X102884022Y-77031463D01*
X102941560Y-77246196D01*
X102943882Y-77251177D01*
X102943883Y-77251178D01*
X103033186Y-77442689D01*
X103033189Y-77442694D01*
X103035512Y-77447676D01*
X103038668Y-77452183D01*
X103038669Y-77452185D01*
X103159530Y-77624792D01*
X103163023Y-77629781D01*
X103320219Y-77786977D01*
X103324727Y-77790134D01*
X103324730Y-77790136D01*
X103400495Y-77843187D01*
X103502323Y-77914488D01*
X103507305Y-77916811D01*
X103507310Y-77916814D01*
X103612965Y-77966081D01*
X103666250Y-78012998D01*
X103685711Y-78081275D01*
X103665169Y-78149235D01*
X103612965Y-78194471D01*
X103507559Y-78243623D01*
X103498068Y-78249103D01*
X103454235Y-78279794D01*
X103445860Y-78290271D01*
X103452928Y-78303718D01*
X104127188Y-78977978D01*
X104141132Y-78985592D01*
X104142965Y-78985461D01*
X104149580Y-78981210D01*
X104827793Y-78302997D01*
X104834223Y-78291223D01*
X104824926Y-78279207D01*
X104781931Y-78249102D01*
X104772445Y-78243624D01*
X104667035Y-78194471D01*
X104613750Y-78147554D01*
X104594289Y-78079277D01*
X104614831Y-78011317D01*
X104667035Y-77966081D01*
X104772690Y-77916814D01*
X104772695Y-77916811D01*
X104777677Y-77914488D01*
X104879505Y-77843187D01*
X104955270Y-77790136D01*
X104955273Y-77790134D01*
X104959781Y-77786977D01*
X105116977Y-77629781D01*
X105120471Y-77624792D01*
X105241331Y-77452185D01*
X105241332Y-77452183D01*
X105244488Y-77447676D01*
X105246811Y-77442694D01*
X105246814Y-77442689D01*
X105336117Y-77251178D01*
X105336118Y-77251177D01*
X105338440Y-77246196D01*
X105395978Y-77031463D01*
X105415353Y-76810000D01*
X128264647Y-76810000D01*
X128284022Y-77031463D01*
X128341560Y-77246196D01*
X128343882Y-77251177D01*
X128343883Y-77251178D01*
X128433186Y-77442689D01*
X128433189Y-77442694D01*
X128435512Y-77447676D01*
X128438668Y-77452183D01*
X128438669Y-77452185D01*
X128559530Y-77624792D01*
X128563023Y-77629781D01*
X128720219Y-77786977D01*
X128724727Y-77790134D01*
X128724730Y-77790136D01*
X128800495Y-77843187D01*
X128902323Y-77914488D01*
X128907305Y-77916811D01*
X128907310Y-77916814D01*
X129012965Y-77966081D01*
X129066250Y-78012998D01*
X129085711Y-78081275D01*
X129065169Y-78149235D01*
X129012965Y-78194471D01*
X128907559Y-78243623D01*
X128898068Y-78249103D01*
X128854235Y-78279794D01*
X128845860Y-78290271D01*
X128852928Y-78303718D01*
X129527188Y-78977978D01*
X129541132Y-78985592D01*
X129542965Y-78985461D01*
X129549580Y-78981210D01*
X130227793Y-78302997D01*
X130234223Y-78291223D01*
X130224926Y-78279207D01*
X130181931Y-78249102D01*
X130172445Y-78243624D01*
X130067035Y-78194471D01*
X130013750Y-78147554D01*
X129994289Y-78079277D01*
X130014831Y-78011317D01*
X130067035Y-77966081D01*
X130172690Y-77916814D01*
X130172695Y-77916811D01*
X130177677Y-77914488D01*
X130279505Y-77843187D01*
X130355270Y-77790136D01*
X130355273Y-77790134D01*
X130359781Y-77786977D01*
X130516977Y-77629781D01*
X130520471Y-77624792D01*
X130641331Y-77452185D01*
X130641332Y-77452183D01*
X130644488Y-77447676D01*
X130646811Y-77442694D01*
X130646814Y-77442689D01*
X130736117Y-77251178D01*
X130736118Y-77251177D01*
X130738440Y-77246196D01*
X130795978Y-77031463D01*
X130815353Y-76810000D01*
X130795978Y-76588537D01*
X130738440Y-76373804D01*
X130736117Y-76368822D01*
X130646814Y-76177311D01*
X130646811Y-76177306D01*
X130644488Y-76172324D01*
X130516977Y-75990219D01*
X130359781Y-75833023D01*
X130355273Y-75829866D01*
X130355270Y-75829864D01*
X130250902Y-75756785D01*
X130177677Y-75705512D01*
X130172695Y-75703189D01*
X130172690Y-75703186D01*
X130067627Y-75654195D01*
X130014342Y-75607278D01*
X129994881Y-75539001D01*
X130015423Y-75471041D01*
X130067627Y-75425805D01*
X130172690Y-75376814D01*
X130172695Y-75376811D01*
X130177677Y-75374488D01*
X130279505Y-75303187D01*
X130355270Y-75250136D01*
X130355273Y-75250134D01*
X130359781Y-75246977D01*
X130516977Y-75089781D01*
X130549881Y-75042790D01*
X130641331Y-74912185D01*
X130641332Y-74912183D01*
X130644488Y-74907676D01*
X130646811Y-74902694D01*
X130646814Y-74902689D01*
X130736117Y-74711178D01*
X130736118Y-74711177D01*
X130738440Y-74706196D01*
X130795978Y-74491463D01*
X130815353Y-74270000D01*
X130795978Y-74048537D01*
X130738440Y-73833804D01*
X130736117Y-73828822D01*
X130646814Y-73637311D01*
X130646811Y-73637306D01*
X130644488Y-73632324D01*
X130516977Y-73450219D01*
X130359781Y-73293023D01*
X130355273Y-73289866D01*
X130355270Y-73289864D01*
X130279505Y-73236813D01*
X130177677Y-73165512D01*
X130172695Y-73163189D01*
X130172690Y-73163186D01*
X130067627Y-73114195D01*
X130014342Y-73067278D01*
X129994881Y-72999001D01*
X130015423Y-72931041D01*
X130067627Y-72885805D01*
X130172690Y-72836814D01*
X130172695Y-72836811D01*
X130177677Y-72834488D01*
X130279505Y-72763187D01*
X130355270Y-72710136D01*
X130355273Y-72710134D01*
X130359781Y-72706977D01*
X130516977Y-72549781D01*
X130520471Y-72544792D01*
X130641331Y-72372185D01*
X130641332Y-72372183D01*
X130644488Y-72367676D01*
X130646811Y-72362694D01*
X130646814Y-72362689D01*
X130736117Y-72171178D01*
X130736118Y-72171177D01*
X130738440Y-72166196D01*
X130795978Y-71951463D01*
X130815353Y-71730000D01*
X130795978Y-71508537D01*
X130738440Y-71293804D01*
X130736117Y-71288822D01*
X130646814Y-71097311D01*
X130646811Y-71097306D01*
X130644488Y-71092324D01*
X130516977Y-70910219D01*
X130359781Y-70753023D01*
X130355273Y-70749866D01*
X130355270Y-70749864D01*
X130250902Y-70676785D01*
X130177677Y-70625512D01*
X130172695Y-70623189D01*
X130172690Y-70623186D01*
X130067627Y-70574195D01*
X130014342Y-70527278D01*
X129994881Y-70459001D01*
X130015423Y-70391041D01*
X130067627Y-70345805D01*
X130172690Y-70296814D01*
X130172695Y-70296811D01*
X130177677Y-70294488D01*
X130279505Y-70223187D01*
X130355270Y-70170136D01*
X130355273Y-70170134D01*
X130359781Y-70166977D01*
X130516977Y-70009781D01*
X130549881Y-69962790D01*
X130641331Y-69832185D01*
X130641332Y-69832183D01*
X130644488Y-69827676D01*
X130646811Y-69822694D01*
X130646814Y-69822689D01*
X130736117Y-69631178D01*
X130736118Y-69631177D01*
X130738440Y-69626196D01*
X130795978Y-69411463D01*
X130815353Y-69190000D01*
X130795978Y-68968537D01*
X130738440Y-68753804D01*
X130736117Y-68748822D01*
X130646814Y-68557311D01*
X130646811Y-68557306D01*
X130644488Y-68552324D01*
X130516977Y-68370219D01*
X130359781Y-68213023D01*
X130355273Y-68209866D01*
X130355270Y-68209864D01*
X130279505Y-68156813D01*
X130177677Y-68085512D01*
X130172695Y-68083189D01*
X130172690Y-68083186D01*
X130067627Y-68034195D01*
X130014342Y-67987278D01*
X129994881Y-67919001D01*
X130015423Y-67851041D01*
X130067627Y-67805805D01*
X130172690Y-67756814D01*
X130172695Y-67756811D01*
X130177677Y-67754488D01*
X130279505Y-67683187D01*
X130355270Y-67630136D01*
X130355273Y-67630134D01*
X130359781Y-67626977D01*
X130516977Y-67469781D01*
X130520471Y-67464792D01*
X130641331Y-67292185D01*
X130641332Y-67292183D01*
X130644488Y-67287676D01*
X130646811Y-67282694D01*
X130646814Y-67282689D01*
X130736117Y-67091178D01*
X130736118Y-67091177D01*
X130738440Y-67086196D01*
X130795978Y-66871463D01*
X130815353Y-66650000D01*
X130795978Y-66428537D01*
X130738440Y-66213804D01*
X130736117Y-66208822D01*
X130646814Y-66017311D01*
X130646811Y-66017306D01*
X130644488Y-66012324D01*
X130516977Y-65830219D01*
X130359781Y-65673023D01*
X130355273Y-65669866D01*
X130355270Y-65669864D01*
X130250902Y-65596785D01*
X130177677Y-65545512D01*
X130172695Y-65543189D01*
X130172690Y-65543186D01*
X130067627Y-65494195D01*
X130014342Y-65447278D01*
X129994881Y-65379001D01*
X130015423Y-65311041D01*
X130067627Y-65265805D01*
X130172690Y-65216814D01*
X130172695Y-65216811D01*
X130177677Y-65214488D01*
X130279505Y-65143187D01*
X130355270Y-65090136D01*
X130355273Y-65090134D01*
X130359781Y-65086977D01*
X130516977Y-64929781D01*
X130549881Y-64882790D01*
X130641331Y-64752185D01*
X130641332Y-64752183D01*
X130644488Y-64747676D01*
X130646811Y-64742694D01*
X130646814Y-64742689D01*
X130736117Y-64551178D01*
X130736118Y-64551177D01*
X130738440Y-64546196D01*
X130795978Y-64331463D01*
X130815353Y-64110000D01*
X130795978Y-63888537D01*
X130738440Y-63673804D01*
X130736117Y-63668822D01*
X130646814Y-63477311D01*
X130646811Y-63477306D01*
X130644488Y-63472324D01*
X130516977Y-63290219D01*
X130359781Y-63133023D01*
X130355273Y-63129866D01*
X130355270Y-63129864D01*
X130279505Y-63076813D01*
X130177677Y-63005512D01*
X130172695Y-63003189D01*
X130172690Y-63003186D01*
X130067627Y-62954195D01*
X130014342Y-62907278D01*
X129994881Y-62839001D01*
X130015423Y-62771041D01*
X130067627Y-62725805D01*
X130172690Y-62676814D01*
X130172695Y-62676811D01*
X130177677Y-62674488D01*
X130279505Y-62603187D01*
X130355270Y-62550136D01*
X130355273Y-62550134D01*
X130359781Y-62546977D01*
X130516977Y-62389781D01*
X130644488Y-62207676D01*
X130646811Y-62202694D01*
X130646814Y-62202689D01*
X130736117Y-62011178D01*
X130736118Y-62011177D01*
X130738440Y-62006196D01*
X130795978Y-61791463D01*
X130815353Y-61570000D01*
X130795978Y-61348537D01*
X130738440Y-61133804D01*
X130736117Y-61128822D01*
X130646814Y-60937311D01*
X130646811Y-60937306D01*
X130644488Y-60932324D01*
X130516977Y-60750219D01*
X130359781Y-60593023D01*
X130355273Y-60589866D01*
X130355270Y-60589864D01*
X130279505Y-60536813D01*
X130177677Y-60465512D01*
X130172695Y-60463189D01*
X130172690Y-60463186D01*
X130067627Y-60414195D01*
X130014342Y-60367278D01*
X129994881Y-60299001D01*
X130015423Y-60231041D01*
X130067627Y-60185805D01*
X130172690Y-60136814D01*
X130172695Y-60136811D01*
X130177677Y-60134488D01*
X130279505Y-60063187D01*
X130355270Y-60010136D01*
X130355273Y-60010134D01*
X130359781Y-60006977D01*
X130516977Y-59849781D01*
X130644488Y-59667676D01*
X130646811Y-59662694D01*
X130646814Y-59662689D01*
X130736117Y-59471178D01*
X130736118Y-59471177D01*
X130738440Y-59466196D01*
X130795978Y-59251463D01*
X130815353Y-59030000D01*
X130795978Y-58808537D01*
X130738440Y-58593804D01*
X130736117Y-58588822D01*
X130646814Y-58397311D01*
X130646811Y-58397306D01*
X130644488Y-58392324D01*
X130516977Y-58210219D01*
X130359781Y-58053023D01*
X130355273Y-58049866D01*
X130355270Y-58049864D01*
X130241291Y-57970055D01*
X130177677Y-57925512D01*
X130172695Y-57923189D01*
X130172690Y-57923186D01*
X130067627Y-57874195D01*
X130014342Y-57827278D01*
X129994881Y-57759001D01*
X130015423Y-57691041D01*
X130067627Y-57645805D01*
X130172690Y-57596814D01*
X130172695Y-57596811D01*
X130177677Y-57594488D01*
X130279505Y-57523187D01*
X130355270Y-57470136D01*
X130355273Y-57470134D01*
X130359781Y-57466977D01*
X130516977Y-57309781D01*
X130626772Y-57152978D01*
X130641331Y-57132185D01*
X130641332Y-57132183D01*
X130644488Y-57127676D01*
X130646811Y-57122694D01*
X130646814Y-57122689D01*
X130736117Y-56931178D01*
X130736118Y-56931177D01*
X130738440Y-56926196D01*
X130795978Y-56711463D01*
X130815353Y-56490000D01*
X130795978Y-56268537D01*
X130738440Y-56053804D01*
X130736117Y-56048822D01*
X130646814Y-55857311D01*
X130646811Y-55857306D01*
X130644488Y-55852324D01*
X130516977Y-55670219D01*
X130359781Y-55513023D01*
X130355273Y-55509866D01*
X130355270Y-55509864D01*
X130279505Y-55456813D01*
X130177677Y-55385512D01*
X130172695Y-55383189D01*
X130172690Y-55383186D01*
X130067627Y-55334195D01*
X130014342Y-55287278D01*
X129994881Y-55219001D01*
X130015423Y-55151041D01*
X130067627Y-55105805D01*
X130172690Y-55056814D01*
X130172695Y-55056811D01*
X130177677Y-55054488D01*
X130344307Y-54937812D01*
X130355270Y-54930136D01*
X130355273Y-54930134D01*
X130359781Y-54926977D01*
X130516977Y-54769781D01*
X130559581Y-54708937D01*
X130641331Y-54592185D01*
X130641332Y-54592183D01*
X130644488Y-54587676D01*
X130646811Y-54582694D01*
X130646814Y-54582689D01*
X130736117Y-54391178D01*
X130736118Y-54391177D01*
X130738440Y-54386196D01*
X130795978Y-54171463D01*
X130815353Y-53950000D01*
X130795978Y-53728537D01*
X130738440Y-53513804D01*
X130736117Y-53508822D01*
X130646814Y-53317311D01*
X130646811Y-53317306D01*
X130644488Y-53312324D01*
X130516977Y-53130219D01*
X130359781Y-52973023D01*
X130355273Y-52969866D01*
X130355270Y-52969864D01*
X130279505Y-52916813D01*
X130177677Y-52845512D01*
X130172695Y-52843189D01*
X130172690Y-52843186D01*
X130067627Y-52794195D01*
X130014342Y-52747278D01*
X129994881Y-52679001D01*
X130015423Y-52611041D01*
X130067627Y-52565805D01*
X130172690Y-52516814D01*
X130172695Y-52516811D01*
X130177677Y-52514488D01*
X130279505Y-52443187D01*
X130355270Y-52390136D01*
X130355273Y-52390134D01*
X130359781Y-52386977D01*
X130516977Y-52229781D01*
X130644488Y-52047676D01*
X130646811Y-52042694D01*
X130646814Y-52042689D01*
X130736117Y-51851178D01*
X130736118Y-51851177D01*
X130738440Y-51846196D01*
X130795978Y-51631463D01*
X130815353Y-51410000D01*
X130795978Y-51188537D01*
X130738440Y-50973804D01*
X130736117Y-50968822D01*
X130646814Y-50777311D01*
X130646811Y-50777306D01*
X130644488Y-50772324D01*
X130516977Y-50590219D01*
X130359781Y-50433023D01*
X130355273Y-50429866D01*
X130355270Y-50429864D01*
X130279505Y-50376813D01*
X130177677Y-50305512D01*
X130172695Y-50303189D01*
X130172690Y-50303186D01*
X130067627Y-50254195D01*
X130014342Y-50207278D01*
X129994881Y-50139001D01*
X130015423Y-50071041D01*
X130067627Y-50025805D01*
X130172690Y-49976814D01*
X130172695Y-49976811D01*
X130177677Y-49974488D01*
X130279505Y-49903187D01*
X130355270Y-49850136D01*
X130355273Y-49850134D01*
X130359781Y-49846977D01*
X130516977Y-49689781D01*
X130644488Y-49507676D01*
X130646811Y-49502694D01*
X130646814Y-49502689D01*
X130736117Y-49311178D01*
X130736118Y-49311177D01*
X130738440Y-49306196D01*
X130795978Y-49091463D01*
X130815353Y-48870000D01*
X130795978Y-48648537D01*
X130738440Y-48433804D01*
X130736117Y-48428822D01*
X130646814Y-48237311D01*
X130646811Y-48237306D01*
X130644488Y-48232324D01*
X130516977Y-48050219D01*
X130359781Y-47893023D01*
X130355273Y-47889866D01*
X130355270Y-47889864D01*
X130239801Y-47809012D01*
X130177677Y-47765512D01*
X130172695Y-47763189D01*
X130172690Y-47763186D01*
X130067627Y-47714195D01*
X130014342Y-47667278D01*
X129994881Y-47599001D01*
X130015423Y-47531041D01*
X130067627Y-47485805D01*
X130172690Y-47436814D01*
X130172695Y-47436811D01*
X130177677Y-47434488D01*
X130326477Y-47330297D01*
X130355270Y-47310136D01*
X130355273Y-47310134D01*
X130359781Y-47306977D01*
X130516977Y-47149781D01*
X130521354Y-47143531D01*
X130641331Y-46972185D01*
X130641332Y-46972183D01*
X130644488Y-46967676D01*
X130646811Y-46962694D01*
X130646814Y-46962689D01*
X130736117Y-46771178D01*
X130736118Y-46771177D01*
X130738440Y-46766196D01*
X130795978Y-46551463D01*
X130815353Y-46330000D01*
X130795978Y-46108537D01*
X130738440Y-45893804D01*
X130736117Y-45888822D01*
X130646814Y-45697311D01*
X130646811Y-45697306D01*
X130644488Y-45692324D01*
X130641331Y-45687815D01*
X130520136Y-45514730D01*
X130520134Y-45514727D01*
X130516977Y-45510219D01*
X130359781Y-45353023D01*
X130355273Y-45349866D01*
X130355270Y-45349864D01*
X130279505Y-45296813D01*
X130177677Y-45225512D01*
X130172695Y-45223189D01*
X130172690Y-45223186D01*
X129981178Y-45133883D01*
X129981177Y-45133882D01*
X129976196Y-45131560D01*
X129970888Y-45130138D01*
X129970886Y-45130137D01*
X129905051Y-45112497D01*
X129761463Y-45074022D01*
X129540000Y-45054647D01*
X129318537Y-45074022D01*
X129174949Y-45112497D01*
X129109114Y-45130137D01*
X129109112Y-45130138D01*
X129103804Y-45131560D01*
X129098823Y-45133882D01*
X129098822Y-45133883D01*
X128907311Y-45223186D01*
X128907306Y-45223189D01*
X128902324Y-45225512D01*
X128897817Y-45228668D01*
X128897815Y-45228669D01*
X128724730Y-45349864D01*
X128724727Y-45349866D01*
X128720219Y-45353023D01*
X128563023Y-45510219D01*
X128559866Y-45514727D01*
X128559864Y-45514730D01*
X128438669Y-45687815D01*
X128435512Y-45692324D01*
X128433189Y-45697306D01*
X128433186Y-45697311D01*
X128343883Y-45888822D01*
X128341560Y-45893804D01*
X128284022Y-46108537D01*
X128264647Y-46330000D01*
X128284022Y-46551463D01*
X128341560Y-46766196D01*
X128343882Y-46771177D01*
X128343883Y-46771178D01*
X128433186Y-46962689D01*
X128433189Y-46962694D01*
X128435512Y-46967676D01*
X128438668Y-46972183D01*
X128438669Y-46972185D01*
X128558647Y-47143531D01*
X128563023Y-47149781D01*
X128720219Y-47306977D01*
X128724727Y-47310134D01*
X128724730Y-47310136D01*
X128753523Y-47330297D01*
X128902323Y-47434488D01*
X128907305Y-47436811D01*
X128907310Y-47436814D01*
X129012373Y-47485805D01*
X129065658Y-47532722D01*
X129085119Y-47600999D01*
X129064577Y-47668959D01*
X129012373Y-47714195D01*
X128907311Y-47763186D01*
X128907306Y-47763189D01*
X128902324Y-47765512D01*
X128897817Y-47768668D01*
X128897815Y-47768669D01*
X128724730Y-47889864D01*
X128724727Y-47889866D01*
X128720219Y-47893023D01*
X128563023Y-48050219D01*
X128435512Y-48232324D01*
X128433189Y-48237306D01*
X128433186Y-48237311D01*
X128343883Y-48428822D01*
X128341560Y-48433804D01*
X128284022Y-48648537D01*
X128264647Y-48870000D01*
X128284022Y-49091463D01*
X128341560Y-49306196D01*
X128343882Y-49311177D01*
X128343883Y-49311178D01*
X128433186Y-49502689D01*
X128433189Y-49502694D01*
X128435512Y-49507676D01*
X128563023Y-49689781D01*
X128720219Y-49846977D01*
X128724727Y-49850134D01*
X128724730Y-49850136D01*
X128800495Y-49903187D01*
X128902323Y-49974488D01*
X128907305Y-49976811D01*
X128907310Y-49976814D01*
X129012373Y-50025805D01*
X129065658Y-50072722D01*
X129085119Y-50140999D01*
X129064577Y-50208959D01*
X129012373Y-50254195D01*
X128907311Y-50303186D01*
X128907306Y-50303189D01*
X128902324Y-50305512D01*
X128897817Y-50308668D01*
X128897815Y-50308669D01*
X128724730Y-50429864D01*
X128724727Y-50429866D01*
X128720219Y-50433023D01*
X128563023Y-50590219D01*
X128435512Y-50772324D01*
X128433189Y-50777306D01*
X128433186Y-50777311D01*
X128343883Y-50968822D01*
X128341560Y-50973804D01*
X128284022Y-51188537D01*
X128264647Y-51410000D01*
X128284022Y-51631463D01*
X128341560Y-51846196D01*
X128343882Y-51851177D01*
X128343883Y-51851178D01*
X128433186Y-52042689D01*
X128433189Y-52042694D01*
X128435512Y-52047676D01*
X128563023Y-52229781D01*
X128720219Y-52386977D01*
X128724727Y-52390134D01*
X128724730Y-52390136D01*
X128800495Y-52443187D01*
X128902323Y-52514488D01*
X128907305Y-52516811D01*
X128907310Y-52516814D01*
X129012373Y-52565805D01*
X129065658Y-52612722D01*
X129085119Y-52680999D01*
X129064577Y-52748959D01*
X129012373Y-52794195D01*
X128907311Y-52843186D01*
X128907306Y-52843189D01*
X128902324Y-52845512D01*
X128897817Y-52848668D01*
X128897815Y-52848669D01*
X128724730Y-52969864D01*
X128724727Y-52969866D01*
X128720219Y-52973023D01*
X128563023Y-53130219D01*
X128435512Y-53312324D01*
X128433189Y-53317306D01*
X128433186Y-53317311D01*
X128343883Y-53508822D01*
X128341560Y-53513804D01*
X128284022Y-53728537D01*
X128264647Y-53950000D01*
X128284022Y-54171463D01*
X128341560Y-54386196D01*
X128343882Y-54391177D01*
X128343883Y-54391178D01*
X128433186Y-54582689D01*
X128433189Y-54582694D01*
X128435512Y-54587676D01*
X128438668Y-54592183D01*
X128438669Y-54592185D01*
X128520420Y-54708937D01*
X128563023Y-54769781D01*
X128720219Y-54926977D01*
X128724727Y-54930134D01*
X128724730Y-54930136D01*
X128735693Y-54937812D01*
X128902323Y-55054488D01*
X128907305Y-55056811D01*
X128907310Y-55056814D01*
X129012373Y-55105805D01*
X129065658Y-55152722D01*
X129085119Y-55220999D01*
X129064577Y-55288959D01*
X129012373Y-55334195D01*
X128907311Y-55383186D01*
X128907306Y-55383189D01*
X128902324Y-55385512D01*
X128897817Y-55388668D01*
X128897815Y-55388669D01*
X128724730Y-55509864D01*
X128724727Y-55509866D01*
X128720219Y-55513023D01*
X128563023Y-55670219D01*
X128435512Y-55852324D01*
X128433189Y-55857306D01*
X128433186Y-55857311D01*
X128343883Y-56048822D01*
X128341560Y-56053804D01*
X128284022Y-56268537D01*
X128264647Y-56490000D01*
X128284022Y-56711463D01*
X128341560Y-56926196D01*
X128343882Y-56931177D01*
X128343883Y-56931178D01*
X128433186Y-57122689D01*
X128433189Y-57122694D01*
X128435512Y-57127676D01*
X128438668Y-57132183D01*
X128438669Y-57132185D01*
X128453229Y-57152978D01*
X128563023Y-57309781D01*
X128720219Y-57466977D01*
X128724727Y-57470134D01*
X128724730Y-57470136D01*
X128800495Y-57523187D01*
X128902323Y-57594488D01*
X128907305Y-57596811D01*
X128907310Y-57596814D01*
X129012373Y-57645805D01*
X129065658Y-57692722D01*
X129085119Y-57760999D01*
X129064577Y-57828959D01*
X129012373Y-57874195D01*
X128907311Y-57923186D01*
X128907306Y-57923189D01*
X128902324Y-57925512D01*
X128897817Y-57928668D01*
X128897815Y-57928669D01*
X128724730Y-58049864D01*
X128724727Y-58049866D01*
X128720219Y-58053023D01*
X128563023Y-58210219D01*
X128435512Y-58392324D01*
X128433189Y-58397306D01*
X128433186Y-58397311D01*
X128343883Y-58588822D01*
X128341560Y-58593804D01*
X128284022Y-58808537D01*
X128264647Y-59030000D01*
X128284022Y-59251463D01*
X128341560Y-59466196D01*
X128343882Y-59471177D01*
X128343883Y-59471178D01*
X128433186Y-59662689D01*
X128433189Y-59662694D01*
X128435512Y-59667676D01*
X128563023Y-59849781D01*
X128720219Y-60006977D01*
X128724727Y-60010134D01*
X128724730Y-60010136D01*
X128800495Y-60063187D01*
X128902323Y-60134488D01*
X128907305Y-60136811D01*
X128907310Y-60136814D01*
X129012373Y-60185805D01*
X129065658Y-60232722D01*
X129085119Y-60300999D01*
X129064577Y-60368959D01*
X129012373Y-60414195D01*
X128907311Y-60463186D01*
X128907306Y-60463189D01*
X128902324Y-60465512D01*
X128897817Y-60468668D01*
X128897815Y-60468669D01*
X128724730Y-60589864D01*
X128724727Y-60589866D01*
X128720219Y-60593023D01*
X128563023Y-60750219D01*
X128435512Y-60932324D01*
X128433189Y-60937306D01*
X128433186Y-60937311D01*
X128343883Y-61128822D01*
X128341560Y-61133804D01*
X128284022Y-61348537D01*
X128264647Y-61570000D01*
X128284022Y-61791463D01*
X128341560Y-62006196D01*
X128343882Y-62011177D01*
X128343883Y-62011178D01*
X128433186Y-62202689D01*
X128433189Y-62202694D01*
X128435512Y-62207676D01*
X128563023Y-62389781D01*
X128720219Y-62546977D01*
X128724727Y-62550134D01*
X128724730Y-62550136D01*
X128800495Y-62603187D01*
X128902323Y-62674488D01*
X128907305Y-62676811D01*
X128907310Y-62676814D01*
X129012373Y-62725805D01*
X129065658Y-62772722D01*
X129085119Y-62840999D01*
X129064577Y-62908959D01*
X129012373Y-62954195D01*
X128907311Y-63003186D01*
X128907306Y-63003189D01*
X128902324Y-63005512D01*
X128897817Y-63008668D01*
X128897815Y-63008669D01*
X128724730Y-63129864D01*
X128724727Y-63129866D01*
X128720219Y-63133023D01*
X128563023Y-63290219D01*
X128435512Y-63472324D01*
X128433189Y-63477306D01*
X128433186Y-63477311D01*
X128343883Y-63668822D01*
X128341560Y-63673804D01*
X128284022Y-63888537D01*
X128264647Y-64110000D01*
X128284022Y-64331463D01*
X128341560Y-64546196D01*
X128343882Y-64551177D01*
X128343883Y-64551178D01*
X128433186Y-64742689D01*
X128433189Y-64742694D01*
X128435512Y-64747676D01*
X128438668Y-64752183D01*
X128438669Y-64752185D01*
X128530120Y-64882790D01*
X128563023Y-64929781D01*
X128720219Y-65086977D01*
X128724727Y-65090134D01*
X128724730Y-65090136D01*
X128800495Y-65143187D01*
X128902323Y-65214488D01*
X128907305Y-65216811D01*
X128907310Y-65216814D01*
X129012373Y-65265805D01*
X129065658Y-65312722D01*
X129085119Y-65380999D01*
X129064577Y-65448959D01*
X129012373Y-65494195D01*
X128907311Y-65543186D01*
X128907306Y-65543189D01*
X128902324Y-65545512D01*
X128897817Y-65548668D01*
X128897815Y-65548669D01*
X128724730Y-65669864D01*
X128724727Y-65669866D01*
X128720219Y-65673023D01*
X128563023Y-65830219D01*
X128435512Y-66012324D01*
X128433189Y-66017306D01*
X128433186Y-66017311D01*
X128343883Y-66208822D01*
X128341560Y-66213804D01*
X128284022Y-66428537D01*
X128264647Y-66650000D01*
X128284022Y-66871463D01*
X128341560Y-67086196D01*
X128343882Y-67091177D01*
X128343883Y-67091178D01*
X128433186Y-67282689D01*
X128433189Y-67282694D01*
X128435512Y-67287676D01*
X128438668Y-67292183D01*
X128438669Y-67292185D01*
X128559530Y-67464792D01*
X128563023Y-67469781D01*
X128720219Y-67626977D01*
X128724727Y-67630134D01*
X128724730Y-67630136D01*
X128800495Y-67683187D01*
X128902323Y-67754488D01*
X128907305Y-67756811D01*
X128907310Y-67756814D01*
X129012373Y-67805805D01*
X129065658Y-67852722D01*
X129085119Y-67920999D01*
X129064577Y-67988959D01*
X129012373Y-68034195D01*
X128907311Y-68083186D01*
X128907306Y-68083189D01*
X128902324Y-68085512D01*
X128897817Y-68088668D01*
X128897815Y-68088669D01*
X128724730Y-68209864D01*
X128724727Y-68209866D01*
X128720219Y-68213023D01*
X128563023Y-68370219D01*
X128435512Y-68552324D01*
X128433189Y-68557306D01*
X128433186Y-68557311D01*
X128343883Y-68748822D01*
X128341560Y-68753804D01*
X128284022Y-68968537D01*
X128264647Y-69190000D01*
X128284022Y-69411463D01*
X128341560Y-69626196D01*
X128343882Y-69631177D01*
X128343883Y-69631178D01*
X128433186Y-69822689D01*
X128433189Y-69822694D01*
X128435512Y-69827676D01*
X128438668Y-69832183D01*
X128438669Y-69832185D01*
X128530120Y-69962790D01*
X128563023Y-70009781D01*
X128720219Y-70166977D01*
X128724727Y-70170134D01*
X128724730Y-70170136D01*
X128800495Y-70223187D01*
X128902323Y-70294488D01*
X128907305Y-70296811D01*
X128907310Y-70296814D01*
X129012373Y-70345805D01*
X129065658Y-70392722D01*
X129085119Y-70460999D01*
X129064577Y-70528959D01*
X129012373Y-70574195D01*
X128907311Y-70623186D01*
X128907306Y-70623189D01*
X128902324Y-70625512D01*
X128897817Y-70628668D01*
X128897815Y-70628669D01*
X128724730Y-70749864D01*
X128724727Y-70749866D01*
X128720219Y-70753023D01*
X128563023Y-70910219D01*
X128435512Y-71092324D01*
X128433189Y-71097306D01*
X128433186Y-71097311D01*
X128343883Y-71288822D01*
X128341560Y-71293804D01*
X128284022Y-71508537D01*
X128264647Y-71730000D01*
X128284022Y-71951463D01*
X128341560Y-72166196D01*
X128343882Y-72171177D01*
X128343883Y-72171178D01*
X128433186Y-72362689D01*
X128433189Y-72362694D01*
X128435512Y-72367676D01*
X128438668Y-72372183D01*
X128438669Y-72372185D01*
X128559530Y-72544792D01*
X128563023Y-72549781D01*
X128720219Y-72706977D01*
X128724727Y-72710134D01*
X128724730Y-72710136D01*
X128800495Y-72763187D01*
X128902323Y-72834488D01*
X128907305Y-72836811D01*
X128907310Y-72836814D01*
X129012373Y-72885805D01*
X129065658Y-72932722D01*
X129085119Y-73000999D01*
X129064577Y-73068959D01*
X129012373Y-73114195D01*
X128907311Y-73163186D01*
X128907306Y-73163189D01*
X128902324Y-73165512D01*
X128897817Y-73168668D01*
X128897815Y-73168669D01*
X128724730Y-73289864D01*
X128724727Y-73289866D01*
X128720219Y-73293023D01*
X128563023Y-73450219D01*
X128435512Y-73632324D01*
X128433189Y-73637306D01*
X128433186Y-73637311D01*
X128343883Y-73828822D01*
X128341560Y-73833804D01*
X128284022Y-74048537D01*
X128264647Y-74270000D01*
X128284022Y-74491463D01*
X128341560Y-74706196D01*
X128343882Y-74711177D01*
X128343883Y-74711178D01*
X128433186Y-74902689D01*
X128433189Y-74902694D01*
X128435512Y-74907676D01*
X128438668Y-74912183D01*
X128438669Y-74912185D01*
X128530120Y-75042790D01*
X128563023Y-75089781D01*
X128720219Y-75246977D01*
X128724727Y-75250134D01*
X128724730Y-75250136D01*
X128800495Y-75303187D01*
X128902323Y-75374488D01*
X128907305Y-75376811D01*
X128907310Y-75376814D01*
X129012373Y-75425805D01*
X129065658Y-75472722D01*
X129085119Y-75540999D01*
X129064577Y-75608959D01*
X129012373Y-75654195D01*
X128907311Y-75703186D01*
X128907306Y-75703189D01*
X128902324Y-75705512D01*
X128897817Y-75708668D01*
X128897815Y-75708669D01*
X128724730Y-75829864D01*
X128724727Y-75829866D01*
X128720219Y-75833023D01*
X128563023Y-75990219D01*
X128435512Y-76172324D01*
X128433189Y-76177306D01*
X128433186Y-76177311D01*
X128343883Y-76368822D01*
X128341560Y-76373804D01*
X128284022Y-76588537D01*
X128264647Y-76810000D01*
X105415353Y-76810000D01*
X105395978Y-76588537D01*
X105338440Y-76373804D01*
X105336117Y-76368822D01*
X105246814Y-76177311D01*
X105246811Y-76177306D01*
X105244488Y-76172324D01*
X105116977Y-75990219D01*
X104959781Y-75833023D01*
X104955273Y-75829866D01*
X104955270Y-75829864D01*
X104850902Y-75756785D01*
X104777677Y-75705512D01*
X104772695Y-75703189D01*
X104772690Y-75703186D01*
X104667627Y-75654195D01*
X104614342Y-75607278D01*
X104594881Y-75539001D01*
X104615423Y-75471041D01*
X104667627Y-75425805D01*
X104772690Y-75376814D01*
X104772695Y-75376811D01*
X104777677Y-75374488D01*
X104879505Y-75303187D01*
X104955270Y-75250136D01*
X104955273Y-75250134D01*
X104959781Y-75246977D01*
X105116977Y-75089781D01*
X105149881Y-75042790D01*
X105241331Y-74912185D01*
X105241332Y-74912183D01*
X105244488Y-74907676D01*
X105246811Y-74902694D01*
X105246814Y-74902689D01*
X105336117Y-74711178D01*
X105336118Y-74711177D01*
X105338440Y-74706196D01*
X105395978Y-74491463D01*
X105415353Y-74270000D01*
X105395978Y-74048537D01*
X105338440Y-73833804D01*
X105336117Y-73828822D01*
X105246814Y-73637311D01*
X105246811Y-73637306D01*
X105244488Y-73632324D01*
X105116977Y-73450219D01*
X104959781Y-73293023D01*
X104955273Y-73289866D01*
X104955270Y-73289864D01*
X104879505Y-73236813D01*
X104777677Y-73165512D01*
X104772695Y-73163189D01*
X104772690Y-73163186D01*
X104667627Y-73114195D01*
X104614342Y-73067278D01*
X104594881Y-72999001D01*
X104615423Y-72931041D01*
X104667627Y-72885805D01*
X104772690Y-72836814D01*
X104772695Y-72836811D01*
X104777677Y-72834488D01*
X104879505Y-72763187D01*
X104955270Y-72710136D01*
X104955273Y-72710134D01*
X104959781Y-72706977D01*
X105116977Y-72549781D01*
X105120471Y-72544792D01*
X105241331Y-72372185D01*
X105241332Y-72372183D01*
X105244488Y-72367676D01*
X105246811Y-72362694D01*
X105246814Y-72362689D01*
X105336117Y-72171178D01*
X105336118Y-72171177D01*
X105338440Y-72166196D01*
X105395978Y-71951463D01*
X105415353Y-71730000D01*
X105395978Y-71508537D01*
X105338440Y-71293804D01*
X105336117Y-71288822D01*
X105246814Y-71097311D01*
X105246811Y-71097306D01*
X105244488Y-71092324D01*
X105116977Y-70910219D01*
X104959781Y-70753023D01*
X104955273Y-70749866D01*
X104955270Y-70749864D01*
X104850902Y-70676785D01*
X104777677Y-70625512D01*
X104772695Y-70623189D01*
X104772690Y-70623186D01*
X104667627Y-70574195D01*
X104614342Y-70527278D01*
X104594881Y-70459001D01*
X104615423Y-70391041D01*
X104667627Y-70345805D01*
X104772690Y-70296814D01*
X104772695Y-70296811D01*
X104777677Y-70294488D01*
X104879505Y-70223187D01*
X104955270Y-70170136D01*
X104955273Y-70170134D01*
X104959781Y-70166977D01*
X105116977Y-70009781D01*
X105149881Y-69962790D01*
X105241331Y-69832185D01*
X105241332Y-69832183D01*
X105244488Y-69827676D01*
X105246811Y-69822694D01*
X105246814Y-69822689D01*
X105336117Y-69631178D01*
X105336118Y-69631177D01*
X105338440Y-69626196D01*
X105395978Y-69411463D01*
X105415353Y-69190000D01*
X105395978Y-68968537D01*
X105338440Y-68753804D01*
X105336117Y-68748822D01*
X105246814Y-68557311D01*
X105246811Y-68557306D01*
X105244488Y-68552324D01*
X105116977Y-68370219D01*
X104959781Y-68213023D01*
X104955273Y-68209866D01*
X104955270Y-68209864D01*
X104879505Y-68156813D01*
X104777677Y-68085512D01*
X104772695Y-68083189D01*
X104772690Y-68083186D01*
X104667627Y-68034195D01*
X104614342Y-67987278D01*
X104594881Y-67919001D01*
X104615423Y-67851041D01*
X104667627Y-67805805D01*
X104772690Y-67756814D01*
X104772695Y-67756811D01*
X104777677Y-67754488D01*
X104879505Y-67683187D01*
X104955270Y-67630136D01*
X104955273Y-67630134D01*
X104959781Y-67626977D01*
X105116977Y-67469781D01*
X105120471Y-67464792D01*
X105241331Y-67292185D01*
X105241332Y-67292183D01*
X105244488Y-67287676D01*
X105246811Y-67282694D01*
X105246814Y-67282689D01*
X105336117Y-67091178D01*
X105336118Y-67091177D01*
X105338440Y-67086196D01*
X105395978Y-66871463D01*
X105415353Y-66650000D01*
X105395978Y-66428537D01*
X105338440Y-66213804D01*
X105336117Y-66208822D01*
X105246814Y-66017311D01*
X105246811Y-66017306D01*
X105244488Y-66012324D01*
X105116977Y-65830219D01*
X104959781Y-65673023D01*
X104955273Y-65669866D01*
X104955270Y-65669864D01*
X104850902Y-65596785D01*
X104777677Y-65545512D01*
X104772695Y-65543189D01*
X104772690Y-65543186D01*
X104667627Y-65494195D01*
X104614342Y-65447278D01*
X104594881Y-65379001D01*
X104615423Y-65311041D01*
X104667627Y-65265805D01*
X104772690Y-65216814D01*
X104772695Y-65216811D01*
X104777677Y-65214488D01*
X104879505Y-65143187D01*
X104955270Y-65090136D01*
X104955273Y-65090134D01*
X104959781Y-65086977D01*
X105116977Y-64929781D01*
X105149881Y-64882790D01*
X105241331Y-64752185D01*
X105241332Y-64752183D01*
X105244488Y-64747676D01*
X105246811Y-64742694D01*
X105246814Y-64742689D01*
X105336117Y-64551178D01*
X105336118Y-64551177D01*
X105338440Y-64546196D01*
X105395978Y-64331463D01*
X105415353Y-64110000D01*
X105395978Y-63888537D01*
X105338440Y-63673804D01*
X105336117Y-63668822D01*
X105246814Y-63477311D01*
X105246811Y-63477306D01*
X105244488Y-63472324D01*
X105116977Y-63290219D01*
X104959781Y-63133023D01*
X104955273Y-63129866D01*
X104955270Y-63129864D01*
X104879505Y-63076813D01*
X104777677Y-63005512D01*
X104772695Y-63003189D01*
X104772690Y-63003186D01*
X104667627Y-62954195D01*
X104614342Y-62907278D01*
X104594881Y-62839001D01*
X104615423Y-62771041D01*
X104667627Y-62725805D01*
X104772690Y-62676814D01*
X104772695Y-62676811D01*
X104777677Y-62674488D01*
X104879505Y-62603187D01*
X104955270Y-62550136D01*
X104955273Y-62550134D01*
X104959781Y-62546977D01*
X105116977Y-62389781D01*
X105244488Y-62207676D01*
X105246811Y-62202694D01*
X105246814Y-62202689D01*
X105336117Y-62011178D01*
X105336118Y-62011177D01*
X105338440Y-62006196D01*
X105395978Y-61791463D01*
X105415353Y-61570000D01*
X105395978Y-61348537D01*
X105338440Y-61133804D01*
X105336117Y-61128822D01*
X105246814Y-60937311D01*
X105246811Y-60937306D01*
X105244488Y-60932324D01*
X105116977Y-60750219D01*
X104959781Y-60593023D01*
X104955273Y-60589866D01*
X104955270Y-60589864D01*
X104879505Y-60536813D01*
X104777677Y-60465512D01*
X104772695Y-60463189D01*
X104772690Y-60463186D01*
X104667627Y-60414195D01*
X104614342Y-60367278D01*
X104594881Y-60299001D01*
X104615423Y-60231041D01*
X104667627Y-60185805D01*
X104772690Y-60136814D01*
X104772695Y-60136811D01*
X104777677Y-60134488D01*
X104879505Y-60063187D01*
X104955270Y-60010136D01*
X104955273Y-60010134D01*
X104959781Y-60006977D01*
X105116977Y-59849781D01*
X105244488Y-59667676D01*
X105246811Y-59662694D01*
X105246814Y-59662689D01*
X105336117Y-59471178D01*
X105336118Y-59471177D01*
X105338440Y-59466196D01*
X105395978Y-59251463D01*
X105415353Y-59030000D01*
X105395978Y-58808537D01*
X105338440Y-58593804D01*
X105336117Y-58588822D01*
X105246814Y-58397311D01*
X105246811Y-58397306D01*
X105244488Y-58392324D01*
X105116977Y-58210219D01*
X104959781Y-58053023D01*
X104955273Y-58049866D01*
X104955270Y-58049864D01*
X104841291Y-57970055D01*
X104777677Y-57925512D01*
X104772695Y-57923189D01*
X104772690Y-57923186D01*
X104667627Y-57874195D01*
X104614342Y-57827278D01*
X104594881Y-57759001D01*
X104615423Y-57691041D01*
X104667627Y-57645805D01*
X104772690Y-57596814D01*
X104772695Y-57596811D01*
X104777677Y-57594488D01*
X104879505Y-57523187D01*
X104955270Y-57470136D01*
X104955273Y-57470134D01*
X104959781Y-57466977D01*
X105116977Y-57309781D01*
X105226772Y-57152978D01*
X105241331Y-57132185D01*
X105241332Y-57132183D01*
X105244488Y-57127676D01*
X105246811Y-57122694D01*
X105246814Y-57122689D01*
X105336117Y-56931178D01*
X105336118Y-56931177D01*
X105338440Y-56926196D01*
X105395978Y-56711463D01*
X105415353Y-56490000D01*
X105395978Y-56268537D01*
X105338440Y-56053804D01*
X105336117Y-56048822D01*
X105246814Y-55857311D01*
X105246811Y-55857306D01*
X105244488Y-55852324D01*
X105116977Y-55670219D01*
X104959781Y-55513023D01*
X104955273Y-55509866D01*
X104955270Y-55509864D01*
X104879505Y-55456813D01*
X104777677Y-55385512D01*
X104772695Y-55383189D01*
X104772690Y-55383186D01*
X104667627Y-55334195D01*
X104614342Y-55287278D01*
X104594881Y-55219001D01*
X104615423Y-55151041D01*
X104667627Y-55105805D01*
X104772690Y-55056814D01*
X104772695Y-55056811D01*
X104777677Y-55054488D01*
X104944307Y-54937812D01*
X104955270Y-54930136D01*
X104955273Y-54930134D01*
X104959781Y-54926977D01*
X105116977Y-54769781D01*
X105159581Y-54708937D01*
X105241331Y-54592185D01*
X105241332Y-54592183D01*
X105244488Y-54587676D01*
X105246811Y-54582694D01*
X105246814Y-54582689D01*
X105336117Y-54391178D01*
X105336118Y-54391177D01*
X105338440Y-54386196D01*
X105395978Y-54171463D01*
X105415353Y-53950000D01*
X105395978Y-53728537D01*
X105338440Y-53513804D01*
X105336117Y-53508822D01*
X105246814Y-53317311D01*
X105246811Y-53317306D01*
X105244488Y-53312324D01*
X105116977Y-53130219D01*
X104959781Y-52973023D01*
X104955273Y-52969866D01*
X104955270Y-52969864D01*
X104879505Y-52916813D01*
X104777677Y-52845512D01*
X104772695Y-52843189D01*
X104772690Y-52843186D01*
X104667627Y-52794195D01*
X104614342Y-52747278D01*
X104594881Y-52679001D01*
X104615423Y-52611041D01*
X104667627Y-52565805D01*
X104772690Y-52516814D01*
X104772695Y-52516811D01*
X104777677Y-52514488D01*
X104879505Y-52443187D01*
X104955270Y-52390136D01*
X104955273Y-52390134D01*
X104959781Y-52386977D01*
X105116977Y-52229781D01*
X105244488Y-52047676D01*
X105246811Y-52042694D01*
X105246814Y-52042689D01*
X105336117Y-51851178D01*
X105336118Y-51851177D01*
X105338440Y-51846196D01*
X105395978Y-51631463D01*
X105415353Y-51410000D01*
X105395978Y-51188537D01*
X105338440Y-50973804D01*
X105336117Y-50968822D01*
X105246814Y-50777311D01*
X105246811Y-50777306D01*
X105244488Y-50772324D01*
X105116977Y-50590219D01*
X104959781Y-50433023D01*
X104955273Y-50429866D01*
X104955270Y-50429864D01*
X104879505Y-50376813D01*
X104777677Y-50305512D01*
X104772695Y-50303189D01*
X104772690Y-50303186D01*
X104667627Y-50254195D01*
X104614342Y-50207278D01*
X104594881Y-50139001D01*
X104615423Y-50071041D01*
X104667627Y-50025805D01*
X104772690Y-49976814D01*
X104772695Y-49976811D01*
X104777677Y-49974488D01*
X104879505Y-49903187D01*
X104955270Y-49850136D01*
X104955273Y-49850134D01*
X104959781Y-49846977D01*
X105116977Y-49689781D01*
X105244488Y-49507676D01*
X105246811Y-49502694D01*
X105246814Y-49502689D01*
X105336117Y-49311178D01*
X105336118Y-49311177D01*
X105338440Y-49306196D01*
X105395978Y-49091463D01*
X105415353Y-48870000D01*
X105395978Y-48648537D01*
X105338440Y-48433804D01*
X105336117Y-48428822D01*
X105246814Y-48237311D01*
X105246811Y-48237306D01*
X105244488Y-48232324D01*
X105116977Y-48050219D01*
X104959781Y-47893023D01*
X104955273Y-47889866D01*
X104955270Y-47889864D01*
X104869365Y-47829713D01*
X104825037Y-47774256D01*
X104817728Y-47703637D01*
X104849759Y-47640276D01*
X104910960Y-47604291D01*
X104941636Y-47600500D01*
X104950134Y-47600500D01*
X105012316Y-47593745D01*
X105148705Y-47542615D01*
X105265261Y-47455261D01*
X105352615Y-47338705D01*
X105403745Y-47202316D01*
X105410500Y-47140134D01*
X105410500Y-45519866D01*
X105403745Y-45457684D01*
X105352615Y-45321295D01*
X105265261Y-45204739D01*
X105148705Y-45117385D01*
X105012316Y-45066255D01*
X104950134Y-45059500D01*
X103329866Y-45059500D01*
X103267684Y-45066255D01*
X103131295Y-45117385D01*
X103014739Y-45204739D01*
X102927385Y-45321295D01*
X102876255Y-45457684D01*
X102869500Y-45519866D01*
X102869500Y-47140134D01*
X102876255Y-47202316D01*
X102927385Y-47338705D01*
X103014739Y-47455261D01*
X103131295Y-47542615D01*
X103267684Y-47593745D01*
X103329866Y-47600500D01*
X103338364Y-47600500D01*
X103406485Y-47620502D01*
X103452978Y-47674158D01*
X103463082Y-47744432D01*
X103433588Y-47809012D01*
X103410635Y-47829713D01*
X103324730Y-47889864D01*
X103324727Y-47889866D01*
X103320219Y-47893023D01*
X103163023Y-48050219D01*
X103035512Y-48232324D01*
X103033189Y-48237306D01*
X103033186Y-48237311D01*
X102943883Y-48428822D01*
X102941560Y-48433804D01*
X102884022Y-48648537D01*
X102864647Y-48870000D01*
X102884022Y-49091463D01*
X102941560Y-49306196D01*
X102943882Y-49311177D01*
X102943883Y-49311178D01*
X103033186Y-49502689D01*
X103033189Y-49502694D01*
X103035512Y-49507676D01*
X103163023Y-49689781D01*
X103320219Y-49846977D01*
X103324727Y-49850134D01*
X103324730Y-49850136D01*
X103400495Y-49903187D01*
X103502323Y-49974488D01*
X103507305Y-49976811D01*
X103507310Y-49976814D01*
X103612373Y-50025805D01*
X103665658Y-50072722D01*
X103685119Y-50140999D01*
X103664577Y-50208959D01*
X103612373Y-50254195D01*
X103507311Y-50303186D01*
X103507306Y-50303189D01*
X103502324Y-50305512D01*
X103497817Y-50308668D01*
X103497815Y-50308669D01*
X103324730Y-50429864D01*
X103324727Y-50429866D01*
X103320219Y-50433023D01*
X103163023Y-50590219D01*
X103035512Y-50772324D01*
X103033189Y-50777306D01*
X103033186Y-50777311D01*
X102943883Y-50968822D01*
X102941560Y-50973804D01*
X102884022Y-51188537D01*
X102864647Y-51410000D01*
X102884022Y-51631463D01*
X102941560Y-51846196D01*
X102943882Y-51851177D01*
X102943883Y-51851178D01*
X103033186Y-52042689D01*
X103033189Y-52042694D01*
X103035512Y-52047676D01*
X103163023Y-52229781D01*
X103320219Y-52386977D01*
X103324727Y-52390134D01*
X103324730Y-52390136D01*
X103400495Y-52443187D01*
X103502323Y-52514488D01*
X103507305Y-52516811D01*
X103507310Y-52516814D01*
X103612373Y-52565805D01*
X103665658Y-52612722D01*
X103685119Y-52680999D01*
X103664577Y-52748959D01*
X103612373Y-52794195D01*
X103507311Y-52843186D01*
X103507306Y-52843189D01*
X103502324Y-52845512D01*
X103497817Y-52848668D01*
X103497815Y-52848669D01*
X103324730Y-52969864D01*
X103324727Y-52969866D01*
X103320219Y-52973023D01*
X103163023Y-53130219D01*
X103035512Y-53312324D01*
X103033189Y-53317306D01*
X103033186Y-53317311D01*
X102943883Y-53508822D01*
X102941560Y-53513804D01*
X102884022Y-53728537D01*
X102864647Y-53950000D01*
X102884022Y-54171463D01*
X102941560Y-54386196D01*
X102943882Y-54391177D01*
X102943883Y-54391178D01*
X103033186Y-54582689D01*
X103033189Y-54582694D01*
X103035512Y-54587676D01*
X103038668Y-54592183D01*
X103038669Y-54592185D01*
X103120420Y-54708937D01*
X103163023Y-54769781D01*
X103320219Y-54926977D01*
X103324727Y-54930134D01*
X103324730Y-54930136D01*
X103335693Y-54937812D01*
X103502323Y-55054488D01*
X103507305Y-55056811D01*
X103507310Y-55056814D01*
X103612373Y-55105805D01*
X103665658Y-55152722D01*
X103685119Y-55220999D01*
X103664577Y-55288959D01*
X103612373Y-55334195D01*
X103507311Y-55383186D01*
X103507306Y-55383189D01*
X103502324Y-55385512D01*
X103497817Y-55388668D01*
X103497815Y-55388669D01*
X103324730Y-55509864D01*
X103324727Y-55509866D01*
X103320219Y-55513023D01*
X103163023Y-55670219D01*
X103035512Y-55852324D01*
X103033189Y-55857306D01*
X103033186Y-55857311D01*
X102943883Y-56048822D01*
X102941560Y-56053804D01*
X102884022Y-56268537D01*
X102864647Y-56490000D01*
X102884022Y-56711463D01*
X102941560Y-56926196D01*
X102943882Y-56931177D01*
X102943883Y-56931178D01*
X103033186Y-57122689D01*
X103033189Y-57122694D01*
X103035512Y-57127676D01*
X103038668Y-57132183D01*
X103038669Y-57132185D01*
X103053229Y-57152978D01*
X103163023Y-57309781D01*
X103320219Y-57466977D01*
X103324727Y-57470134D01*
X103324730Y-57470136D01*
X103400495Y-57523187D01*
X103502323Y-57594488D01*
X103507305Y-57596811D01*
X103507310Y-57596814D01*
X103612373Y-57645805D01*
X103665658Y-57692722D01*
X103685119Y-57760999D01*
X103664577Y-57828959D01*
X103612373Y-57874195D01*
X103507311Y-57923186D01*
X103507306Y-57923189D01*
X103502324Y-57925512D01*
X103497817Y-57928668D01*
X103497815Y-57928669D01*
X103324730Y-58049864D01*
X103324727Y-58049866D01*
X103320219Y-58053023D01*
X103163023Y-58210219D01*
X103035512Y-58392324D01*
X103033189Y-58397306D01*
X103033186Y-58397311D01*
X102943883Y-58588822D01*
X102941560Y-58593804D01*
X102884022Y-58808537D01*
X102864647Y-59030000D01*
X102884022Y-59251463D01*
X102941560Y-59466196D01*
X102943882Y-59471177D01*
X102943883Y-59471178D01*
X103033186Y-59662689D01*
X103033189Y-59662694D01*
X103035512Y-59667676D01*
X103163023Y-59849781D01*
X103320219Y-60006977D01*
X103324727Y-60010134D01*
X103324730Y-60010136D01*
X103400495Y-60063187D01*
X103502323Y-60134488D01*
X103507305Y-60136811D01*
X103507310Y-60136814D01*
X103612373Y-60185805D01*
X103665658Y-60232722D01*
X103685119Y-60300999D01*
X103664577Y-60368959D01*
X103612373Y-60414195D01*
X103507311Y-60463186D01*
X103507306Y-60463189D01*
X103502324Y-60465512D01*
X103497817Y-60468668D01*
X103497815Y-60468669D01*
X103324730Y-60589864D01*
X103324727Y-60589866D01*
X103320219Y-60593023D01*
X103163023Y-60750219D01*
X103035512Y-60932324D01*
X103033189Y-60937306D01*
X103033186Y-60937311D01*
X102943883Y-61128822D01*
X102941560Y-61133804D01*
X102884022Y-61348537D01*
X102864647Y-61570000D01*
X102884022Y-61791463D01*
X102941560Y-62006196D01*
X102943882Y-62011177D01*
X102943883Y-62011178D01*
X103033186Y-62202689D01*
X103033189Y-62202694D01*
X103035512Y-62207676D01*
X103163023Y-62389781D01*
X103320219Y-62546977D01*
X103324727Y-62550134D01*
X103324730Y-62550136D01*
X103400495Y-62603187D01*
X103502323Y-62674488D01*
X103507305Y-62676811D01*
X103507310Y-62676814D01*
X103612373Y-62725805D01*
X103665658Y-62772722D01*
X103685119Y-62840999D01*
X103664577Y-62908959D01*
X103612373Y-62954195D01*
X103507311Y-63003186D01*
X103507306Y-63003189D01*
X103502324Y-63005512D01*
X103497817Y-63008668D01*
X103497815Y-63008669D01*
X103324730Y-63129864D01*
X103324727Y-63129866D01*
X103320219Y-63133023D01*
X103163023Y-63290219D01*
X103035512Y-63472324D01*
X103033189Y-63477306D01*
X103033186Y-63477311D01*
X102943883Y-63668822D01*
X102941560Y-63673804D01*
X102884022Y-63888537D01*
X102864647Y-64110000D01*
X102884022Y-64331463D01*
X102941560Y-64546196D01*
X102943882Y-64551177D01*
X102943883Y-64551178D01*
X103033186Y-64742689D01*
X103033189Y-64742694D01*
X103035512Y-64747676D01*
X103038668Y-64752183D01*
X103038669Y-64752185D01*
X103130120Y-64882790D01*
X103163023Y-64929781D01*
X103320219Y-65086977D01*
X103324727Y-65090134D01*
X103324730Y-65090136D01*
X103400495Y-65143187D01*
X103502323Y-65214488D01*
X103507305Y-65216811D01*
X103507310Y-65216814D01*
X103612373Y-65265805D01*
X103665658Y-65312722D01*
X103685119Y-65380999D01*
X103664577Y-65448959D01*
X103612373Y-65494195D01*
X103507311Y-65543186D01*
X103507306Y-65543189D01*
X103502324Y-65545512D01*
X103497817Y-65548668D01*
X103497815Y-65548669D01*
X103324730Y-65669864D01*
X103324727Y-65669866D01*
X103320219Y-65673023D01*
X103163023Y-65830219D01*
X103035512Y-66012324D01*
X103033189Y-66017306D01*
X103033186Y-66017311D01*
X102943883Y-66208822D01*
X102941560Y-66213804D01*
X102884022Y-66428537D01*
X102864647Y-66650000D01*
X102884022Y-66871463D01*
X102941560Y-67086196D01*
X102943882Y-67091177D01*
X102943883Y-67091178D01*
X103033186Y-67282689D01*
X103033189Y-67282694D01*
X103035512Y-67287676D01*
X103038668Y-67292183D01*
X103038669Y-67292185D01*
X103159530Y-67464792D01*
X103163023Y-67469781D01*
X103320219Y-67626977D01*
X103324727Y-67630134D01*
X103324730Y-67630136D01*
X103400495Y-67683187D01*
X103502323Y-67754488D01*
X103507305Y-67756811D01*
X103507310Y-67756814D01*
X103612373Y-67805805D01*
X103665658Y-67852722D01*
X103685119Y-67920999D01*
X103664577Y-67988959D01*
X103612373Y-68034195D01*
X103507311Y-68083186D01*
X103507306Y-68083189D01*
X103502324Y-68085512D01*
X103497817Y-68088668D01*
X103497815Y-68088669D01*
X103324730Y-68209864D01*
X103324727Y-68209866D01*
X103320219Y-68213023D01*
X103163023Y-68370219D01*
X103035512Y-68552324D01*
X103033189Y-68557306D01*
X103033186Y-68557311D01*
X102943883Y-68748822D01*
X102941560Y-68753804D01*
X102884022Y-68968537D01*
X102864647Y-69190000D01*
X102884022Y-69411463D01*
X102941560Y-69626196D01*
X102943882Y-69631177D01*
X102943883Y-69631178D01*
X103033186Y-69822689D01*
X103033189Y-69822694D01*
X103035512Y-69827676D01*
X103038668Y-69832183D01*
X103038669Y-69832185D01*
X103130120Y-69962790D01*
X103163023Y-70009781D01*
X103320219Y-70166977D01*
X103324727Y-70170134D01*
X103324730Y-70170136D01*
X103400495Y-70223187D01*
X103502323Y-70294488D01*
X103507305Y-70296811D01*
X103507310Y-70296814D01*
X103612373Y-70345805D01*
X103665658Y-70392722D01*
X103685119Y-70460999D01*
X103664577Y-70528959D01*
X103612373Y-70574195D01*
X103507311Y-70623186D01*
X103507306Y-70623189D01*
X103502324Y-70625512D01*
X103497817Y-70628668D01*
X103497815Y-70628669D01*
X103324730Y-70749864D01*
X103324727Y-70749866D01*
X103320219Y-70753023D01*
X103163023Y-70910219D01*
X103035512Y-71092324D01*
X103033189Y-71097306D01*
X103033186Y-71097311D01*
X102943883Y-71288822D01*
X102941560Y-71293804D01*
X102884022Y-71508537D01*
X102864647Y-71730000D01*
X102884022Y-71951463D01*
X102941560Y-72166196D01*
X102943882Y-72171177D01*
X102943883Y-72171178D01*
X103033186Y-72362689D01*
X103033189Y-72362694D01*
X103035512Y-72367676D01*
X103038668Y-72372183D01*
X103038669Y-72372185D01*
X103159530Y-72544792D01*
X103163023Y-72549781D01*
X103320219Y-72706977D01*
X103324727Y-72710134D01*
X103324730Y-72710136D01*
X103400495Y-72763187D01*
X103502323Y-72834488D01*
X103507305Y-72836811D01*
X103507310Y-72836814D01*
X103612373Y-72885805D01*
X103665658Y-72932722D01*
X103685119Y-73000999D01*
X103664577Y-73068959D01*
X103612373Y-73114195D01*
X103507311Y-73163186D01*
X103507306Y-73163189D01*
X103502324Y-73165512D01*
X103497817Y-73168668D01*
X103497815Y-73168669D01*
X103324730Y-73289864D01*
X103324727Y-73289866D01*
X103320219Y-73293023D01*
X103163023Y-73450219D01*
X103035512Y-73632324D01*
X103033189Y-73637306D01*
X103033186Y-73637311D01*
X102943883Y-73828822D01*
X102941560Y-73833804D01*
X102884022Y-74048537D01*
X102864647Y-74270000D01*
X102884022Y-74491463D01*
X102941560Y-74706196D01*
X102943882Y-74711177D01*
X102943883Y-74711178D01*
X103033186Y-74902689D01*
X103033189Y-74902694D01*
X103035512Y-74907676D01*
X103038668Y-74912183D01*
X103038669Y-74912185D01*
X103130120Y-75042790D01*
X103163023Y-75089781D01*
X103320219Y-75246977D01*
X103324727Y-75250134D01*
X103324730Y-75250136D01*
X103400495Y-75303187D01*
X103502323Y-75374488D01*
X103507305Y-75376811D01*
X103507310Y-75376814D01*
X103612373Y-75425805D01*
X103665658Y-75472722D01*
X103685119Y-75540999D01*
X103664577Y-75608959D01*
X103612373Y-75654195D01*
X103507311Y-75703186D01*
X103507306Y-75703189D01*
X103502324Y-75705512D01*
X103497817Y-75708668D01*
X103497815Y-75708669D01*
X103324730Y-75829864D01*
X103324727Y-75829866D01*
X103320219Y-75833023D01*
X103163023Y-75990219D01*
X103035512Y-76172324D01*
X103033189Y-76177306D01*
X103033186Y-76177311D01*
X102943883Y-76368822D01*
X102941560Y-76373804D01*
X102884022Y-76588537D01*
X102864647Y-76810000D01*
X58064011Y-76810000D01*
X58128034Y-76643215D01*
X58130885Y-76633526D01*
X58164685Y-76471736D01*
X58163562Y-76457675D01*
X58153454Y-76454000D01*
X56152115Y-76454000D01*
X56136876Y-76458475D01*
X56135671Y-76459865D01*
X56134000Y-76467548D01*
X56134000Y-77729885D01*
X55626000Y-77729885D01*
X55626000Y-76472115D01*
X55621525Y-76456876D01*
X55620135Y-76455671D01*
X55612452Y-76454000D01*
X53609142Y-76454000D01*
X53595056Y-76458136D01*
X53593007Y-76471114D01*
X30988500Y-76471114D01*
X30988500Y-75928264D01*
X53595315Y-75928264D01*
X53596438Y-75942325D01*
X53606546Y-75946000D01*
X55607885Y-75946000D01*
X55623124Y-75941525D01*
X55624329Y-75940135D01*
X55626000Y-75932452D01*
X55626000Y-75927885D01*
X56134000Y-75927885D01*
X56138475Y-75943124D01*
X56139865Y-75944329D01*
X56147548Y-75946000D01*
X58150858Y-75946000D01*
X58164944Y-75941864D01*
X58166993Y-75928886D01*
X58164040Y-75903369D01*
X58162081Y-75893479D01*
X58097011Y-75663524D01*
X58093497Y-75654073D01*
X57992494Y-75437472D01*
X57987515Y-75428708D01*
X57853186Y-75231049D01*
X57846862Y-75223185D01*
X57682664Y-75049549D01*
X57675157Y-75042790D01*
X57485312Y-74897643D01*
X57476833Y-74892179D01*
X57266217Y-74779248D01*
X57256971Y-74775208D01*
X57031013Y-74697404D01*
X57021232Y-74694893D01*
X56784666Y-74654031D01*
X56776794Y-74653176D01*
X56752315Y-74652064D01*
X56749482Y-74652000D01*
X56152115Y-74652000D01*
X56136876Y-74656475D01*
X56135671Y-74657865D01*
X56134000Y-74665548D01*
X56134000Y-75927885D01*
X55626000Y-75927885D01*
X55626000Y-74670115D01*
X55621525Y-74654876D01*
X55620135Y-74653671D01*
X55612452Y-74652000D01*
X55059928Y-74652000D01*
X55054896Y-74652202D01*
X54876741Y-74666536D01*
X54866788Y-74668148D01*
X54634700Y-74725154D01*
X54625130Y-74728337D01*
X54405140Y-74821718D01*
X54396201Y-74826392D01*
X54193976Y-74953739D01*
X54185901Y-74959780D01*
X54006632Y-75117827D01*
X53999629Y-75125079D01*
X53847938Y-75309750D01*
X53842182Y-75318033D01*
X53721969Y-75524579D01*
X53717607Y-75533684D01*
X53631966Y-75756785D01*
X53629115Y-75766474D01*
X53595315Y-75928264D01*
X30988500Y-75928264D01*
X30988500Y-71391114D01*
X53593007Y-71391114D01*
X53595960Y-71416631D01*
X53597919Y-71426521D01*
X53662989Y-71656476D01*
X53666503Y-71665927D01*
X53767506Y-71882528D01*
X53772485Y-71891292D01*
X53906814Y-72088951D01*
X53913138Y-72096815D01*
X54077336Y-72270451D01*
X54084843Y-72277210D01*
X54274688Y-72422357D01*
X54283167Y-72427821D01*
X54493783Y-72540752D01*
X54503029Y-72544792D01*
X54728987Y-72622596D01*
X54738768Y-72625107D01*
X54975334Y-72665969D01*
X54983206Y-72666824D01*
X55007685Y-72667936D01*
X55010518Y-72668000D01*
X55607885Y-72668000D01*
X55623124Y-72663525D01*
X55624329Y-72662135D01*
X55626000Y-72654452D01*
X55626000Y-72649885D01*
X56134000Y-72649885D01*
X56138475Y-72665124D01*
X56139865Y-72666329D01*
X56147548Y-72668000D01*
X56700072Y-72668000D01*
X56705104Y-72667798D01*
X56883259Y-72653464D01*
X56893212Y-72651852D01*
X57125300Y-72594846D01*
X57134870Y-72591663D01*
X57354860Y-72498282D01*
X57363799Y-72493608D01*
X57566024Y-72366261D01*
X57574099Y-72360220D01*
X57753368Y-72202173D01*
X57760371Y-72194921D01*
X57912062Y-72010250D01*
X57917818Y-72001967D01*
X58038031Y-71795421D01*
X58042393Y-71786316D01*
X58128034Y-71563215D01*
X58130885Y-71553526D01*
X58164685Y-71391736D01*
X58163562Y-71377675D01*
X58153454Y-71374000D01*
X56152115Y-71374000D01*
X56136876Y-71378475D01*
X56135671Y-71379865D01*
X56134000Y-71387548D01*
X56134000Y-72649885D01*
X55626000Y-72649885D01*
X55626000Y-71392115D01*
X55621525Y-71376876D01*
X55620135Y-71375671D01*
X55612452Y-71374000D01*
X53609142Y-71374000D01*
X53595056Y-71378136D01*
X53593007Y-71391114D01*
X30988500Y-71391114D01*
X30988500Y-70848264D01*
X53595315Y-70848264D01*
X53596438Y-70862325D01*
X53606546Y-70866000D01*
X55607885Y-70866000D01*
X55623124Y-70861525D01*
X55624329Y-70860135D01*
X55626000Y-70852452D01*
X55626000Y-70847885D01*
X56134000Y-70847885D01*
X56138475Y-70863124D01*
X56139865Y-70864329D01*
X56147548Y-70866000D01*
X58150858Y-70866000D01*
X58164944Y-70861864D01*
X58166993Y-70848886D01*
X58164040Y-70823369D01*
X58162081Y-70813479D01*
X58097011Y-70583524D01*
X58093497Y-70574073D01*
X57992494Y-70357472D01*
X57987515Y-70348708D01*
X57853186Y-70151049D01*
X57846862Y-70143185D01*
X57682664Y-69969549D01*
X57675157Y-69962790D01*
X57485312Y-69817643D01*
X57476833Y-69812179D01*
X57266217Y-69699248D01*
X57256971Y-69695208D01*
X57031013Y-69617404D01*
X57021232Y-69614893D01*
X56784666Y-69574031D01*
X56776794Y-69573176D01*
X56752315Y-69572064D01*
X56749482Y-69572000D01*
X56152115Y-69572000D01*
X56136876Y-69576475D01*
X56135671Y-69577865D01*
X56134000Y-69585548D01*
X56134000Y-70847885D01*
X55626000Y-70847885D01*
X55626000Y-69590115D01*
X55621525Y-69574876D01*
X55620135Y-69573671D01*
X55612452Y-69572000D01*
X55059928Y-69572000D01*
X55054896Y-69572202D01*
X54876741Y-69586536D01*
X54866788Y-69588148D01*
X54634700Y-69645154D01*
X54625130Y-69648337D01*
X54405140Y-69741718D01*
X54396201Y-69746392D01*
X54193976Y-69873739D01*
X54185901Y-69879780D01*
X54006632Y-70037827D01*
X53999629Y-70045079D01*
X53847938Y-70229750D01*
X53842182Y-70238033D01*
X53721969Y-70444579D01*
X53717607Y-70453684D01*
X53631966Y-70676785D01*
X53629115Y-70686474D01*
X53595315Y-70848264D01*
X30988500Y-70848264D01*
X30988500Y-66311114D01*
X53593007Y-66311114D01*
X53595960Y-66336631D01*
X53597919Y-66346521D01*
X53662989Y-66576476D01*
X53666503Y-66585927D01*
X53767506Y-66802528D01*
X53772485Y-66811292D01*
X53906814Y-67008951D01*
X53913138Y-67016815D01*
X54077336Y-67190451D01*
X54084843Y-67197210D01*
X54274688Y-67342357D01*
X54283167Y-67347821D01*
X54493783Y-67460752D01*
X54503029Y-67464792D01*
X54728987Y-67542596D01*
X54738768Y-67545107D01*
X54975334Y-67585969D01*
X54983206Y-67586824D01*
X55007685Y-67587936D01*
X55010518Y-67588000D01*
X55607885Y-67588000D01*
X55623124Y-67583525D01*
X55624329Y-67582135D01*
X55626000Y-67574452D01*
X55626000Y-67569885D01*
X56134000Y-67569885D01*
X56138475Y-67585124D01*
X56139865Y-67586329D01*
X56147548Y-67588000D01*
X56700072Y-67588000D01*
X56705104Y-67587798D01*
X56883259Y-67573464D01*
X56893212Y-67571852D01*
X57125300Y-67514846D01*
X57134870Y-67511663D01*
X57354860Y-67418282D01*
X57363799Y-67413608D01*
X57566024Y-67286261D01*
X57574099Y-67280220D01*
X57753368Y-67122173D01*
X57760371Y-67114921D01*
X57912062Y-66930250D01*
X57917818Y-66921967D01*
X58038031Y-66715421D01*
X58042393Y-66706316D01*
X58128034Y-66483215D01*
X58130885Y-66473526D01*
X58164685Y-66311736D01*
X58163562Y-66297675D01*
X58153454Y-66294000D01*
X56152115Y-66294000D01*
X56136876Y-66298475D01*
X56135671Y-66299865D01*
X56134000Y-66307548D01*
X56134000Y-67569885D01*
X55626000Y-67569885D01*
X55626000Y-66312115D01*
X55621525Y-66296876D01*
X55620135Y-66295671D01*
X55612452Y-66294000D01*
X53609142Y-66294000D01*
X53595056Y-66298136D01*
X53593007Y-66311114D01*
X30988500Y-66311114D01*
X30988500Y-65768264D01*
X53595315Y-65768264D01*
X53596438Y-65782325D01*
X53606546Y-65786000D01*
X55607885Y-65786000D01*
X55623124Y-65781525D01*
X55624329Y-65780135D01*
X55626000Y-65772452D01*
X55626000Y-65767885D01*
X56134000Y-65767885D01*
X56138475Y-65783124D01*
X56139865Y-65784329D01*
X56147548Y-65786000D01*
X58150858Y-65786000D01*
X58164944Y-65781864D01*
X58166993Y-65768886D01*
X58164040Y-65743369D01*
X58162081Y-65733479D01*
X58097011Y-65503524D01*
X58093497Y-65494073D01*
X57992494Y-65277472D01*
X57987515Y-65268708D01*
X57853186Y-65071049D01*
X57846862Y-65063185D01*
X57682664Y-64889549D01*
X57675157Y-64882790D01*
X57485312Y-64737643D01*
X57476833Y-64732179D01*
X57266217Y-64619248D01*
X57256971Y-64615208D01*
X57031013Y-64537404D01*
X57021232Y-64534893D01*
X56784666Y-64494031D01*
X56776794Y-64493176D01*
X56752315Y-64492064D01*
X56749482Y-64492000D01*
X56152115Y-64492000D01*
X56136876Y-64496475D01*
X56135671Y-64497865D01*
X56134000Y-64505548D01*
X56134000Y-65767885D01*
X55626000Y-65767885D01*
X55626000Y-64510115D01*
X55621525Y-64494876D01*
X55620135Y-64493671D01*
X55612452Y-64492000D01*
X55059928Y-64492000D01*
X55054896Y-64492202D01*
X54876741Y-64506536D01*
X54866788Y-64508148D01*
X54634700Y-64565154D01*
X54625130Y-64568337D01*
X54405140Y-64661718D01*
X54396201Y-64666392D01*
X54193976Y-64793739D01*
X54185901Y-64799780D01*
X54006632Y-64957827D01*
X53999629Y-64965079D01*
X53847938Y-65149750D01*
X53842182Y-65158033D01*
X53721969Y-65364579D01*
X53717607Y-65373684D01*
X53631966Y-65596785D01*
X53629115Y-65606474D01*
X53595315Y-65768264D01*
X30988500Y-65768264D01*
X30988500Y-26034500D01*
X31008502Y-25966379D01*
X31062158Y-25919886D01*
X31114500Y-25908500D01*
X34502147Y-25908500D01*
X34570268Y-25928502D01*
G37*
%TD.AperFunction*%
M02*
