M48
; DRILL file {KiCad (6.0.11-0)} date Monday, March 27, 2023 at 04:41:53 PM
; FORMAT={-:-/ absolute / metric / decimal}
; #@! TF.CreationDate,2023-03-27T16:41:53-06:00
; #@! TF.GenerationSoftware,Kicad,Pcbnew,(6.0.11-0)
; #@! TF.FileFunction,Plated,1,2,PTH
FMAT,2
METRIC
; #@! TA.AperFunction,Plated,PTH,ComponentDrill
T1C0.762
; #@! TA.AperFunction,Plated,PTH,ComponentDrill
T2C1.000
; #@! TA.AperFunction,Plated,PTH,ComponentDrill
T3C1.200
; #@! TA.AperFunction,Plated,PTH,ComponentDrill
T4C1.400
%
G90
G05
T1
X104.14Y-46.33
X104.14Y-48.87
X104.14Y-51.41
X104.14Y-53.95
X104.14Y-56.49
X104.14Y-59.03
X104.14Y-61.57
X104.14Y-64.11
X104.14Y-66.65
X104.14Y-69.19
X104.14Y-71.73
X104.14Y-74.27
X104.14Y-76.81
X104.14Y-79.35
X104.14Y-81.89
X129.54Y-46.33
X129.54Y-48.87
X129.54Y-51.41
X129.54Y-53.95
X129.54Y-56.49
X129.54Y-59.03
X129.54Y-61.57
X129.54Y-64.11
X129.54Y-66.65
X129.54Y-69.19
X129.54Y-71.73
X129.54Y-74.27
X129.54Y-76.81
X129.54Y-79.35
X129.54Y-81.89
T2
X72.625Y-81.515
X72.625Y-94.215
X75.165Y-86.595
T3
X68.58Y-111.76
X68.58Y-137.16
X82.301Y-106.418
X84.841Y-106.418
X87.381Y-106.418
X89.921Y-106.418
X92.461Y-106.418
X95.001Y-106.418
X97.541Y-106.418
X100.081Y-106.418
X102.621Y-106.418
X105.161Y-106.418
X107.701Y-106.418
X110.241Y-106.418
X112.781Y-106.418
X115.321Y-106.418
X117.861Y-106.418
X120.401Y-106.418
T4
X55.88Y-66.04
X55.88Y-71.12
X55.88Y-76.2
X55.88Y-81.28
X55.88Y-86.36
X55.88Y-91.44
T0
M30
