%TF.GenerationSoftware,KiCad,Pcbnew,(6.0.11-0)*%
%TF.CreationDate,2023-03-27T16:41:50-06:00*%
%TF.ProjectId,LCD,4c43442e-6b69-4636-9164-5f7063625858,rev?*%
%TF.SameCoordinates,Original*%
%TF.FileFunction,Legend,Bot*%
%TF.FilePolarity,Positive*%
%FSLAX46Y46*%
G04 Gerber Fmt 4.6, Leading zero omitted, Abs format (unit mm)*
G04 Created by KiCad (PCBNEW (6.0.11-0)) date 2023-03-27 16:41:50*
%MOMM*%
%LPD*%
G01*
G04 APERTURE LIST*
G04 Aperture macros list*
%AMRoundRect*
0 Rectangle with rounded corners*
0 $1 Rounding radius*
0 $2 $3 $4 $5 $6 $7 $8 $9 X,Y pos of 4 corners*
0 Add a 4 corners polygon primitive as box body*
4,1,4,$2,$3,$4,$5,$6,$7,$8,$9,$2,$3,0*
0 Add four circle primitives for the rounded corners*
1,1,$1+$1,$2,$3*
1,1,$1+$1,$4,$5*
1,1,$1+$1,$6,$7*
1,1,$1+$1,$8,$9*
0 Add four rect primitives between the rounded corners*
20,1,$1+$1,$2,$3,$4,$5,0*
20,1,$1+$1,$4,$5,$6,$7,0*
20,1,$1+$1,$6,$7,$8,$9,0*
20,1,$1+$1,$8,$9,$2,$3,0*%
G04 Aperture macros list end*
%ADD10C,3.230000*%
%ADD11C,1.800000*%
%ADD12RoundRect,0.249999X1.550001X-0.790001X1.550001X0.790001X-1.550001X0.790001X-1.550001X-0.790001X0*%
%ADD13O,3.600000X2.080000*%
%ADD14O,1.800000X2.600000*%
%ADD15R,1.524000X1.524000*%
%ADD16C,1.524000*%
%ADD17C,2.400000*%
%ADD18O,2.400000X2.400000*%
G04 APERTURE END LIST*
%LPC*%
D10*
X182880000Y-27940000D03*
D11*
X72625000Y-94215000D03*
X75165000Y-86595000D03*
X72625000Y-81515000D03*
D12*
X55880000Y-91440000D03*
D13*
X55880000Y-86360000D03*
X55880000Y-81280000D03*
X55880000Y-76200000D03*
X55880000Y-71120000D03*
X55880000Y-66040000D03*
D10*
X182880000Y-86360000D03*
X182880000Y-55920000D03*
D14*
X82301080Y-106418380D03*
X84841080Y-106418380D03*
X87381080Y-106418380D03*
X89921080Y-106418380D03*
X92461080Y-106418380D03*
X95001080Y-106418380D03*
X97541080Y-106418380D03*
X100081080Y-106418380D03*
X102621080Y-106418380D03*
X105161080Y-106418380D03*
X107701080Y-106418380D03*
X110241080Y-106418380D03*
X112781080Y-106418380D03*
X115321080Y-106418380D03*
X117861080Y-106418380D03*
X120401080Y-106418380D03*
D10*
X35560000Y-152480000D03*
D15*
X104140000Y-46330000D03*
D16*
X104140000Y-48870000D03*
X104140000Y-51410000D03*
X104140000Y-53950000D03*
X104140000Y-56490000D03*
X104140000Y-59030000D03*
X104140000Y-61570000D03*
X104140000Y-64110000D03*
X104140000Y-66650000D03*
X104140000Y-69190000D03*
X104140000Y-71730000D03*
X104140000Y-74270000D03*
X104140000Y-76810000D03*
X104140000Y-79350000D03*
X104140000Y-81890000D03*
X129540000Y-81890000D03*
X129540000Y-79350000D03*
X129540000Y-76810000D03*
X129540000Y-74270000D03*
X129540000Y-71730000D03*
X129540000Y-69190000D03*
X129540000Y-66650000D03*
X129540000Y-64110000D03*
X129540000Y-61570000D03*
X129540000Y-59030000D03*
X129540000Y-56490000D03*
X129540000Y-53950000D03*
X129540000Y-51410000D03*
X129540000Y-48870000D03*
X129540000Y-46330000D03*
D17*
X68580000Y-111760000D03*
D18*
X68580000Y-137160000D03*
D10*
X182880000Y-152440000D03*
X35560000Y-28020000D03*
M02*
