%TF.GenerationSoftware,KiCad,Pcbnew,(6.0.11-0)*%
%TF.CreationDate,2023-03-27T16:41:50-06:00*%
%TF.ProjectId,LCD,4c43442e-6b69-4636-9164-5f7063625858,rev?*%
%TF.SameCoordinates,Original*%
%TF.FileFunction,Legend,Top*%
%TF.FilePolarity,Positive*%
%FSLAX46Y46*%
G04 Gerber Fmt 4.6, Leading zero omitted, Abs format (unit mm)*
G04 Created by KiCad (PCBNEW (6.0.11-0)) date 2023-03-27 16:41:50*
%MOMM*%
%LPD*%
G01*
G04 APERTURE LIST*
G04 Aperture macros list*
%AMRoundRect*
0 Rectangle with rounded corners*
0 $1 Rounding radius*
0 $2 $3 $4 $5 $6 $7 $8 $9 X,Y pos of 4 corners*
0 Add a 4 corners polygon primitive as box body*
4,1,4,$2,$3,$4,$5,$6,$7,$8,$9,$2,$3,0*
0 Add four circle primitives for the rounded corners*
1,1,$1+$1,$2,$3*
1,1,$1+$1,$4,$5*
1,1,$1+$1,$6,$7*
1,1,$1+$1,$8,$9*
0 Add four rect primitives between the rounded corners*
20,1,$1+$1,$2,$3,$4,$5,0*
20,1,$1+$1,$4,$5,$6,$7,0*
20,1,$1+$1,$6,$7,$8,$9,0*
20,1,$1+$1,$8,$9,$2,$3,0*%
G04 Aperture macros list end*
%ADD10C,0.300000*%
%ADD11C,0.150000*%
%ADD12C,0.120000*%
%ADD13C,1.000000*%
%ADD14C,0.800000*%
%ADD15O,1.800000X2.600000*%
%ADD16C,3.230000*%
%ADD17C,1.800000*%
%ADD18RoundRect,0.249999X1.550001X-0.790001X1.550001X0.790001X-1.550001X0.790001X-1.550001X-0.790001X0*%
%ADD19O,3.600000X2.080000*%
%ADD20R,1.524000X1.524000*%
%ADD21C,1.524000*%
%ADD22C,2.400000*%
%ADD23O,2.400000X2.400000*%
G04 APERTURE END LIST*
D10*
X81568571Y-150235000D02*
X82282857Y-150235000D01*
X81425714Y-150663571D02*
X81925714Y-149163571D01*
X82425714Y-150663571D01*
X83139999Y-150663571D02*
X82997142Y-150592142D01*
X82925714Y-150449285D01*
X82925714Y-149163571D01*
X84282857Y-150592142D02*
X84139999Y-150663571D01*
X83854285Y-150663571D01*
X83711428Y-150592142D01*
X83639999Y-150449285D01*
X83639999Y-149877857D01*
X83711428Y-149735000D01*
X83854285Y-149663571D01*
X84139999Y-149663571D01*
X84282857Y-149735000D01*
X84354285Y-149877857D01*
X84354285Y-150020714D01*
X83639999Y-150163571D01*
X84854285Y-150663571D02*
X85639999Y-149663571D01*
X84854285Y-149663571D02*
X85639999Y-150663571D01*
X86211428Y-150663571D02*
X86211428Y-149663571D01*
X86211428Y-149163571D02*
X86139999Y-149235000D01*
X86211428Y-149306428D01*
X86282857Y-149235000D01*
X86211428Y-149163571D01*
X86211428Y-149306428D01*
X86854285Y-150592142D02*
X86997142Y-150663571D01*
X87282857Y-150663571D01*
X87425714Y-150592142D01*
X87497142Y-150449285D01*
X87497142Y-150377857D01*
X87425714Y-150235000D01*
X87282857Y-150163571D01*
X87068571Y-150163571D01*
X86925714Y-150092142D01*
X86854285Y-149949285D01*
X86854285Y-149877857D01*
X86925714Y-149735000D01*
X87068571Y-149663571D01*
X87282857Y-149663571D01*
X87425714Y-149735000D01*
X90068571Y-149235000D02*
X89925714Y-149163571D01*
X89711428Y-149163571D01*
X89497142Y-149235000D01*
X89354285Y-149377857D01*
X89282857Y-149520714D01*
X89211428Y-149806428D01*
X89211428Y-150020714D01*
X89282857Y-150306428D01*
X89354285Y-150449285D01*
X89497142Y-150592142D01*
X89711428Y-150663571D01*
X89854285Y-150663571D01*
X90068571Y-150592142D01*
X90140000Y-150520714D01*
X90140000Y-150020714D01*
X89854285Y-150020714D01*
X91425714Y-150663571D02*
X91425714Y-149877857D01*
X91354285Y-149735000D01*
X91211428Y-149663571D01*
X90925714Y-149663571D01*
X90782857Y-149735000D01*
X91425714Y-150592142D02*
X91282857Y-150663571D01*
X90925714Y-150663571D01*
X90782857Y-150592142D01*
X90711428Y-150449285D01*
X90711428Y-150306428D01*
X90782857Y-150163571D01*
X90925714Y-150092142D01*
X91282857Y-150092142D01*
X91425714Y-150020714D01*
X92139999Y-150663571D02*
X92139999Y-149663571D01*
X92139999Y-149949285D02*
X92211428Y-149806428D01*
X92282857Y-149735000D01*
X92425714Y-149663571D01*
X92568571Y-149663571D01*
X93711428Y-150592142D02*
X93568571Y-150663571D01*
X93282857Y-150663571D01*
X93140000Y-150592142D01*
X93068571Y-150520714D01*
X92997142Y-150377857D01*
X92997142Y-149949285D01*
X93068571Y-149806428D01*
X93140000Y-149735000D01*
X93282857Y-149663571D01*
X93568571Y-149663571D01*
X93711428Y-149735000D01*
X94354285Y-150663571D02*
X94354285Y-149663571D01*
X94354285Y-149163571D02*
X94282857Y-149235000D01*
X94354285Y-149306428D01*
X94425714Y-149235000D01*
X94354285Y-149163571D01*
X94354285Y-149306428D01*
X95711428Y-150663571D02*
X95711428Y-149877857D01*
X95640000Y-149735000D01*
X95497142Y-149663571D01*
X95211428Y-149663571D01*
X95068571Y-149735000D01*
X95711428Y-150592142D02*
X95568571Y-150663571D01*
X95211428Y-150663571D01*
X95068571Y-150592142D01*
X94997142Y-150449285D01*
X94997142Y-150306428D01*
X95068571Y-150163571D01*
X95211428Y-150092142D01*
X95568571Y-150092142D01*
X95711428Y-150020714D01*
X96497142Y-150592142D02*
X96497142Y-150663571D01*
X96425714Y-150806428D01*
X96354285Y-150877857D01*
X99139999Y-150663571D02*
X98639999Y-149949285D01*
X98282857Y-150663571D02*
X98282857Y-149163571D01*
X98854285Y-149163571D01*
X98997142Y-149235000D01*
X99068571Y-149306428D01*
X99139999Y-149449285D01*
X99139999Y-149663571D01*
X99068571Y-149806428D01*
X98997142Y-149877857D01*
X98854285Y-149949285D01*
X98282857Y-149949285D01*
X100425714Y-149663571D02*
X100425714Y-150663571D01*
X99782857Y-149663571D02*
X99782857Y-150449285D01*
X99854285Y-150592142D01*
X99997142Y-150663571D01*
X100211428Y-150663571D01*
X100354285Y-150592142D01*
X100425714Y-150520714D01*
X101782857Y-150663571D02*
X101782857Y-149163571D01*
X101782857Y-150592142D02*
X101640000Y-150663571D01*
X101354285Y-150663571D01*
X101211428Y-150592142D01*
X101140000Y-150520714D01*
X101068571Y-150377857D01*
X101068571Y-149949285D01*
X101140000Y-149806428D01*
X101211428Y-149735000D01*
X101354285Y-149663571D01*
X101640000Y-149663571D01*
X101782857Y-149735000D01*
X102354285Y-149663571D02*
X102711428Y-150663571D01*
X103068571Y-149663571D02*
X102711428Y-150663571D01*
X102568571Y-151020714D01*
X102497142Y-151092142D01*
X102354285Y-151163571D01*
X105282857Y-149877857D02*
X104782857Y-149877857D01*
X104782857Y-150663571D02*
X104782857Y-149163571D01*
X105497142Y-149163571D01*
X106282857Y-150663571D02*
X106140000Y-150592142D01*
X106068571Y-150449285D01*
X106068571Y-149163571D01*
X107068571Y-150663571D02*
X106925714Y-150592142D01*
X106854285Y-150520714D01*
X106782857Y-150377857D01*
X106782857Y-149949285D01*
X106854285Y-149806428D01*
X106925714Y-149735000D01*
X107068571Y-149663571D01*
X107282857Y-149663571D01*
X107425714Y-149735000D01*
X107497142Y-149806428D01*
X107568571Y-149949285D01*
X107568571Y-150377857D01*
X107497142Y-150520714D01*
X107425714Y-150592142D01*
X107282857Y-150663571D01*
X107068571Y-150663571D01*
X108211428Y-150663571D02*
X108211428Y-149663571D01*
X108211428Y-149949285D02*
X108282857Y-149806428D01*
X108354285Y-149735000D01*
X108497142Y-149663571D01*
X108640000Y-149663571D01*
X109711428Y-150592142D02*
X109568571Y-150663571D01*
X109282857Y-150663571D01*
X109140000Y-150592142D01*
X109068571Y-150449285D01*
X109068571Y-149877857D01*
X109140000Y-149735000D01*
X109282857Y-149663571D01*
X109568571Y-149663571D01*
X109711428Y-149735000D01*
X109782857Y-149877857D01*
X109782857Y-150020714D01*
X109068571Y-150163571D01*
X110354285Y-150592142D02*
X110497142Y-150663571D01*
X110782857Y-150663571D01*
X110925714Y-150592142D01*
X110997142Y-150449285D01*
X110997142Y-150377857D01*
X110925714Y-150235000D01*
X110782857Y-150163571D01*
X110568571Y-150163571D01*
X110425714Y-150092142D01*
X110354285Y-149949285D01*
X110354285Y-149877857D01*
X110425714Y-149735000D01*
X110568571Y-149663571D01*
X110782857Y-149663571D01*
X110925714Y-149735000D01*
X111711428Y-150592142D02*
X111711428Y-150663571D01*
X111640000Y-150806428D01*
X111568571Y-150877857D01*
X114354285Y-150663571D02*
X113854285Y-149949285D01*
X113497142Y-150663571D02*
X113497142Y-149163571D01*
X114068571Y-149163571D01*
X114211428Y-149235000D01*
X114282857Y-149306428D01*
X114354285Y-149449285D01*
X114354285Y-149663571D01*
X114282857Y-149806428D01*
X114211428Y-149877857D01*
X114068571Y-149949285D01*
X113497142Y-149949285D01*
X115568571Y-150592142D02*
X115425714Y-150663571D01*
X115140000Y-150663571D01*
X114997142Y-150592142D01*
X114925714Y-150449285D01*
X114925714Y-149877857D01*
X114997142Y-149735000D01*
X115140000Y-149663571D01*
X115425714Y-149663571D01*
X115568571Y-149735000D01*
X115640000Y-149877857D01*
X115640000Y-150020714D01*
X114925714Y-150163571D01*
X116282857Y-149663571D02*
X116282857Y-150663571D01*
X116282857Y-149806428D02*
X116354285Y-149735000D01*
X116497142Y-149663571D01*
X116711428Y-149663571D01*
X116854285Y-149735000D01*
X116925714Y-149877857D01*
X116925714Y-150663571D01*
X118211428Y-150592142D02*
X118068571Y-150663571D01*
X117782857Y-150663571D01*
X117640000Y-150592142D01*
X117568571Y-150449285D01*
X117568571Y-149877857D01*
X117640000Y-149735000D01*
X117782857Y-149663571D01*
X118068571Y-149663571D01*
X118211428Y-149735000D01*
X118282857Y-149877857D01*
X118282857Y-150020714D01*
X117568571Y-150163571D01*
X120068571Y-150663571D02*
X120068571Y-149163571D01*
X120568571Y-150235000D01*
X121068571Y-149163571D01*
X121068571Y-150663571D01*
X121997142Y-150663571D02*
X121854285Y-150592142D01*
X121782857Y-150520714D01*
X121711428Y-150377857D01*
X121711428Y-149949285D01*
X121782857Y-149806428D01*
X121854285Y-149735000D01*
X121997142Y-149663571D01*
X122211428Y-149663571D01*
X122354285Y-149735000D01*
X122425714Y-149806428D01*
X122497142Y-149949285D01*
X122497142Y-150377857D01*
X122425714Y-150520714D01*
X122354285Y-150592142D01*
X122211428Y-150663571D01*
X121997142Y-150663571D01*
X123354285Y-150663571D02*
X123211428Y-150592142D01*
X123140000Y-150449285D01*
X123140000Y-149163571D01*
X123925714Y-150663571D02*
X123925714Y-149663571D01*
X123925714Y-149163571D02*
X123854285Y-149235000D01*
X123925714Y-149306428D01*
X123997142Y-149235000D01*
X123925714Y-149163571D01*
X123925714Y-149306428D01*
X124640000Y-149663571D02*
X124640000Y-150663571D01*
X124640000Y-149806428D02*
X124711428Y-149735000D01*
X124854285Y-149663571D01*
X125068571Y-149663571D01*
X125211428Y-149735000D01*
X125282857Y-149877857D01*
X125282857Y-150663571D01*
X126640000Y-150663571D02*
X126640000Y-149877857D01*
X126568571Y-149735000D01*
X126425714Y-149663571D01*
X126140000Y-149663571D01*
X125997142Y-149735000D01*
X126640000Y-150592142D02*
X126497142Y-150663571D01*
X126140000Y-150663571D01*
X125997142Y-150592142D01*
X125925714Y-150449285D01*
X125925714Y-150306428D01*
X125997142Y-150163571D01*
X126140000Y-150092142D01*
X126497142Y-150092142D01*
X126640000Y-150020714D01*
X94461428Y-153007142D02*
X94675714Y-153078571D01*
X95032857Y-153078571D01*
X95175714Y-153007142D01*
X95247142Y-152935714D01*
X95318571Y-152792857D01*
X95318571Y-152650000D01*
X95247142Y-152507142D01*
X95175714Y-152435714D01*
X95032857Y-152364285D01*
X94747142Y-152292857D01*
X94604285Y-152221428D01*
X94532857Y-152150000D01*
X94461428Y-152007142D01*
X94461428Y-151864285D01*
X94532857Y-151721428D01*
X94604285Y-151650000D01*
X94747142Y-151578571D01*
X95104285Y-151578571D01*
X95318571Y-151650000D01*
X96532857Y-153007142D02*
X96390000Y-153078571D01*
X96104285Y-153078571D01*
X95961428Y-153007142D01*
X95890000Y-152864285D01*
X95890000Y-152292857D01*
X95961428Y-152150000D01*
X96104285Y-152078571D01*
X96390000Y-152078571D01*
X96532857Y-152150000D01*
X96604285Y-152292857D01*
X96604285Y-152435714D01*
X95890000Y-152578571D01*
X97247142Y-152078571D02*
X97247142Y-153078571D01*
X97247142Y-152221428D02*
X97318571Y-152150000D01*
X97461428Y-152078571D01*
X97675714Y-152078571D01*
X97818571Y-152150000D01*
X97890000Y-152292857D01*
X97890000Y-153078571D01*
X98604285Y-153078571D02*
X98604285Y-152078571D01*
X98604285Y-151578571D02*
X98532857Y-151650000D01*
X98604285Y-151721428D01*
X98675714Y-151650000D01*
X98604285Y-151578571D01*
X98604285Y-151721428D01*
X99532857Y-153078571D02*
X99390000Y-153007142D01*
X99318571Y-152935714D01*
X99247142Y-152792857D01*
X99247142Y-152364285D01*
X99318571Y-152221428D01*
X99390000Y-152150000D01*
X99532857Y-152078571D01*
X99747142Y-152078571D01*
X99890000Y-152150000D01*
X99961428Y-152221428D01*
X100032857Y-152364285D01*
X100032857Y-152792857D01*
X99961428Y-152935714D01*
X99890000Y-153007142D01*
X99747142Y-153078571D01*
X99532857Y-153078571D01*
X100675714Y-153078571D02*
X100675714Y-152078571D01*
X100675714Y-152364285D02*
X100747142Y-152221428D01*
X100818571Y-152150000D01*
X100961428Y-152078571D01*
X101104285Y-152078571D01*
X102747142Y-153078571D02*
X102747142Y-151578571D01*
X103318571Y-151578571D01*
X103461428Y-151650000D01*
X103532857Y-151721428D01*
X103604285Y-151864285D01*
X103604285Y-152078571D01*
X103532857Y-152221428D01*
X103461428Y-152292857D01*
X103318571Y-152364285D01*
X102747142Y-152364285D01*
X104247142Y-153078571D02*
X104247142Y-152078571D01*
X104247142Y-152364285D02*
X104318571Y-152221428D01*
X104390000Y-152150000D01*
X104532857Y-152078571D01*
X104675714Y-152078571D01*
X105390000Y-153078571D02*
X105247142Y-153007142D01*
X105175714Y-152935714D01*
X105104285Y-152792857D01*
X105104285Y-152364285D01*
X105175714Y-152221428D01*
X105247142Y-152150000D01*
X105390000Y-152078571D01*
X105604285Y-152078571D01*
X105747142Y-152150000D01*
X105818571Y-152221428D01*
X105890000Y-152364285D01*
X105890000Y-152792857D01*
X105818571Y-152935714D01*
X105747142Y-153007142D01*
X105604285Y-153078571D01*
X105390000Y-153078571D01*
X106532857Y-152078571D02*
X106532857Y-153364285D01*
X106461428Y-153507142D01*
X106318571Y-153578571D01*
X106247142Y-153578571D01*
X106532857Y-151578571D02*
X106461428Y-151650000D01*
X106532857Y-151721428D01*
X106604285Y-151650000D01*
X106532857Y-151578571D01*
X106532857Y-151721428D01*
X107818571Y-153007142D02*
X107675714Y-153078571D01*
X107390000Y-153078571D01*
X107247142Y-153007142D01*
X107175714Y-152864285D01*
X107175714Y-152292857D01*
X107247142Y-152150000D01*
X107390000Y-152078571D01*
X107675714Y-152078571D01*
X107818571Y-152150000D01*
X107890000Y-152292857D01*
X107890000Y-152435714D01*
X107175714Y-152578571D01*
X109175714Y-153007142D02*
X109032857Y-153078571D01*
X108747142Y-153078571D01*
X108604285Y-153007142D01*
X108532857Y-152935714D01*
X108461428Y-152792857D01*
X108461428Y-152364285D01*
X108532857Y-152221428D01*
X108604285Y-152150000D01*
X108747142Y-152078571D01*
X109032857Y-152078571D01*
X109175714Y-152150000D01*
X109604285Y-152078571D02*
X110175714Y-152078571D01*
X109818571Y-151578571D02*
X109818571Y-152864285D01*
X109890000Y-153007142D01*
X110032857Y-153078571D01*
X110175714Y-153078571D01*
X110604285Y-153007142D02*
X110747142Y-153078571D01*
X111032857Y-153078571D01*
X111175714Y-153007142D01*
X111247142Y-152864285D01*
X111247142Y-152792857D01*
X111175714Y-152650000D01*
X111032857Y-152578571D01*
X110818571Y-152578571D01*
X110675714Y-152507142D01*
X110604285Y-152364285D01*
X110604285Y-152292857D01*
X110675714Y-152150000D01*
X110818571Y-152078571D01*
X111032857Y-152078571D01*
X111175714Y-152150000D01*
X112961428Y-151721428D02*
X113032857Y-151650000D01*
X113175714Y-151578571D01*
X113532857Y-151578571D01*
X113675714Y-151650000D01*
X113747142Y-151721428D01*
X113818571Y-151864285D01*
X113818571Y-152007142D01*
X113747142Y-152221428D01*
X112890000Y-153078571D01*
X113818571Y-153078571D01*
X97425714Y-155422142D02*
X97640000Y-155493571D01*
X97997142Y-155493571D01*
X98140000Y-155422142D01*
X98211428Y-155350714D01*
X98282857Y-155207857D01*
X98282857Y-155065000D01*
X98211428Y-154922142D01*
X98140000Y-154850714D01*
X97997142Y-154779285D01*
X97711428Y-154707857D01*
X97568571Y-154636428D01*
X97497142Y-154565000D01*
X97425714Y-154422142D01*
X97425714Y-154279285D01*
X97497142Y-154136428D01*
X97568571Y-154065000D01*
X97711428Y-153993571D01*
X98068571Y-153993571D01*
X98282857Y-154065000D01*
X98925714Y-154493571D02*
X98925714Y-155993571D01*
X98925714Y-154565000D02*
X99068571Y-154493571D01*
X99354285Y-154493571D01*
X99497142Y-154565000D01*
X99568571Y-154636428D01*
X99640000Y-154779285D01*
X99640000Y-155207857D01*
X99568571Y-155350714D01*
X99497142Y-155422142D01*
X99354285Y-155493571D01*
X99068571Y-155493571D01*
X98925714Y-155422142D01*
X100282857Y-155493571D02*
X100282857Y-154493571D01*
X100282857Y-154779285D02*
X100354285Y-154636428D01*
X100425714Y-154565000D01*
X100568571Y-154493571D01*
X100711428Y-154493571D01*
X101211428Y-155493571D02*
X101211428Y-154493571D01*
X101211428Y-153993571D02*
X101140000Y-154065000D01*
X101211428Y-154136428D01*
X101282857Y-154065000D01*
X101211428Y-153993571D01*
X101211428Y-154136428D01*
X101925714Y-154493571D02*
X101925714Y-155493571D01*
X101925714Y-154636428D02*
X101997142Y-154565000D01*
X102140000Y-154493571D01*
X102354285Y-154493571D01*
X102497142Y-154565000D01*
X102568571Y-154707857D01*
X102568571Y-155493571D01*
X103925714Y-154493571D02*
X103925714Y-155707857D01*
X103854285Y-155850714D01*
X103782857Y-155922142D01*
X103640000Y-155993571D01*
X103425714Y-155993571D01*
X103282857Y-155922142D01*
X103925714Y-155422142D02*
X103782857Y-155493571D01*
X103497142Y-155493571D01*
X103354285Y-155422142D01*
X103282857Y-155350714D01*
X103211428Y-155207857D01*
X103211428Y-154779285D01*
X103282857Y-154636428D01*
X103354285Y-154565000D01*
X103497142Y-154493571D01*
X103782857Y-154493571D01*
X103925714Y-154565000D01*
X105711428Y-154136428D02*
X105782857Y-154065000D01*
X105925714Y-153993571D01*
X106282857Y-153993571D01*
X106425714Y-154065000D01*
X106497142Y-154136428D01*
X106568571Y-154279285D01*
X106568571Y-154422142D01*
X106497142Y-154636428D01*
X105640000Y-155493571D01*
X106568571Y-155493571D01*
X107497142Y-153993571D02*
X107640000Y-153993571D01*
X107782857Y-154065000D01*
X107854285Y-154136428D01*
X107925714Y-154279285D01*
X107997142Y-154565000D01*
X107997142Y-154922142D01*
X107925714Y-155207857D01*
X107854285Y-155350714D01*
X107782857Y-155422142D01*
X107640000Y-155493571D01*
X107497142Y-155493571D01*
X107354285Y-155422142D01*
X107282857Y-155350714D01*
X107211428Y-155207857D01*
X107140000Y-154922142D01*
X107140000Y-154565000D01*
X107211428Y-154279285D01*
X107282857Y-154136428D01*
X107354285Y-154065000D01*
X107497142Y-153993571D01*
X108568571Y-154136428D02*
X108640000Y-154065000D01*
X108782857Y-153993571D01*
X109140000Y-153993571D01*
X109282857Y-154065000D01*
X109354285Y-154136428D01*
X109425714Y-154279285D01*
X109425714Y-154422142D01*
X109354285Y-154636428D01*
X108497142Y-155493571D01*
X109425714Y-155493571D01*
X109925714Y-153993571D02*
X110854285Y-153993571D01*
X110354285Y-154565000D01*
X110568571Y-154565000D01*
X110711428Y-154636428D01*
X110782857Y-154707857D01*
X110854285Y-154850714D01*
X110854285Y-155207857D01*
X110782857Y-155350714D01*
X110711428Y-155422142D01*
X110568571Y-155493571D01*
X110140000Y-155493571D01*
X109997142Y-155422142D01*
X109925714Y-155350714D01*
D11*
X182118095Y-24892380D02*
X182118095Y-23892380D01*
X182118095Y-24368571D02*
X182689523Y-24368571D01*
X182689523Y-24892380D02*
X182689523Y-23892380D01*
X183594285Y-23892380D02*
X183403809Y-23892380D01*
X183308571Y-23940000D01*
X183260952Y-23987619D01*
X183165714Y-24130476D01*
X183118095Y-24320952D01*
X183118095Y-24701904D01*
X183165714Y-24797142D01*
X183213333Y-24844761D01*
X183308571Y-24892380D01*
X183499047Y-24892380D01*
X183594285Y-24844761D01*
X183641904Y-24797142D01*
X183689523Y-24701904D01*
X183689523Y-24463809D01*
X183641904Y-24368571D01*
X183594285Y-24320952D01*
X183499047Y-24273333D01*
X183308571Y-24273333D01*
X183213333Y-24320952D01*
X183165714Y-24368571D01*
X183118095Y-24463809D01*
X78012380Y-87575238D02*
X77536190Y-87908571D01*
X78012380Y-88146666D02*
X77012380Y-88146666D01*
X77012380Y-87765714D01*
X77060000Y-87670476D01*
X77107619Y-87622857D01*
X77202857Y-87575238D01*
X77345714Y-87575238D01*
X77440952Y-87622857D01*
X77488571Y-87670476D01*
X77536190Y-87765714D01*
X77536190Y-88146666D01*
X77012380Y-87289523D02*
X78012380Y-86956190D01*
X77012380Y-86622857D01*
X78012380Y-85765714D02*
X78012380Y-86337142D01*
X78012380Y-86051428D02*
X77012380Y-86051428D01*
X77155238Y-86146666D01*
X77250476Y-86241904D01*
X77298095Y-86337142D01*
X49332380Y-79073333D02*
X50046666Y-79073333D01*
X50189523Y-79120952D01*
X50284761Y-79216190D01*
X50332380Y-79359047D01*
X50332380Y-79454285D01*
X50332380Y-78073333D02*
X50332380Y-78644761D01*
X50332380Y-78359047D02*
X49332380Y-78359047D01*
X49475238Y-78454285D01*
X49570476Y-78549523D01*
X49618095Y-78644761D01*
X182118095Y-83312380D02*
X182118095Y-82312380D01*
X182118095Y-82788571D02*
X182689523Y-82788571D01*
X182689523Y-83312380D02*
X182689523Y-82312380D01*
X183641904Y-82312380D02*
X183165714Y-82312380D01*
X183118095Y-82788571D01*
X183165714Y-82740952D01*
X183260952Y-82693333D01*
X183499047Y-82693333D01*
X183594285Y-82740952D01*
X183641904Y-82788571D01*
X183689523Y-82883809D01*
X183689523Y-83121904D01*
X183641904Y-83217142D01*
X183594285Y-83264761D01*
X183499047Y-83312380D01*
X183260952Y-83312380D01*
X183165714Y-83264761D01*
X183118095Y-83217142D01*
X182118095Y-52872380D02*
X182118095Y-51872380D01*
X182118095Y-52348571D02*
X182689523Y-52348571D01*
X182689523Y-52872380D02*
X182689523Y-51872380D01*
X183070476Y-51872380D02*
X183689523Y-51872380D01*
X183356190Y-52253333D01*
X183499047Y-52253333D01*
X183594285Y-52300952D01*
X183641904Y-52348571D01*
X183689523Y-52443809D01*
X183689523Y-52681904D01*
X183641904Y-52777142D01*
X183594285Y-52824761D01*
X183499047Y-52872380D01*
X183213333Y-52872380D01*
X183118095Y-52824761D01*
X183070476Y-52777142D01*
X34798095Y-149432380D02*
X34798095Y-148432380D01*
X34798095Y-148908571D02*
X35369523Y-148908571D01*
X35369523Y-149432380D02*
X35369523Y-148432380D01*
X36369523Y-149432380D02*
X35798095Y-149432380D01*
X36083809Y-149432380D02*
X36083809Y-148432380D01*
X35988571Y-148575238D01*
X35893333Y-148670476D01*
X35798095Y-148718095D01*
X116078095Y-56252380D02*
X116078095Y-57061904D01*
X116125714Y-57157142D01*
X116173333Y-57204761D01*
X116268571Y-57252380D01*
X116459047Y-57252380D01*
X116554285Y-57204761D01*
X116601904Y-57157142D01*
X116649523Y-57061904D01*
X116649523Y-56252380D01*
X117649523Y-57252380D02*
X117078095Y-57252380D01*
X117363809Y-57252380D02*
X117363809Y-56252380D01*
X117268571Y-56395238D01*
X117173333Y-56490476D01*
X117078095Y-56538095D01*
X123340952Y-85938571D02*
X123483809Y-85986190D01*
X123531428Y-86033809D01*
X123579047Y-86129047D01*
X123579047Y-86271904D01*
X123531428Y-86367142D01*
X123483809Y-86414761D01*
X123388571Y-86462380D01*
X123007619Y-86462380D01*
X123007619Y-85462380D01*
X123340952Y-85462380D01*
X123436190Y-85510000D01*
X123483809Y-85557619D01*
X123531428Y-85652857D01*
X123531428Y-85748095D01*
X123483809Y-85843333D01*
X123436190Y-85890952D01*
X123340952Y-85938571D01*
X123007619Y-85938571D01*
X124150476Y-86462380D02*
X124055238Y-86414761D01*
X124007619Y-86367142D01*
X123960000Y-86271904D01*
X123960000Y-85986190D01*
X124007619Y-85890952D01*
X124055238Y-85843333D01*
X124150476Y-85795714D01*
X124293333Y-85795714D01*
X124388571Y-85843333D01*
X124436190Y-85890952D01*
X124483809Y-85986190D01*
X124483809Y-86271904D01*
X124436190Y-86367142D01*
X124388571Y-86414761D01*
X124293333Y-86462380D01*
X124150476Y-86462380D01*
X125055238Y-86462380D02*
X124960000Y-86414761D01*
X124912380Y-86367142D01*
X124864761Y-86271904D01*
X124864761Y-85986190D01*
X124912380Y-85890952D01*
X124960000Y-85843333D01*
X125055238Y-85795714D01*
X125198095Y-85795714D01*
X125293333Y-85843333D01*
X125340952Y-85890952D01*
X125388571Y-85986190D01*
X125388571Y-86271904D01*
X125340952Y-86367142D01*
X125293333Y-86414761D01*
X125198095Y-86462380D01*
X125055238Y-86462380D01*
X125674285Y-85795714D02*
X126055238Y-85795714D01*
X125817142Y-85462380D02*
X125817142Y-86319523D01*
X125864761Y-86414761D01*
X125960000Y-86462380D01*
X126055238Y-86462380D01*
X115578095Y-89272380D02*
X115578095Y-90081904D01*
X115625714Y-90177142D01*
X115673333Y-90224761D01*
X115768571Y-90272380D01*
X115959047Y-90272380D01*
X116054285Y-90224761D01*
X116101904Y-90177142D01*
X116149523Y-90081904D01*
X116149523Y-89272380D01*
X116578095Y-90224761D02*
X116720952Y-90272380D01*
X116959047Y-90272380D01*
X117054285Y-90224761D01*
X117101904Y-90177142D01*
X117149523Y-90081904D01*
X117149523Y-89986666D01*
X117101904Y-89891428D01*
X117054285Y-89843809D01*
X116959047Y-89796190D01*
X116768571Y-89748571D01*
X116673333Y-89700952D01*
X116625714Y-89653333D01*
X116578095Y-89558095D01*
X116578095Y-89462857D01*
X116625714Y-89367619D01*
X116673333Y-89320000D01*
X116768571Y-89272380D01*
X117006666Y-89272380D01*
X117149523Y-89320000D01*
X117911428Y-89748571D02*
X118054285Y-89796190D01*
X118101904Y-89843809D01*
X118149523Y-89939047D01*
X118149523Y-90081904D01*
X118101904Y-90177142D01*
X118054285Y-90224761D01*
X117959047Y-90272380D01*
X117578095Y-90272380D01*
X117578095Y-89272380D01*
X117911428Y-89272380D01*
X118006666Y-89320000D01*
X118054285Y-89367619D01*
X118101904Y-89462857D01*
X118101904Y-89558095D01*
X118054285Y-89653333D01*
X118006666Y-89700952D01*
X117911428Y-89748571D01*
X117578095Y-89748571D01*
X106958095Y-85938571D02*
X107291428Y-85938571D01*
X107434285Y-86462380D02*
X106958095Y-86462380D01*
X106958095Y-85462380D01*
X107434285Y-85462380D01*
X107862857Y-85795714D02*
X107862857Y-86462380D01*
X107862857Y-85890952D02*
X107910476Y-85843333D01*
X108005714Y-85795714D01*
X108148571Y-85795714D01*
X108243809Y-85843333D01*
X108291428Y-85938571D01*
X108291428Y-86462380D01*
X109196190Y-86462380D02*
X109196190Y-85938571D01*
X109148571Y-85843333D01*
X109053333Y-85795714D01*
X108862857Y-85795714D01*
X108767619Y-85843333D01*
X109196190Y-86414761D02*
X109100952Y-86462380D01*
X108862857Y-86462380D01*
X108767619Y-86414761D01*
X108720000Y-86319523D01*
X108720000Y-86224285D01*
X108767619Y-86129047D01*
X108862857Y-86081428D01*
X109100952Y-86081428D01*
X109196190Y-86033809D01*
X109672380Y-86462380D02*
X109672380Y-85462380D01*
X109672380Y-85843333D02*
X109767619Y-85795714D01*
X109958095Y-85795714D01*
X110053333Y-85843333D01*
X110100952Y-85890952D01*
X110148571Y-85986190D01*
X110148571Y-86271904D01*
X110100952Y-86367142D01*
X110053333Y-86414761D01*
X109958095Y-86462380D01*
X109767619Y-86462380D01*
X109672380Y-86414761D01*
X110720000Y-86462380D02*
X110624761Y-86414761D01*
X110577142Y-86319523D01*
X110577142Y-85462380D01*
X111481904Y-86414761D02*
X111386666Y-86462380D01*
X111196190Y-86462380D01*
X111100952Y-86414761D01*
X111053333Y-86319523D01*
X111053333Y-85938571D01*
X111100952Y-85843333D01*
X111196190Y-85795714D01*
X111386666Y-85795714D01*
X111481904Y-85843333D01*
X111529523Y-85938571D01*
X111529523Y-86033809D01*
X111053333Y-86129047D01*
X71952380Y-124626666D02*
X71476190Y-124960000D01*
X71952380Y-125198095D02*
X70952380Y-125198095D01*
X70952380Y-124817142D01*
X71000000Y-124721904D01*
X71047619Y-124674285D01*
X71142857Y-124626666D01*
X71285714Y-124626666D01*
X71380952Y-124674285D01*
X71428571Y-124721904D01*
X71476190Y-124817142D01*
X71476190Y-125198095D01*
X71952380Y-123674285D02*
X71952380Y-124245714D01*
X71952380Y-123960000D02*
X70952380Y-123960000D01*
X71095238Y-124055238D01*
X71190476Y-124150476D01*
X71238095Y-124245714D01*
X182118095Y-149392380D02*
X182118095Y-148392380D01*
X182118095Y-148868571D02*
X182689523Y-148868571D01*
X182689523Y-149392380D02*
X182689523Y-148392380D01*
X183118095Y-148487619D02*
X183165714Y-148440000D01*
X183260952Y-148392380D01*
X183499047Y-148392380D01*
X183594285Y-148440000D01*
X183641904Y-148487619D01*
X183689523Y-148582857D01*
X183689523Y-148678095D01*
X183641904Y-148820952D01*
X183070476Y-149392380D01*
X183689523Y-149392380D01*
X34798095Y-24972380D02*
X34798095Y-23972380D01*
X34798095Y-24448571D02*
X35369523Y-24448571D01*
X35369523Y-24972380D02*
X35369523Y-23972380D01*
X36274285Y-24305714D02*
X36274285Y-24972380D01*
X36036190Y-23924761D02*
X35798095Y-24639047D01*
X36417142Y-24639047D01*
D12*
X72595000Y-76575000D02*
X72595000Y-78094000D01*
X76430000Y-78095000D02*
X76430000Y-97385000D01*
X75194000Y-76575000D02*
X72595000Y-76575000D01*
X75194000Y-78094000D02*
X72595000Y-78094000D01*
X75194000Y-76575000D02*
X75194000Y-78094000D01*
X76430000Y-78095000D02*
X71360000Y-78095000D01*
X76430000Y-97385000D02*
X71360000Y-97385000D01*
X73895000Y-76575000D02*
X73895000Y-77334000D01*
X71360000Y-78095000D02*
X71360000Y-97385000D01*
X52780000Y-95520000D02*
X52780000Y-97520000D01*
X51780000Y-85360000D02*
X51780000Y-82280000D01*
X50970000Y-95520000D02*
X52780000Y-95520000D01*
X58080000Y-84360000D02*
X58080000Y-83280000D01*
X52780000Y-92440000D02*
X50970000Y-92440000D01*
X58080000Y-63300000D02*
X58080000Y-64040000D01*
X52780000Y-65040000D02*
X52780000Y-67040000D01*
X51780000Y-95520000D02*
X51780000Y-92440000D01*
X50970000Y-92440000D02*
X50970000Y-90440000D01*
X51780000Y-65040000D02*
X51780000Y-61960000D01*
X52780000Y-77200000D02*
X50970000Y-77200000D01*
X59790000Y-58310000D02*
X50970000Y-58310000D01*
X50970000Y-90440000D02*
X52780000Y-90440000D01*
X52780000Y-94180000D02*
X52780000Y-63300000D01*
X58080000Y-89440000D02*
X58080000Y-88360000D01*
X59790000Y-99170000D02*
X59790000Y-58310000D01*
X52780000Y-61960000D02*
X50970000Y-61960000D01*
X50970000Y-67040000D02*
X50970000Y-65040000D01*
X50970000Y-97520000D02*
X50970000Y-95520000D01*
X58080000Y-79280000D02*
X58080000Y-78200000D01*
X50970000Y-99170000D02*
X59790000Y-99170000D01*
X52780000Y-63300000D02*
X58080000Y-63300000D01*
X58080000Y-74200000D02*
X58080000Y-73120000D01*
X52780000Y-82280000D02*
X50970000Y-82280000D01*
X50970000Y-80280000D02*
X52780000Y-80280000D01*
X50970000Y-85360000D02*
X52780000Y-85360000D01*
X51780000Y-90440000D02*
X51780000Y-87360000D01*
X50970000Y-58310000D02*
X50970000Y-99170000D01*
X58080000Y-69120000D02*
X58080000Y-68040000D01*
X51780000Y-80280000D02*
X51780000Y-77200000D01*
X51780000Y-75200000D02*
X51780000Y-72120000D01*
X50970000Y-75200000D02*
X52780000Y-75200000D01*
X52780000Y-87360000D02*
X50970000Y-87360000D01*
X52780000Y-75200000D02*
X52780000Y-77200000D01*
X52780000Y-72120000D02*
X50970000Y-72120000D01*
X52780000Y-80280000D02*
X52780000Y-82280000D01*
X50970000Y-61960000D02*
X50970000Y-59960000D01*
X52780000Y-67040000D02*
X50970000Y-67040000D01*
X50170000Y-91740000D02*
X50170000Y-91140000D01*
X50970000Y-72120000D02*
X50970000Y-70120000D01*
X50170000Y-91140000D02*
X50770000Y-91440000D01*
X58080000Y-94180000D02*
X52780000Y-94180000D01*
X51780000Y-99170000D02*
X51780000Y-97630000D01*
X50970000Y-59960000D02*
X52780000Y-59960000D01*
X50770000Y-91440000D02*
X50170000Y-91740000D01*
X50970000Y-65040000D02*
X52780000Y-65040000D01*
X52780000Y-97520000D02*
X50970000Y-97520000D01*
X51780000Y-70120000D02*
X51780000Y-67040000D01*
X50970000Y-70120000D02*
X52780000Y-70120000D01*
X51780000Y-58310000D02*
X51780000Y-59850000D01*
X52780000Y-59960000D02*
X52780000Y-61960000D01*
X50970000Y-87360000D02*
X50970000Y-85360000D01*
X50970000Y-77200000D02*
X50970000Y-75200000D01*
X58080000Y-93440000D02*
X58080000Y-94180000D01*
X50970000Y-82280000D02*
X50970000Y-80280000D01*
X52780000Y-85360000D02*
X52780000Y-87360000D01*
X52780000Y-70120000D02*
X52780000Y-72120000D01*
X52780000Y-90440000D02*
X52780000Y-92440000D01*
X58080000Y-73120000D02*
G75*
G03*
X58095821Y-69133158I-1650000J2000000D01*
G01*
X58080000Y-78200000D02*
G75*
G03*
X58095821Y-74213158I-1650000J2000000D01*
G01*
X58080000Y-83280000D02*
G75*
G03*
X58095821Y-79293158I-1650000J2000000D01*
G01*
X58080000Y-68040000D02*
G75*
G03*
X58095821Y-64053158I-1650000J2000000D01*
G01*
X58080000Y-93440000D02*
G75*
G03*
X58095821Y-89453158I-1650000J2000000D01*
G01*
X58080000Y-88360000D02*
G75*
G03*
X58095821Y-84373158I-1650000J2000000D01*
G01*
X57780000Y-60960000D02*
G75*
G03*
X57780000Y-60960000I-1900000J0D01*
G01*
X56880000Y-60960000D02*
G75*
G03*
X56880000Y-60960000I-1000000J0D01*
G01*
X56880000Y-96520000D02*
G75*
G03*
X56880000Y-96520000I-1000000J0D01*
G01*
X57780000Y-96520000D02*
G75*
G03*
X57780000Y-96520000I-1900000J0D01*
G01*
D11*
X154299920Y-103919020D02*
X154299920Y-139918440D01*
X154299920Y-139918440D02*
X74300080Y-139918440D01*
X74300080Y-139918440D02*
X74300080Y-103919020D01*
X74300080Y-103919020D02*
X154299920Y-103919020D01*
X154299920Y-137419080D02*
G75*
G03*
X154299920Y-137419080I-2499360J0D01*
G01*
X79303880Y-137419080D02*
G75*
G03*
X79303880Y-137419080I-2501900J0D01*
G01*
X154299920Y-106418380D02*
G75*
G03*
X154299920Y-106418380I-2499360J0D01*
G01*
X79301340Y-106418380D02*
G75*
G03*
X79301340Y-106418380I-2499360J0D01*
G01*
D12*
X124340000Y-65290000D02*
X109340000Y-65290000D01*
X116840000Y-42322000D02*
X116840000Y-44354000D01*
X109340000Y-65290000D02*
X109340000Y-47290000D01*
X107950000Y-46640000D02*
X107950000Y-41560000D01*
X110490000Y-87280000D02*
X110490000Y-91090000D01*
X119380000Y-42322000D02*
X124460000Y-42322000D01*
X121920000Y-42322000D02*
X121920000Y-45878000D01*
X116840000Y-44354000D02*
X119380000Y-44354000D01*
X130840000Y-89790000D02*
X130840000Y-42290000D01*
X107950000Y-87280000D02*
X110490000Y-87280000D01*
X111760000Y-44354000D02*
X114300000Y-44354000D01*
X123190000Y-91090000D02*
X123190000Y-87280000D01*
X114300000Y-42322000D02*
X116840000Y-42322000D01*
X112840000Y-85790000D02*
X120840000Y-85790000D01*
X110490000Y-91090000D02*
X107950000Y-91090000D01*
X104840000Y-40290000D02*
X128840000Y-40290000D01*
X112840000Y-85790000D02*
X112840000Y-91790000D01*
X109220000Y-45878000D02*
X109220000Y-42322000D01*
X124460000Y-42322000D02*
X124460000Y-45878000D01*
X107950000Y-91090000D02*
X107950000Y-87280000D01*
X125730000Y-87280000D02*
X125730000Y-91090000D01*
X104840000Y-91790000D02*
X128840000Y-91790000D01*
X109220000Y-42322000D02*
X111760000Y-42322000D01*
X109340000Y-47290000D02*
X124340000Y-47290000D01*
X102840000Y-42290000D02*
X102840000Y-89790000D01*
X125730000Y-41560000D02*
X125730000Y-46640000D01*
X107950000Y-41560000D02*
X125730000Y-41560000D01*
X123190000Y-87280000D02*
X125730000Y-87280000D01*
X125730000Y-91090000D02*
X123190000Y-91090000D01*
X114300000Y-44354000D02*
X114300000Y-42322000D01*
X111760000Y-42322000D02*
X111760000Y-44354000D01*
X120840000Y-85790000D02*
X120840000Y-91790000D01*
X124340000Y-47290000D02*
X124340000Y-65290000D01*
X119380000Y-44354000D02*
X119380000Y-42322000D01*
X125730000Y-46640000D02*
X107950000Y-46640000D01*
X104840000Y-40290000D02*
G75*
G03*
X102840000Y-42290000I-1J-1999999D01*
G01*
X102840000Y-89790000D02*
G75*
G03*
X104840000Y-91790000I1999999J-1D01*
G01*
X130840000Y-42290000D02*
G75*
G03*
X128840000Y-40290000I-2000000J0D01*
G01*
X128840000Y-91790000D02*
G75*
G03*
X130840000Y-89790000I0J2000000D01*
G01*
X130040000Y-42290000D02*
G75*
G03*
X130040000Y-42290000I-1500000J0D01*
G01*
D13*
X109520000Y-89185000D02*
G75*
G03*
X109520000Y-89185000I-300000J0D01*
G01*
D12*
X106640000Y-42290000D02*
G75*
G03*
X106640000Y-42290000I-1500000J0D01*
G01*
X130040000Y-89790000D02*
G75*
G03*
X130040000Y-89790000I-1500000J0D01*
G01*
D14*
X112160000Y-63150000D02*
G75*
G03*
X112160000Y-63150000I-400000J0D01*
G01*
D13*
X124760000Y-89185000D02*
G75*
G03*
X124760000Y-89185000I-300000J0D01*
G01*
D12*
X106640000Y-89790000D02*
G75*
G03*
X106640000Y-89790000I-1500000J0D01*
G01*
X68580000Y-113200000D02*
X68580000Y-119390000D01*
X68580000Y-135720000D02*
X68580000Y-129530000D01*
X66660000Y-129530000D02*
X70500000Y-129530000D01*
X66660000Y-119390000D02*
X66660000Y-129530000D01*
X70500000Y-119390000D02*
X66660000Y-119390000D01*
X70500000Y-129530000D02*
X70500000Y-119390000D01*
D15*
X82301080Y-106418380D03*
X84841080Y-106418380D03*
X87381080Y-106418380D03*
X89921080Y-106418380D03*
X92461080Y-106418380D03*
X95001080Y-106418380D03*
X97541080Y-106418380D03*
X100081080Y-106418380D03*
X102621080Y-106418380D03*
X105161080Y-106418380D03*
X107701080Y-106418380D03*
X110241080Y-106418380D03*
X112781080Y-106418380D03*
X115321080Y-106418380D03*
X117861080Y-106418380D03*
X120401080Y-106418380D03*
%LPC*%
D16*
X182880000Y-27940000D03*
D17*
X72625000Y-94215000D03*
X75165000Y-86595000D03*
X72625000Y-81515000D03*
D18*
X55880000Y-91440000D03*
D19*
X55880000Y-86360000D03*
X55880000Y-81280000D03*
X55880000Y-76200000D03*
X55880000Y-71120000D03*
X55880000Y-66040000D03*
D16*
X182880000Y-86360000D03*
X182880000Y-55920000D03*
D15*
X82301080Y-106418380D03*
X84841080Y-106418380D03*
X87381080Y-106418380D03*
X89921080Y-106418380D03*
X92461080Y-106418380D03*
X95001080Y-106418380D03*
X97541080Y-106418380D03*
X100081080Y-106418380D03*
X102621080Y-106418380D03*
X105161080Y-106418380D03*
X107701080Y-106418380D03*
X110241080Y-106418380D03*
X112781080Y-106418380D03*
X115321080Y-106418380D03*
X117861080Y-106418380D03*
X120401080Y-106418380D03*
D16*
X35560000Y-152480000D03*
D20*
X104140000Y-46330000D03*
D21*
X104140000Y-48870000D03*
X104140000Y-51410000D03*
X104140000Y-53950000D03*
X104140000Y-56490000D03*
X104140000Y-59030000D03*
X104140000Y-61570000D03*
X104140000Y-64110000D03*
X104140000Y-66650000D03*
X104140000Y-69190000D03*
X104140000Y-71730000D03*
X104140000Y-74270000D03*
X104140000Y-76810000D03*
X104140000Y-79350000D03*
X104140000Y-81890000D03*
X129540000Y-81890000D03*
X129540000Y-79350000D03*
X129540000Y-76810000D03*
X129540000Y-74270000D03*
X129540000Y-71730000D03*
X129540000Y-69190000D03*
X129540000Y-66650000D03*
X129540000Y-64110000D03*
X129540000Y-61570000D03*
X129540000Y-59030000D03*
X129540000Y-56490000D03*
X129540000Y-53950000D03*
X129540000Y-51410000D03*
X129540000Y-48870000D03*
X129540000Y-46330000D03*
D22*
X68580000Y-111760000D03*
D23*
X68580000Y-137160000D03*
D16*
X182880000Y-152440000D03*
X35560000Y-28020000D03*
M02*
